<svg id="efe7ae01-49ab-49ac-82c3-8fe58845923b" data-name="Calque 1" xmlns="http://www.w3.org/2000/svg" viewBox="0 0 2163.39 1936.73"><path d="M1449.35,832.28c12.89-2,25.77-4,38.66-6a574.77,574.77,0,0,1,69.66-6.22c31.25-.86,62.5-.46,93.65,2.62,59.61,5.91,117.94,17.92,174.6,37.57,60.55,21,117.25,49.39,168.72,87.8,28.32,21.14,54.12,45,76.55,72.36,24.81,30.26,44.63,63.41,56.22,100.92,20.37,66,12.72,128.9-22,188.48-19.18,32.92-44.93,60-75,83.16-36.43,28-77,48.16-120.21,63.19-37.83,13.16-76.75,21.62-116.47,26.8a716.59,716.59,0,0,1-112.42,6c-24.09-.66-48.21-2-72.09-5.64-20.7-3.15-41.33-6.7-62-10a16.39,16.39,0,0,0-3.75.35c1.33,4.4,5.09,6.26,7.88,8.83,13.2,12.12,24.74,25.57,33.85,41s15.32,32,17,50.08c2.49,26.89-4.56,50.85-20.94,72.19-9.74,12.68-21.65,23-34.94,31.79-21,13.86-43.87,23.52-68,30.06a356.23,356.23,0,0,1-84.27,12.42,208.05,208.05,0,0,1-21.34-.51c-32.31-2.57-64.67-4.47-96.86-8.61-16.84-2.17-33.86-3.08-50.71-5.23a813.36,813.36,0,0,1-86.22-15.86,98.37,98.37,0,0,1-20.95-8c-30.81-15.42-62.24-29.25-95.43-38.77-3.8-1.09-7.58-2.24-11.41-3.22-22.59-5.79-23-5.75-46.18,2.86-3.76,7.41-1.37,14.42,2.91,20.77a44.08,44.08,0,0,0,9.82,10.17c22.93,17.49,48.16,30.23,76.65,35.81a251.48,251.48,0,0,0,47.1,5.1c17,.09,34,.63,51,.95,26.49.5,53,.05,79.46,1.71,28.37,1.79,56.65,5.13,84.11,13.48a219.54,219.54,0,0,1,57.75,27.1c10,6.62,18.37,15,25.87,24.26a44.88,44.88,0,0,1,9.93,21.26c.63,3.9,1.6,7.75,2.51,11.59,5,20.88-5,41.27-24.9,49.32-14.59,5.9-29.88,7.43-45.38,3.58-17.82-4.42-34.29-12.1-49.79-21.73-15.78-9.81-31.25-20.13-46.72-30.43a134.28,134.28,0,0,0-28.52-14.36,85.36,85.36,0,0,0-26.7-5.09c-16.65-.5-31,5.26-42.32,17.77-2.89,3.18-5,7.27-9.55,8.58a3.84,3.84,0,0,1-3.15-.61,3.66,3.66,0,0,1-.8-3.08,11.59,11.59,0,0,1,2.13-4.16c11.15-14.29,25.16-24.12,43.54-26.07a290.21,290.21,0,0,1,30.79-1.28c14.66,0,27.87,5.35,40.24,12.71,9.16,5.46,18.06,11.38,27,17.25,15.25,10,31.25,18.6,48.52,24.62a91.12,91.12,0,0,0,30.24,5.21c9.64,0,17.46-3.46,24.44-10.15,9.13-8.76,13.81-18.85,13.31-31.65-.28-7.26-2.51-12.88-8.24-17.46a166.86,166.86,0,0,0-34.32-21,236.12,236.12,0,0,0-58.8-18,428.51,428.51,0,0,0-63.68-6.22c-23.86-.57-47.4,2.33-70.73,6.64-23.78,4.39-47.79,6.43-71.8,8.55-12.2,1.07-24.36,2.49-36.69,1.64-36.93-2.57-71.83-11.75-102.68-32.76a125.89,125.89,0,0,1-42.85-49.81c-2.2-4.56-3.22-9.7-4.67-14.6-.65-2.22-1-4.51-1.73-7.63-13.38,4.14-26.82,3.38-40.13,4.12-40.81,2.28-79.34-6.5-115.78-24.71-10.73-5.37-19.42-13.56-28.07-21.69-13.87-13-26-27.65-37.43-42.83-11.91-15.8-23.63-31.7-32.43-49.54-15.15-30.72-25.15-63.07-31.12-96.73a520.08,520.08,0,0,1-7.6-92c0-7.51-.38-15-.25-22.53.7-41.35,8.31-81.69,18.17-121.67,2.08-8.44,4.41-16.82,6.91-25.14a191.88,191.88,0,0,1,30.42-60c4.19-5.62,5.52-11,4.28-17.54-3.64-19.19-3.22-38.58-2.44-57.94,1.33-33,8.1-65.09,18.29-96.39,6.23-19.13,13.84-37.82,21.32-58-.55-1.51-1.57-4.46-2.71-7.37-9.92-25.33-14.13-51.75-14.89-78.81-.18-6.28-.41-12.55-.62-18.9-1.93-.14-3.18-.56-4.21-.25C665.06,771.27,650.33,776,637,784a134.85,134.85,0,0,0-19.24,13.76c-12,10.54-25.2,19.08-40.2,24.67a59.59,59.59,0,0,0-17.47,9.86c-1.53,1.25-3.14,2.41-4.77,3.53-12.58,8.59-25.46,10.09-38.86,1.78-2.27-1.41-4.9-2.26-7.93-3.62l-4.05,6.66c1.08,1.16,1.49,2,2.11,2.23,28.3,8.81,56.65,17.45,83.14,31.1,20.17,10.4,39,22.64,54.15,39.8.27.29.52.59.8.88,12.58,12.87,15.71,28,10,44.81-3.52,10.42-3.74,20.88-2.26,31.58a123.41,123.41,0,0,1-4.08,54c-4.43,14.34-9.28,28.56-14,42.82a41.69,41.69,0,0,1-1.82,4.38c-4.51,9.83-9.41,19.31-20.77,23-1.47,5.23-2.53,10.27-4.29,15-5.67,15.41-14.55,29-25.37,41.16-7.38,8.33-13.23,9.54-23.29,5a69.69,69.69,0,0,1-15.16-9.15c-10.39-8.5-20.3-17.59-30.39-26.46-1.67-1.47-3.26-3-6.9-6.44,1.25,4.81,1.74,7,2.39,9.15a461.88,461.88,0,0,1,13.22,56.5c3.28,19.07,7.56,38,11.89,56.85,6.71,29.31,11.43,59,15.58,88.7,2.56,18.39,5.56,36.72,8.33,55.08,1.18,7.81,2.46,15.62,3.39,23.46.5,4.29.36,8.67.52,13,.29,7.88-7.2,14.13-14.17,15-6.67.89-8.85-.68-10.92-7.33-5.68-18.17-8.59-36.9-11.85-55.58-3.73-21.41-7.31-42.88-12.06-64.07-7.54-33.59-12.29-67.64-18.31-101.48-3.39-19.06-7-38.09-10.5-57.13-3.79-20.59-7.69-41.16-11.27-61.78-.64-3.7-1.77-6.66-4.42-9.34-16.7-16.84-33.3-33.8-50-50.68a19.51,19.51,0,0,0-3.31-2.1,23.37,23.37,0,0,0-2.94,3.57c-5.46,10.22-12.78,19-21,27.1-3.93,3.89-7.57,8.07-11.54,11.92-4.53,4.4-9.08,8.83-14,12.8-17.83,14.41-35.8,28.66-53.75,42.93-6.5,5.17-13.13,10.18-19.63,15.35-17,13.55-34,27.08-50.92,40.78a155.14,155.14,0,0,0-13,12.1q-27,27.55-53.72,55.31c-3.26,3.39-5.81,7.47-8.84,11.1-2.42,2.89-5.61,3.25-8.28.62a64.87,64.87,0,0,1-7.56-9.06,128.88,128.88,0,0,1-23.54-71c-.62-19.49.35-38.73,7-57.32a61.87,61.87,0,0,0,2.52-9.14c3.32-17,11.41-31.93,20-46.61a71.7,71.7,0,0,1,7.81-10.42c13.22-15.3,28.34-28.71,43.39-42.09,7.9-7,17.09-12.82,26.31-18.09a354.57,354.57,0,0,1,38-19.35,252.64,252.64,0,0,1,59.22-16.59c18.52-2.9,36.95-3.58,55.44,0a15.43,15.43,0,0,0,3.33-.26l2.93-7.05c-1.74-1.46-3-3-4.71-3.86-13.11-6.46-26.21-13-39.48-19.09s-27.44-8-41.59-8.59a72.32,72.32,0,0,0-30.19,5.11c-5.85,2.37-11.63,5-17.25,7.85-13,6.66-25.94,13.53-38.86,20.37a204,204,0,0,1-76.73,23c-7.47.72-15,1.51-22.36,2.66a107.46,107.46,0,0,0-29.48,8.63C77.31,1012,63,1018.65,50.6,1028.76c-5.8,4.76-11.17,10-16.8,15a77.77,77.77,0,0,1-8.22,6.75,5.89,5.89,0,0,1-9-4.24,21.31,21.31,0,0,1,.21-5.85,89.77,89.77,0,0,1,10.67-31.26A260.58,260.58,0,0,1,42.92,983.9c3.58-5.1,8.27-9.53,13-13.67,5.34-4.68,11.43-8.5,16.87-13.08a130.64,130.64,0,0,0,13.71-13c10.29-11.57,22.8-17.85,38.44-18,22.27-.23,43.89-5.08,65.57-9.52,11.22-2.29,22.49-5.09,33.83-5.7,10.14-.55,20.41,1.57,30.62,2.55,3.43.33,6.84.8,10.87,1.27.26-9.75.5-18.61.76-28.33-1.65-.45-3.8-1.45-6-1.56-28.65-1.55-56.95.21-84.15,10.29-14.45,5.35-28.69,11.26-43,16.89-3.3,1.29-6.57,2.83-10,3.58-5.85,1.27-10-3.18-8.73-9.15a31.19,31.19,0,0,1,2-5.56c12.69-30,28.13-58.39,47.52-84.59,11.42-15.43,25.08-28.47,42-37.75,13.16-7.2,26.33-14.42,39.71-21.23,15.32-7.79,31.8-11.88,48.86-13.44,9.44-.87,18.92-1.51,28.39-1.6,8.67-.07,17.34.75,26,1.18l9.6.48c9.36-16.57,20.39-31.34,38-40.61-.68-4.33-1.1-8.58-2.05-12.71q-12-52-24.18-103.9a20.48,20.48,0,0,0-1.33-3l-18.06-8.35a42.79,42.79,0,0,0-3.17,5.25c-4.72,11.32-13.6,18.54-24.47,22.85A79.29,79.29,0,0,1,291,609c-33.41-1.29-65.8-8.05-97.69-17.78-20-6.11-40.26-11.76-61.24-13.53-9.82-.83-19.73-.71-29.6-.76-11.46,0-23,.46-34.08-3.12-17.33-5.57-32.45-14.52-43.85-29a46.47,46.47,0,0,1-6.05-10.11c-2.25-5.16-.74-9.18,4.12-12.11a36.9,36.9,0,0,1,7.53-3.46c35-11.43,70.62-20.48,107.66-22.08,14.19-.62,28.46-.7,42.56,2.05,3,.59,6.25.38,9.82.57a56,56,0,0,0,3.16-6.28c6.8-19.2,21.58-29.94,39.87-36,10-3.34,20.75-5,31.3-6.38,6.15-.79,12.58.41,18.85,1,4.07.41,7.56.24,11-2.62,5.28-4.36,11.75-6.16,18.52-7.27,12.15-2,24.25-3.29,36.88,0,.49-2.2,1.21-4,1.28-5.9q1-23.69,1.72-47.38c.55-17,.81-34,1.57-50.92.43-9.86,1.62-19.69,2.42-29.54.15-1.91,0-3.83,0-6.53-3.78,1.29-6.65,2.5-9.64,3.24-4.41,1.09-8.19-.81-9.22-5.17a51,51,0,0,1-1.28-12.81c.22-10,3.43-19.31,7.51-28.36-4.63-2.1-8.16,0-11.5,1.94-4.09,2.38-7.9,5.24-11.86,7.85a77.61,77.61,0,0,1-7,4.42c-3.39,1.74-6,.69-7.56-3.07a80.6,80.6,0,0,1-2.33-7.76c-1.71,1.91-3.42,3-3.93,4.52a98.08,98.08,0,0,0-4.11,14.74,99,99,0,0,1-6.38,21.52c-4.51,10.81-12.31,18.21-22.64,23.22a114.14,114.14,0,0,1-31.53,10.07,331.94,331.94,0,0,1-49.57,4.42c-9.89.13-19.78.34-29.67.47-29.26.37-56.23,7.87-79.91,25.62C68.58,372.42,60.89,378,53.53,384c-9.18,7.49-18.46,14.94-24.1,25.82-1.46,2.81-4.51,3.13-7.13,1.43a11.83,11.83,0,0,1-5.57-7.38c-4-17.88-5.49-35.4,8.69-50.09,7.73-8,14.09-17,20.12-26.28a57.52,57.52,0,0,1,11-12.33c13.83-11.8,27.76-23.52,42.08-34.71,13.76-10.75,28.64-19.74,45.48-25a11.21,11.21,0,0,0,2.29-1.5c-.64-5-3.29-9.44-5.25-14.08-6.25-14.8-5-29.06,5.21-41.28,10.93-13.11,20.18-27.32,29.87-41.27C192.41,134,214,117,239.57,105.16a96.28,96.28,0,0,1,40.07-9.44c15.9-.16,31.63.26,47,4.86.37.12.77.16,1.15.27,16.49,5,32.14,11.33,42.69,26.7,2.89-2.45,5.13-5.48,8.07-6.52s6.77-.25,11.13-.25c3-3.07,6.55-7.31,10.69-10.85,11-9.38,24.41-12.56,38.35-14.11a164.59,164.59,0,0,1,56.53,3.76,320.27,320.27,0,0,1,36.32,10.82c17.26,6.32,32.4,16.35,45.65,29.17,8.18,7.93,13.4,17.57,16.51,28.37A34,34,0,0,1,592,192.26c-2,4.3-4.38,8.41-6.58,12.62-4,7.71-7.89,15.41-9.76,24.07-1.61,7.45-5.86,9.79-13.21,7.43a56.63,56.63,0,0,1-12.6-6.4c-8-5.09-15.62-10.8-23.69-15.78-21-13-43.08-23.37-67.42-28.37-14.83-3.05-29.75-3.72-44.7-.78a63.8,63.8,0,0,0-18.86,6.89c-7.49,4.19-11.85,10.12-11.49,19.11.25,6.27.05,12.55.05,19.73a34.74,34.74,0,0,0,5.43-1c23.6-8.51,42.54-1.43,58.05,17.23l4.17,5c2.18-.59,4.37-1.17,6.55-1.77,16.56-4.54,32.95-2.54,49.26,1.34,35.1,8.36,65.19,26.09,91.57,50.2,25,22.82,45.44,49.41,62.58,78.58,14.66,25,27.1,50.95,35.93,78.56,2.29,7.15,4.64,14.37,5.79,21.74a65.59,65.59,0,0,1,.31,20c-1.45,9.24-7.81,11.86-15.56,6.83a72.08,72.08,0,0,1-12.45-10.86c-8.75-9.14-16.86-18.89-25.82-27.8C628.25,447.66,607.1,426.27,585,406s-47.65-35.18-75.67-45.82c-8.5-3.23-17.06-6.29-25.57-9.46a118.85,118.85,0,0,1-27.15-14.42c-16.48-11.64-25.74-27.5-28-47.47-.36-3.12-.55-6.26-.79-9.18-12.91-7.47-29.26-12.32-40.83-12-3.7,7.8-4.46,16.53-5.6,25-1.88,14.1-3.36,28.27-4.34,42.45-.7,10.23-.39,20.54-.39,30.81s-.06,20.53.33,30.78c.72,18.55,1.73,37.09,2.69,55.63a28.94,28.94,0,0,0,1.15,4.8c2.18,0,4.15.31,6-.05,25-4.91,50.28-5.23,75.58-5.49,8.68-.09,17.4-.35,26,.24,34.17,2.31,56.8,21.4,72.12,50.6a61,61,0,0,1,4.3,12.26c1.08,3.94,1,8.09-2.43,10.91-3.15,2.58-6.88,1.34-10.14-.1-5.05-2.24-9.85-5-14.89-7.33-11.85-5.39-23.66-10.95-35.72-15.84a70,70,0,0,0-39.51-4.43c-9.25,1.67-18.71,2.16-27.9,3.15-1.44,3.47,1.4,4.51,2.83,6.1a101.35,101.35,0,0,1,23.62,44.6,89.45,89.45,0,0,1,2.1,16.41A24.42,24.42,0,0,1,459,582.86c-4.42,6.77-11.62,8.55-18.43,4.17-4-2.56-7.48-5.82-11.26-8.68-10.09-7.63-20.15-15.28-30.35-22.77-2.12-1.56-4.76-2.42-8.28-4.16,1.63,15.67,2.74,30.16,6.12,44.38q9.33,39.21,18.69,78.41c1.53,6.46,2.92,12.95,4.47,19.86,6.92,0,13.17.25,19.4,0,18.59-.89,34.88,5.33,50,15.51a53.9,53.9,0,0,1,18.12,20c1.79,3.4,3.87,6.65,6.1,10.46,1.32-1.42,2.27-2.09,2.74-3,9.33-18.16,22.2-33.67,36.76-47.73,24.39-23.57,53.56-35.76,87.75-35.63,19.26.07,37.61,4.33,55.57,10.83,3.67,1.33,7.32,2.71,11.66,4.32a51.75,51.75,0,0,0,9.22-20.35A82.93,82.93,0,0,1,726,625.26c10-18.4,20.14-36.74,29.94-55.25,22.15-41.84,39.18-85.52,45.78-132.7,3.68-26.28,4.57-52.75,3.69-79.28a26.37,26.37,0,0,0-1-4.17c-2.24.18-4.46.19-6.61.56-7.15,1.25-14.21,1.18-21-1.52-9.38-3.72-12.89-11.76-9.24-21.18a25,25,0,0,1,9.35-12c2.57-1.74,5.31-3.24,7.95-4.83-3.55-7-7.09-11.45-14.21-17a159.19,159.19,0,0,0-14.51-10.28c-11.39-6.94-18-17.58-23.11-29.3-2.15-4.88-2.35-10.14.73-14.77,2.69-4,4.14-8.4,5.41-13,2.3-8.42,5.75-16.37,12.69-23-2-2.76-3.73-5.3-5.67-7.65a98.74,98.74,0,0,1-16.88-28.42c-1.51-4.06-3.42-8.24-3.67-12.45-.49-8.55-3.88-15.92-7.21-23.54-9.9-22.67-13.33-46.2-8.07-70.67,1.78-8.28,4.65-15.95,11.45-21.51.83-.67,2.5-1.33,3.16-.95a6.07,6.07,0,0,1,2.64,3.36,17.28,17.28,0,0,1,.28,5.88c-1,10.81,1,21.2,3.81,31.58,10.23,37.21,30.85,67.2,61.73,90.28,5.67,4.23,11.13,6.33,18.59,4.54a65.79,65.79,0,0,1,29.45-.09c8.29,1.8,16.42,1.82,24.57-.85,13.25-4.33,27-6,40.82-6.8a17.67,17.67,0,0,0,11.55-5c10-9,19.38-18.5,27-29.8,14.42-21.44,19.82-45.36,20.94-70.64.16-3.56.29-7.11.33-10.67.12-10.28.29-20.55-1.91-30.71-.53-2.48,0-5.18,0-9.12,9,4.84,11.66,13,15.46,19.77a102.88,102.88,0,0,1,8.66,22,143.17,143.17,0,0,1,4.78,24.36A120,120,0,0,1,989,128.45a105.71,105.71,0,0,1-9.9,21.41c-4.18,7.06-9.52,13.44-14.37,20.13,2,1.81,3.09-.17,4-1,9.31-8.32,15.59-18.84,20.92-29.92,3.08-6.39,5.33-13.18,8.14-19.71.69-1.61,2.12-2.91,3.08-4.18,3.91,1.47,4,4.36,4.61,7,6.23,30-5.22,53.28-27.66,72.34-2.67,2.27-5.37,4.48-8.13,6.78,1.38,5.31,4.66,8.71,8.05,12,2.27,2.19,4.68,4.25,7.14,6.24,6.82,5.52,8.25,12.48,4.7,20.16-7.63,16.45-14.2,33.52-26.28,47.54a56.39,56.39,0,0,0-3.55,5.28c2.92,2,5.55,3.59,8,5.42,7.52,5.56,13.27,12.43,15.44,21.77a26.29,26.29,0,0,1,.63,5.86c0,3.7-2.81,6-6.25,4.85-4.88-1.61-9.56-3.8-14.44-5.38-4.33-1.4-8.38-4.51-14-2.83,2.49,3.48,4.92,6.51,6.95,9.79,3.15,5.13,5.51,10.36,3.07,16.77-.89,2.33-.46,5.45.16,8,7.48,31.24,11.47,63,13.56,95,.42,6.31.41,12.64.62,19,.13,3.89.3,7.77.5,12.76,2.68-1.16,4.53-1.61,6-2.64a274.78,274.78,0,0,1,72.8-36.7,53.1,53.1,0,0,0,9.83-4.1c22.79-13.29,47.77-20.88,72.93-27.78A820,820,0,0,1,1247,390.17c24.69-3.2,49.41-6.43,74.21-8.56a848.32,848.32,0,0,1,109.07-2.52c12.22.52,24.39,2.24,36.57,3.53q13.53,1.44,27,3.2a54.55,54.55,0,0,1,10.4,2.14c40.42,13.77,76,35.18,104.29,67.54,20.53,23.44,33.85,50.53,39.14,81.26,4.77,27.7,2.49,55.13-5,82.17-7.36,26.56-19.6,50.84-34.8,73.68-23.69,35.59-53.38,65.52-87,91.67a517.47,517.47,0,0,1-62.22,41.3c-3.28,1.86-7.53,2.66-9.16,6.81Zm-717.55-669a3.28,3.28,0,0,0,.12-1c0-.26-.35-.46-.54-.68.2.51.39,1,.59,1.54,5.21,18.21,19.63,39.29,30.94,45.23,7.52-6.77,7.48-8,.85-14.52-9.22-9.07-18.2-18.38-27.36-27.49C735.11,165.05,733.33,164.28,731.8,163.26ZM938.57,336.1c-7.54,0-13.42-4.27-19.45-7.88-4-2.42-7.62-5.63-11.38-8.51-2-1.5-4-2.59-6.73-.69,9,13.47,22.27,20.57,37.18,25.1,5.11,1.56,10.49,3.79,16,.15.67-5.82-2.26-10-5.86-13.71-3.85-4-7.87-7.63-13.74-8.74-5.39-1-10.61-2.85-16-4.18-1.25-.31-2.65,0-6.19,0,3.52,2.75,5.18,4.34,7.11,5.51,5.06,3.07,10.32,5.84,15.33,9,1.47.93,2.38,2.77,3.54,4.19Zm196.68,168.16c-20.26,4-36.25,8.75-44,13.16.28,9.78.88,19.63.75,29.47-.12,9.48-1.14,18.94-1.47,28.41-.34,9.76-2.89,19.43-1.59,30.58,14.87-6.09,29.15-11.46,43.41-17.48.34-3.25.83-6,.87-8.68.17-11.07.24-22.14.28-33.2.06-14.16-1.24-28.37,1.56-42.41.71-.48,5.93-4,8.41-2.1a3.68,3.68,0,0,1,1.23,2.51c1,6.35,1.53,9.52.76,13.3-3.48,17.18-.37,46.75-1.48,56.83-.33,3-1.75,6.1,1.13,9.43l29.54-9.69c3.75-16.18,5-67.7,1.94-79.79C1162.59,496.72,1148.91,500.43,1135.25,504.26ZM176.68,281.63a12.63,12.63,0,0,1-13.76-4.6c-3.21-4-6-8.27-9-12.42-3.19-4.43-4.93-5.27-10-3.23a118,118,0,0,0-16,7.68c-25.72,15.16-47.77,35-69.28,55.4a49.52,49.52,0,0,0-8.52,11.32A100.55,100.55,0,0,1,33,358.3c-11.82,11.41-12.5,25.31-8.86,41.45,2.18-1.83,3.67-2.87,4.91-4.15,16.53-17.23,35.49-31.46,55.71-43.94,21-13,44.53-17.83,69-18.62,15.4-.49,30.83-.59,46.21-1.48,11-.63,22-1.95,33-3.58a103.74,103.74,0,0,0,30.34-9.76A36.41,36.41,0,0,0,281,300a84.78,84.78,0,0,0,7-23.77c1.27-9.35,5.12-17.32,12.73-23.3,1.64-1.29,4.48-2.22,3.21-6.2-3.69.35-7.59.51-11.4,1.14a225.46,225.46,0,0,0-71.58,24,235.26,235.26,0,0,1-53.79,21.32c-3.44.88-6.86,1.87-10.28,2.82-29.74,8.27-57,21-79.23,43.15-4.71,4.69-10.53,8.28-15.91,12.29-1.2.89-2.73,1.73-4.17-.56A21.2,21.2,0,0,1,59.81,347c14.11-15.63,29.53-29.68,48.26-39.71,15.39-8.24,31.68-14.18,48.42-19,6.76-2,13.34-4.55,20-6.86,11.39-.58,21.31-5.54,30.94-10.92a233.74,233.74,0,0,1,81.4-27.59c1.13-.16,2.13-1.31,4.31-2.72-23.91-5.48-46.3-9.11-69.45-5.86-9.94,1.4-18.13,4.58-24,13.09-7.17,10.4-14.7,20.55-22,30.86C177.06,279.19,177,280.51,176.68,281.63ZM762.93,284a45,45,0,0,0,5,4.68,99.16,99.16,0,0,1,20.78,18.81,16.37,16.37,0,0,0,4.13,4.09c1.09.62,2.84.12,5.5.12-7.6-7.21-14.2-13.81-21.18-20-4.06-3.6-8.57-6.78-14.15-7.83-4.36-4.51-8.76-9-13.09-13.54a29.34,29.34,0,0,1-8.26-16.72c-.17-1.25.43-2.61.68-4,1.1.31,1.61.3,1.83.54a9,9,0,0,1,2.14,2.77c4.18,12.83,13.55,21.16,24.6,27.77a87.42,87.42,0,0,1,18.38,14.86c8.7,9.15,19.13,14.71,31.55,17.64,7.59,1.79,14,.93,20.43-2.63,3.46-1.91,6.68-4.25,10.15-6.13,9.6-5.23,19.38-6.48,29.37-.92,2.42,1.35,4.94,2.51,7.47,3.62,13.24,5.84,30,4.05,41.11-8.73,4.15-4.75,7.62-10.09,11.63-15,3.5-4.26,6.88-8.78,11.09-12.24a73.6,73.6,0,0,0,14.42-15.6c.56-.83,1.77-1.22,3.05-2.06.67,1.28,1.81,2.48,1.55,3.09-1.51,3.57-2.81,7.45-5.2,10.38-3,3.62-6.84,6.53-10.48,9.56A39,39,0,0,0,944,291.37c7.12-.18,7.29,0,9.26-2.29,3.64-4.16,7-8.58,10.61-12.75,10.14-11.66,12.29-27.13,19.32-40.28,2.06-3.85.52-7.59-2.86-10.57-4.13-3.66-8.39-7.27-11.94-11.46s-6-8.81-12.13-10.39c-3-.78-5.33-4.47-7.86-6.95-1.59-1.57-3-3.33-4.76-5.31-3.44,2.58-6.11,4.95-9.11,6.74-7.1,4.26-14,9.07-21.66,12.09a73.55,73.55,0,0,0-16.23,9.45c-6.18,4.49-9.65,10.24-9.54,18.06,0,2.16-.7,4.34-1.08,6.51-3.8-9.66-3.64-18.51,4.56-25.65,3.77-3.28,7.57-6.54,10.54-9.1-2-5.84-4-10.53-5.13-15.42-1.43-5.9,4.4-9.66,5.95-15.61a47,47,0,0,0-5.27,0c-8.64,1.06-17.2,2.41-25.47,5.35a55.83,55.83,0,0,1-31.54,1.87c-7-1.59-14.05-1.29-21-.59.47,3.92,1.32,7.3,1.15,10.62-.16,3.09-1.34,6.15-2.2,9.19-.91,3.23-3.34,6-3.59,9.34,5.31,2.71,10.08,4.69,14.38,7.42,7.84,5,10.16,10.28,9.39,19.63-3.27,0-3.58-2.49-4.08-4.78-1.27-5.89-5.07-9.62-10.17-12.4a57,57,0,0,0-16.84-6.07c8.08,11.24,8.19,12.79,2.09,23-11.11.92-19-2.48-21.67-10.08-2.58-7.21,0-13,7.69-17.65-7.9-2.78-13.23-8.3-20.36-10.1-2.29,3.1-4,5.73-6,8.13-2.48,3-6.12,3-9.58,3.88a11.78,11.78,0,0,0-6.43,4.72,48.9,48.9,0,0,0-5.52,11.75c-1.91,6-3.29,12.15-7.36,17.31-2,2.58-2.2,5.8-.88,9C743.42,269.8,750.6,279.3,762.93,284Zm-56,598.46c-1.53,2.5-2.33,3.41-2.7,4.47-17,47.43-30.51,95.64-32.35,146.42-1,27.89,1.93,55.28,11,81.78,15.77,46.16,47,76.87,93.23,92.39,21.2,7.11,43.1,10.15,65.32,10.37,35.83.36,70.89-5.49,105.31-15.13,69.48-19.47,133.87-50,194-89.71,4.61-3,9.39-5.86,14.23-8.54,21.16-11.74,43.48-20.79,66.39-28.43,64.61-21.57,131.33-31.58,199.07-35.19,27.21-1.45,54.48-2.12,81.81-1.07,32.83,1.26,65.52,3.44,98.13,7.37A896.39,896.39,0,0,1,1716.76,1069c43.37,11.17,85.56,25.62,125.64,45.79,29.1,14.64,56.48,31.9,80.26,54.38,15.94,15.09,29.21,32.19,38,52.47,9.47,21.75,11.68,44.22,5.93,67.24-4.2,16.8-12.88,31.37-24,44.5-16.33,19.26-36.37,34-58.06,46.49-29.26,16.92-60.6,28.94-92.88,38.58a711.14,711.14,0,0,1-117.1,24.27c-29.06,3.57-58.17,6.48-87.46,6.69-24.13.17-48.26-.09-72.39-.07-1.6,0-3.93-1.2-4.81,1.56a16,16,0,0,0,10.32,5.3c5.46.84,10.85,2.12,16.25,3.33,39,8.77,78.5,14.89,118.41,17.09,43.47,2.4,86.94,1.94,130.28-3.7,42.9-5.58,84.81-15,125.48-29.73,43.43-15.72,84-36.8,120.14-65.8,27.08-21.72,50.28-46.91,67.86-77,15.77-27,25.68-56,28.74-87.16,3.87-39.37-2.55-77.18-18.09-113.54-15.28-35.75-37.59-66.7-64.23-94.71-38.58-40.57-83.71-72.32-133.32-97.77-102.15-52.4-211-77.34-325.54-78.37-17-.15-34,.46-51,1.24-12.62.58-25.3,1.39-37.8,3.19-22.68,3.27-45.25,7.3-67.84,11.13a137.18,137.18,0,0,0-40.11,13.82c-86.26,44.77-176,80.73-269.86,106-52,14-104.91,23.42-158.79,26.4a453,453,0,0,1-64-1.08c-27.72-2.41-54.78-7.54-81-16.93-44.71-16-80.71-42.93-105-84.34C709.81,886.58,708.64,885,706.88,882.44Zm-11.37-121a237.45,237.45,0,0,0,3.91,65.3c7.45,37.41,23.46,70.31,51.64,96.69,15.45,14.47,33.07,25.62,52.32,34.31,30.66,13.85,63.12,20.52,96.38,23.07a501.87,501.87,0,0,0,100.66-2.63,885.57,885.57,0,0,0,121.93-24.47c65.38-17.73,128.7-41.19,190.54-68.62,39-17.3,77.68-35.37,116.15-53.85a485.8,485.8,0,0,0,90.34-56.52c27.48-21.63,52.24-45.94,73-74.17a273.08,273.08,0,0,0,38-70.79c9.77-27.63,13.69-56,10.32-85.17-3.5-30.3-15.74-56.92-34.92-80.46-18.78-23-42-40.57-68.15-54.37-.76-.4-1.83-.2-3.71-.37,1.44,2.19,2.28,3.5,3.15,4.78a61.28,61.28,0,0,1,10.27,28.69c1.39,13.22-.54,26-4.06,38.67a197.48,197.48,0,0,1-19.55,45.66c-16.28,28.25-36.34,53.64-58.94,77.06-10.13,10.51-20.63,20.56-29.47,32.37-11.92,15.94-27.56,28.25-43.57,39.94A490.3,490.3,0,0,1,1313.26,723c-83.46,39.76-170.56,66.82-263.1,74.84a348.85,348.85,0,0,1-48.59.82c-13.81-.74-27.55-2.53-40.9-6.47-9.52-2.81-18.78-6.21-26.95-12-16.92-12-21.43-29.12-12.7-47.93,1.5-3.22,3.46-6.28,4.54-9.63,9.72-30.14,17.42-60.78,21.9-92.16,4.52-31.67,8.71-63.39,13.29-95.06a417.61,417.61,0,0,0,4.62-57.87c.19-39.69-4.91-78.83-13.6-117.52-.58-2.6-1.91-5-2.79-7.29-5.13-1.57-9.62-3.05-14.17-4.33-4.31-1.2-8.06-4.36-12.77-4.48a10.39,10.39,0,0,0-.3,1.87c1.84,15.33-2.69,19.39-17.81,16-.77-.17-1.5-.52-2.27-.7-8.18-1.9-15.6-5.55-22.76-9.83-4-2.43-8.13-4.78-12.3-7.23a35.11,35.11,0,0,0-4.44,2.25c-3,2.09-6,2.16-8.84.12-6.75-4.94-14.69-5.23-22.73-6.55l-17.48,11.63c0,11.68.41,22.76-.09,33.8-.75,16.58-1.46,33.2-3.39,49.66-3.61,30.8-12.48,60.29-24.31,88.91-2.87,6.93-5.54,14-8.5,20.84-5.47,12.7-10.27,25.77-16.8,37.91-13.69,25.44-26.12,51.42-37.54,77.94a38.06,38.06,0,0,0-3.57,14.63c3.91,2.7,7.5,5.14,11,7.65,10.73,7.61,20.26,16.48,27.53,27.51a38.2,38.2,0,0,1,5.16,10.56c2,7.21-1.74,12.53-9.21,13.59a65,65,0,0,1-11.84.45c-13.57-.62-24.62,4.75-34,14C703.34,753,699.35,757.39,695.51,761.4Zm244,454.13c3.3,1.76,4.92,2.8,6.68,3.53,18.61,7.74,37.12,15.74,55.89,23.07,29.47,11.49,59.68,20.82,90.05,29.64s61.12,15.87,92,22.55c42.13,9.12,84.68,15.91,127.46,21.12,37.69,4.59,75.54,7.75,113.48,9.11,53.78,1.93,107.53,1.62,161.2-3.45,33.5-3.17,66.75-7.7,99.62-14.84,30.57-6.65,60.56-15.22,89.17-28.09,18.1-8.14,35.39-17.62,50.74-30.36a114,114,0,0,0,23.77-26.3c7.56-11.88,12.37-24.66,12.72-39,.43-18-5.34-34.13-14.19-49.49-2.89-5-6.54-8.73-11.87-11-12.71-5.47-25.18-11.51-38-16.64-65.79-26.25-134.41-41-204.48-49.68-31.82-3.94-63.83-5.46-95.82-6.75-30.85-1.25-61.71.35-92.48,2.49A796.16,796.16,0,0,0,1303.23,1065c-38.45,7.74-76.13,18-112.33,33.31-19,8-37.45,17-55,27.86-9,5.63-17.91,11.58-27.16,16.86-51.66,29.53-105.48,54.1-163,70C944.26,1213.43,942.85,1214.18,939.53,1215.53ZM618.44,1268.8c-4.14,20.43-5,40.92-3.78,61.49.44,7.1,1,14.2,1.08,21.31.27,27.8,4.23,55.15,10.15,82.22,7,31.81,17.25,62.52,33.8,90.74,13.83,23.58,30.3,45.35,48.28,65.94a192.84,192.84,0,0,0,34.11,31.07c8.78,6.18,17.69,12,28.15,14.88,20.19,5.56,40.39,11.43,61.52,11.72,19.36.26,38.74-.24,58.11-.67,3.4-.08,6.77-1.45,9.78-2.13,1.06-3.56,1.75-6.23,2.66-8.83,3.15-8.94,5.72-18.16,9.71-26.71,8.61-18.47,21.7-32.2,43-35a247.19,247.19,0,0,1,31.92-2.25,343.12,343.12,0,0,1,36.68,2c18.85,2,37.72,4.27,56.36,7.63a34,34,0,0,0,20.54-2.08c28.38-12.07,57.42-22.38,86.78-31.78,16.93-5.41,33.9-10.71,50.93-15.78a252.93,252.93,0,0,1,55.93-9.92c22.5-1.45,45-1.42,67.48,1.68,25.24,3.47,49.64,9.69,72.93,20,21.13,9.34,40.81,21.06,56.65,38.21,25.69,27.84,35.44,59.26,20.84,95.93-.33.82.18,2,.41,4,24-11.09,45-24.7,60.39-45.64,20.11-27.29,23.88-57.06,12.38-88.74-8.42-23.22-23.31-42-41.31-58.55-23.58-21.61-50.79-37.47-79.91-50.37-52.75-23.36-108.18-34.68-165.58-37.13a424.72,424.72,0,0,0-65.16,2.07c-19.29,2.15-38.53,4.91-57,10.79-21.46,6.84-43,13.38-64.75,19.11-24.43,6.41-48.74,13.29-73.13,19.85-19.45,5.23-39.15,9.65-58.39,15.56-24.24,7.46-48.94,12.7-73.82,17.22a188.43,188.43,0,0,1-24.72,2.85c-27.72,1.3-55.38.35-82.75-4.64-19.9-3.62-39.37-8.74-57.09-19a243.45,243.45,0,0,1-46.38-34.78c-13.28-12.63-24.46-27-34.58-42.08-19.53-29.19-34.94-60.09-38.36-95.81C621.58,1285,619.78,1276.92,618.44,1268.8Zm401-477.33c22.22.28,44.24-2.17,66.11-5.55a759.61,759.61,0,0,0,137.62-35c47.44-16.78,93.3-37,136.31-63.29,19.94-12.2,39.2-25.4,56-41.71a202.82,202.82,0,0,0,20.84-24.19,60.91,60.91,0,0,0,8.43-16.85c5.19-15.3.92-28.32-12.23-37.47a57.49,57.49,0,0,0-15.78-7.94,188.9,188.9,0,0,0-28.8-6.62c-25.21-3.46-50.54-2.22-75.71.35a616.64,616.64,0,0,0-88.56,16c-58.45,14.77-114.8,35.28-168.56,62.55-28.56,14.48-56.11,30.62-81.28,50.75a256.12,256.12,0,0,0-37.46,36.06,51.13,51.13,0,0,0-10.93,23.37c-2.74,14.16-1.19,23.75,13.63,33.48,8.72,5.72,18.46,9,28.53,11.24C984.63,790.52,1002,791.76,1019.4,791.47ZM465.64,848.86c-2.61,3.28-5.11,6.25-7.43,9.37-19,25.53-33.32,53.7-46.76,82.35a174.56,174.56,0,0,0-12.39,38.28c-2.81,13.42-1.05,26.06,7.18,37.23a184,184,0,0,0,16.53,20.14q50.33,51.13,101.13,101.82c9.79,9.77,20,19.14,32,26.27,11.75,7,15.44,6.31,24-4.55,10.56-13.47,19.87-27.65,22.84-45,.79-4.65,2.91-8.21,7.55-9.72,5.73-1.87,9.07-6.23,11.65-11.21a107.35,107.35,0,0,0,5.68-13c3.08-8.54,5.76-17.23,8.77-25.81,7.18-20.42,10.66-41.24,7.72-62.93-1.67-12.27-1.07-24.35,3.37-36.21,1.61-4.31,1.92-9.27,2-13.95.09-7.51-3.94-13.47-8.53-19.07-14.6-17.8-33.42-30-53.48-40.63-25.3-13.34-52.61-21.52-79.6-30.46a37.24,37.24,0,0,0-6.31-1.24l-18.18,7.18c.42,1.87.58,4.26,1.49,6.31,2.41,5.41,5,10.77,7.79,16,11.11,20.5,22.4,40.87,33,61.66,14.54,28.55,22.53,59,29,89.95,3.9,18.65,4.12,37.67,4.72,56.62.3,9.07-.07,18.17-.38,27.25-.13,3.88-.24,7.94-3.53,11-3-2.06-3.33-5.32-3.64-8.34-.87-8.64-1.64-17.3-2.14-26-.82-14.2-1-28.44-2.16-42.6-2-24.57-9.16-48.08-15.94-71.62a112.16,112.16,0,0,0-6.81-17.69c-10-20.62-19.26-41.58-30.7-61.51-8.06-14-15.68-28.4-18.91-44.55-.14-.7-.86-1.28-1.53-2.22Zm202.52,255.51c-4.53,7.54-7.68,12.5-10.57,17.61-14.71,26.07-23.16,54.42-29.87,83.35a87.24,87.24,0,0,0-2.07,18.79,390.53,390.53,0,0,0,5.16,68.45c2.54,15.21,4.81,30.45,11.28,44.65,9,19.81,19,39,31.94,56.66,16.52,22.63,35.87,42,59.33,57.32a149.73,149.73,0,0,0,43,19.44c16.87,4.55,34.06,6.95,51.36,8.56,40.62,3.78,80.43-1.41,119.75-11.45,1.48-.38,3.15-.61,2.72-3.19-6.24-1.88-12.69-3.64-19-5.76-49.74-16.7-90.82-45.61-122.48-87.54-11.76-15.58-20.8-32.65-25.75-51.66a74.86,74.86,0,0,1-.56-36.37c.53-2.26,1-4.51,1.43-6.22a25.88,25.88,0,0,0-1.55-2.7c-16.89-21.5-32.23-44-43.65-69-1.75-3.82-4.8-6.1-8.08-8.37-28.39-19.62-46.77-46.58-57.74-79ZM967.63,547.14c11.51-4.53,21-8.4,30.53-12,53.3-20.08,107.84-36.07,163.28-49,64.8-15.08,130.38-24.66,197-26.7a384.34,384.34,0,0,1,76.75,5,154.93,154.93,0,0,1,42.77,13.63c16.46,8.14,29.43,19.78,36.75,37,.64,1.52.61,4.13,4,3.75,5.19-8.16,9-17.22,12.52-26.41,5.51-14.53,8.72-29.47,8.13-45.17-.59-16-7.11-29-19.42-39a74.8,74.8,0,0,0-31.86-15c-18.61-4-37.51-5.68-56.45-6.52-43.52-1.91-86.95.54-130.23,4.9-44,4.44-87.79,10.95-131,20.74-28.53,6.47-56.94,13.48-83.94,24.91-21.81,9.24-43.49,18.89-64.74,29.34-14.49,7.13-28.14,16-42.21,24-4.89,2.78-7.21,6.61-7.32,12.44-.12,7.09-1.15,14.16-1.9,21.23S968.65,538.3,967.63,547.14Zm-807.8,718.75c1.21-.52,2.08-.65,2.55-1.14,19.6-20.62,39.06-41.37,58.79-61.86a256.74,256.74,0,0,1,21.57-20.28c26.52-21.86,53.32-43.39,80-65.06,7.67-6.23,14.86-13.16,23-18.64,16.58-11.14,30-25.64,43.91-39.62,7.45-7.5,14.17-15.78,17.2-25.12-5.28-9.16-10.12-17.28-14.65-25.57-1.7-3.12-4-5-7.4-5-5.5,0-11.11-.09-16.49.87-21.18,3.76-41.31,10.73-59.81,21.76-13.9,8.29-27.36,17.32-41,26-21.33,13.55-38.72,31.08-53.14,51.76-4.5,6.45-9.89,12.28-15,18.3-.89,1-2.35,1.63-4.56,3.1-.22-2.66-.83-4.27-.36-5.45,2.17-5.49,4.06-11.21,7.09-16.22a181.73,181.73,0,0,1,49.23-53.9q14.89-10.75,30.39-20.66c20.37-13.05,41.55-24.42,65.38-30,11.6-2.71,23.25-4.57,35.22-3.33a56,56,0,0,0,6.61-.05c.77-7.75.77-7.75-1.58-13a31.68,31.68,0,0,0-3.36-.77q-4.12-.48-8.26-.78c-24.4-1.75-48,2.87-71.31,9.27-22.26,6.12-42.66,16.43-62.86,27.31-11.2,6-21.84,12.85-31.08,21.55-12.36,11.64-24.31,23.72-36.38,35.66-11.19,11.08-18.47,24.89-23.89,39.2-5.71,15.07-9.38,31-13.06,46.72-3.74,16-2.41,32.17-.61,48.34,2.19,19.74,9.76,37.3,20.81,53.55A21.47,21.47,0,0,0,159.83,1265.89Zm948.77,322c4.27,3.15,8.63,3.94,12.69,5.2,13.2,4.07,26.57,7.58,39.71,11.82,11.62,3.76,22.92,8.53,34.54,12.28,37.2,12,74.55,23.21,113.36,29.25,32.85,5.1,65.24,4.85,97.4-3.67a193.73,193.73,0,0,0,39.71-15.27,56,56,0,0,0,23-21.64c4.46-7.61,4.33-15.79,2.79-24.14-1.36-7.39-6.8-11.18-12.51-14.9a185.26,185.26,0,0,0-41.55-19.9c-24.42-8.31-49.52-12.93-75.25-15.08-19.43-1.63-38.7-.93-57.93,1a255,255,0,0,0-39.6,6.93c-20.57,5.44-41,11.64-61.11,18.61-23.11,8-45.82,17.16-68.67,25.9C1113.06,1585.14,1111.19,1586.5,1108.6,1587.94ZM122.06,908.29c5.14-2,7.64-2.9,10.12-3.87,14.34-5.61,28.61-11.44,43-16.8,22.92-8.5,46.85-11.35,71.08-10.81,15,.34,29.91,2.58,44.89,3.46,14.2.84,28.47,1.88,42.64,1.26,16.69-.73,31.5-7,43.14-19.61a119.93,119.93,0,0,0,20.82-30.13c3.24-6.86,7.14-13.18,12.79-18.37,1-.9,1.33-2.5,2.15-4.14-24.57-6.95-49-8.79-73.53-7.32-34.15,2-67.15,9.89-99.06,22.33-10.67,4.16-21.48,8-32.28,11.8-2,.73-4.34.71-6.61,1-.42-4.22,2.24-5.79,4.49-7,7.94-4.38,15.83-9,24.18-12.47,26-10.77,53.07-17.82,81-22.18,28.07-4.39,55.89-3.45,83.77.74,6.93,1,13.77,2.75,20.41,4.1,6.74-12.18,6.06-16.4-3.53-23.84A118.51,118.51,0,0,0,386,761.6a145.38,145.38,0,0,0-58.85-11.91c-9.06,0-18.12,1-27.18,1.59a129.62,129.62,0,0,0-50.17,12.94c-13.79,6.84-27.14,14.56-40.66,21.95-15.59,8.51-27.75,21-38.34,34.85-14.67,19.21-26.63,40.18-37.28,61.86C129.85,890.3,126.69,898,122.06,908.29ZM755.84,724.44c-2.73-9.79-8.44-15.84-14.18-21.74-10.61-10.87-23.18-19.16-36.82-25.61C676.6,663.74,647,658.64,616,664.59c-20.34,3.91-37.7,14-53.14,27.41a213.58,213.58,0,0,0-37.47,42.63c-1.75,2.61-3.18,5.45-4.78,8.17a15.12,15.12,0,0,0-1.14,13.62c2,5.56,3.46,11.32,5.39,16.92.53,1.55.26,4.14,3.65,4.08,3.49-4.93,7.14-10,10.74-15.19,6.38-9.12,13.46-17.67,22.3-24.44,10.34-7.92,20.78-15.81,31.75-22.8,25-15.93,52.74-20.49,81.83-18.11,5,.41,9.94,2.31,14.85,3.73,1.48.43,2.7,1.6,1.38,3.51-11,.41-22,.91-33,1.22-25.63.71-48.93,8.31-69.73,23.35-6.41,4.63-12.8,9.29-19.06,14.11-7.87,6.06-14.42,13.4-20.72,21.08-15,18.29-24.06,39.79-33.85,60.92-.28.6.1,1.49.17,2.25,13.38,9.88,22.6,10.25,35.55,1.38,1.62-1.11,3.18-2.35,4.7-3.61a62.89,62.89,0,0,1,18.48-10.45A114.49,114.49,0,0,0,612,790.88,109.66,109.66,0,0,1,644.87,770a287.89,287.89,0,0,1,27.84-10c11.23-3.34,21-8.32,29.17-17.13,10.1-10.93,23-16.36,38.16-16.1a60.34,60.34,0,0,0,8.29,0C750.55,726.45,752.69,725.44,755.84,724.44Zm-61-223.13c.71-2.25,1.63-3.73,1.54-5.14-.39-5.88-.39-11.91-1.78-17.58-6.12-25.08-16.16-48.68-27.8-71.66-18.58-36.66-42.12-69.66-72.33-97.64-26-24-55.72-41.44-90.35-49.93-12-2.94-24-4.7-36.4-3.49-4,.39-7.75.88-11.42,4.3,1.1,2,1.73,4.48,3.33,5.67,2.81,2.1,6.21,3.4,9.36,5.05,32.25,16.91,64.22,34.28,91.66,58.66q19.95,17.71,39.47,35.91c14,13,25.18,28.35,35.17,44.55a95.07,95.07,0,0,1,5.72,11.69c.56,1.28.38,2.88.85,7.09a295.57,295.57,0,0,0-38.4-48.15c-13.86-14.07-28.43-27.47-43.1-40.7a321,321,0,0,0-48.27-36.33c-34.2-20.76-42.51-25.27-51.81-27.43a4.33,4.33,0,0,0-.65,1c-3.68,12.38-4.59,12.76-16.26,7.89-2.72-1.14-5.22-3.83-8.62-2.2-.3.41-.75.75-.74,1.05.89,16.67,7.73,30.42,20.51,41.13A92.92,92.92,0,0,0,481,340.74c6.63,2.56,13.28,5.09,20,7.43,39.12,13.6,73.16,35.31,102.85,64.05,26.7,25.85,53.38,51.71,77.78,79.81C684.92,495.88,688.25,499.91,694.89,501.31Zm813,1134.16c-5.61,5.89-9.64,10.74-14.3,14.88-9,8-19.66,13.17-30.85,17.34-23.52,8.77-47.91,12.75-72.88,14.92-31.41,2.72-62.38-.11-93.36-4.33-28.66-3.91-56.32-12.26-84.14-19.78-14.47-3.91-28.64-9-42.76-14.07-27.16-9.77-54.59-18.59-82.65-25.44-37.66-9.19-75.46-17.4-114.4-19.08-11.56-.5-22.88.8-34.24,2.12a41,41,0,0,0-9.11,2.56,13.25,13.25,0,0,0-7.84,6.84c-2.14,4.66-4.33,9.31-6.31,14-.68,1.65-2,3.55.46,5.72,15.51-7.93,32.49-7.68,49.54-7.14,12.73.41,25.17,2.69,37.49,5.56a456.44,456.44,0,0,1,97.93,35.3c4.26,2.09,8.38,4.63,12.84,6.12,32.29,10.76,65.2,19.35,98.87,24.24,28.14,4.1,56.49,6.73,84.79,9.71,16.51,1.73,33.07,3,49.63,4.21a215.71,215.71,0,0,0,23.69,1c12.24-.42,24.45-1.64,36.67-2.41a339.51,339.51,0,0,0,71.08-12.62c16.13-4.55,18.54-6.75,25-22.21a68.08,68.08,0,0,0,4.09-12.36C1508.7,1652.87,1510.11,1645.09,1507.85,1635.47ZM170,274.23c6.31-7.44,10.72-15.37,16.06-22.61,10.12-13.7,20.74-27.13,34.76-37,26.6-18.72,56-30.65,88.63-34a78.24,78.24,0,0,1,45.85,8.71c3.83,2,7.43,4.5,11.22,6.63,1.16.65,2.49,2.27,4.24,0-.85-4.14-3.32-7.78-6-11C355.7,174,346.59,163,337,152.55a35.92,35.92,0,0,0-11.65-7.94c-17.43-7.87-35.63-10.18-54.37-5.73-30.65,7.28-56,23.15-75.84,47.65-6.21,7.68-12,15.67-18.2,23.4-1.6,2-3.81,3.55-7.09,6.53,0-3.63-.54-5.66.1-7.18a58.83,58.83,0,0,1,5.57-10.38c3.59-5.2,7.57-10.13,11.44-15.13C206.5,158.52,232,142.27,262.4,133c20.12-6.15,39.82-4.62,59.32,2.29,8.28,2.94,15.84,7.3,21.63,14.09,9.72,11.42,20.14,22.3,27.74,35.4.9,1.55,1.55,3.81,4.45,2.84a97.55,97.55,0,0,0-.26-29.45c-3.52-21.22-13.92-37.6-35-45.58-3.69-1.4-7.37-2.85-11.13-4-12.53-4-25.42-5.08-38.51-5.88-20.44-1.26-38.92,3.85-56.77,13.34-21.82,11.6-39.13,28-53,48.1-9,13-17.05,26.62-27.84,38.31a31.53,31.53,0,0,0-3.89,5.94,30.6,30.6,0,0,0-2.83,25.21C151,248.3,156.81,262.6,170,274.23Zm18.85,231.1a223.82,223.82,0,0,0-53.54-1.52A330,330,0,0,0,84,512.33c-16.84,4.23-33.52,9.08-50.25,13.74-3.36.94-7,1.67-8.7,6.09A26.75,26.75,0,0,0,27.39,537c13.66,18.51,32.22,28.9,54.88,31.38,10.15,1.1,20.51.24,30.78.38,6.71.09,13.52-.3,20.1.7,12.87,2,25.73,4.22,38.37,7.29,17.25,4.2,34.21,9.6,51.45,13.89,23.43,5.83,47.19,9.91,71.47,9.1,7-.23,14.09-1.56,21.05-2.86,9-1.67,15.61-7.35,21.27-14.14,2.26-2.71,4.23-5.83,2.58-10.29-1.88-.62-4-1.46-6.28-2.07-17.53-4.73-34.94-10-52.65-13.95-16.16-3.59-32.63-5.88-49-8.42-5-.78-10.13-1.11-15.15,1.09-7.63,3.35-14,1.21-18.47-5.71-2.45-3.77-5.82-5.16-10-5q-17.16.54-34.3,1.21c-8.29.34-16.56.88-24.85,1.2a17.16,17.16,0,0,1-4.09-.82c0-2.68,1.82-3,3.21-3.41,15-4,30.15-6,45.69-5,5.76.38,11.57,1.93,17.35.27C190.15,523.11,189.57,514.88,188.89,505.33Zm952.75,911.07c-7.86-1.65-12.86-2.63-17.84-3.75A784.22,784.22,0,0,1,915.15,1333c-30.86-17.09-60.33-36.32-87-59.52-16.45-14.3-32.16-29.36-43-48.69a11.86,11.86,0,0,0-7.19-5.63c-7.87-2.61-15.57-5.69-23.36-8.54-1.73-.64-3.64-1.77-5.31,1.27,2,3.42,4.1,7.2,6.43,10.82Q829.53,1337,951.24,1398A411.3,411.3,0,0,0,1054,1433.5a55.7,55.7,0,0,0,26.87-.73c17.48-4.9,35.2-9,52.8-13.47C1135.6,1418.82,1137.4,1418,1141.64,1416.4Zm-576.53-1218c-1.9-1.13-3-1.47-3.63-2.2-3.69-4.12-7.09-8.51-10.94-12.46-15.21-15.66-31.51-29.69-51.69-39.07-22.37-10.39-44.91-11.26-68.07-4.24-21.06,6.39-35,20.65-43.58,40.57-.55,1.27-.46,2.81-.85,5.46a64,64,0,0,0,6.28-2.52c12.07-6.68,25.15-8.95,38.76-9.36,18.91-.55,36.87,3.78,54.41,10.22,22.43,8.23,42.76,20.35,62.11,34.21a125,125,0,0,0,11.93,7.71c1.86,1,4.28,1.08,6.95,1.69,2.84-13.21,9.22-24.13,15.38-35.14.58-1,1.15-2.07,1.69-3.13,4.19-8.2,4.53-16.53,1.33-25.22A58.7,58.7,0,0,0,567.67,140a136.64,136.64,0,0,0-48.53-26.6A253.47,253.47,0,0,0,470.55,103a133.43,133.43,0,0,0-47,3.22c-12.46,3.15-22.15,10.09-28.16,21.75a76,76,0,0,1-4.76,7.12,40.42,40.42,0,0,1-4.15-3.1c-.81-.81-1.09-2.22-2-2.89a3.8,3.8,0,0,0-3.09-.72,4,4,0,0,0-2.07,2.6c-1.27,6.64,2.1,24.26,6.55,34.41,2.35-3,4.4-5.89,6.69-8.54,6.51-7.51,13.43-14.62,22.59-18.87,23.81-11.06,48.3-14.47,73.65-5.66,28.5,9.92,51.47,27.31,69.19,51.68C561,188.09,563.8,192.24,565.11,198.41ZM958,1633.32c-14.12-3.17-31-.42-41.34,6.57-1.31.89-2.49,2-3.79,2.86-3.55,2.41-4.84,5.87-5.51,10-1.43,8.73,1,16.57,5.43,23.74,11.75,19,25.74,35.61,45.41,47.36,31.05,18.52,64.44,28.27,100.38,27.65,22.87-.4,45.71-3.14,68.54-5,6.68-.56,13.31-1.79,19.94-2.83,20.3-3.17,40.55-6.91,61.11-7.85a374.32,374.32,0,0,1,93.14,7.48c28.51,5.89,55.38,15.93,79.64,32.34a15.67,15.67,0,0,0,2.88,1.22,12.05,12.05,0,0,0-4-5.44c-16.77-13.62-35.74-23.13-56.1-30.1-30.21-10.33-61.62-14.3-93.19-15.79s-63.24-.86-94.87-1.07c-24.52-.17-49-.88-73.3-4.51-33.32-5-62.43-19.3-88.84-39.63a68.83,68.83,0,0,1-10.08-10c-6.24-7.32-8.49-15.88-6.93-25.43C957.09,1641,957.49,1637.14,958,1633.32ZM364.83,745.25l8.14,3.32c8,3.3,16.32,6.1,24,10.06,7,3.59,13.46,8.23,19.87,12.81,8.72,6.22,11.4,14.76,8.48,25-.21.76-.56,1.48-.84,2.22-2,5-.53,9.11,3.15,12.88a165.85,165.85,0,0,0,42.77,31.52,36.67,36.67,0,0,0,5.25,1.81c.51-.87.92-1.24.88-1.55-.76-6.65-1.42-13.31-2.4-19.92-2.69-18.06-8.76-35.23-14.08-52.59a103.4,103.4,0,0,0-15.24-30.64A187.72,187.72,0,0,1,433.72,722c-.79-1.41-.41-3.48-.71-6.71,2.8,2,4.51,3,5.85,4.33,10.5,10.39,19.55,22.06,24.75,35.86,9.07,24,17.22,48.38,20,74.15a85.49,85.49,0,0,0,2.22,11.61c.34,1.32,1.62,2.4,3,4.32,2.12-2.71,4.09-4.63,5.33-6.93,7.13-13.21,13.94-26.59,21.15-39.75a25,25,0,0,0,2.4-18.36c-4-17-9.31-33.52-18.58-48.47A43.07,43.07,0,0,0,491,722c-12.64-10.83-27.41-17.47-44-18.8-16.78-1.34-33.19,1.25-48.39,8.95C384.12,719.5,373.66,731,364.83,745.25ZM1044.05,1441c-4.1-1.28-6.69-2.24-9.36-2.9-37.46-9.17-72.77-23.78-106.46-42.39a505.45,505.45,0,0,1-131.3-104.14c-1.95-2.15-3.27-5.47-7.06-5.43-2.35,17.87.31,34.14,8.38,52A164.81,164.81,0,0,0,827,1381.4c25.42,27.93,55.84,48.75,90.68,63.2a206.75,206.75,0,0,0,50,14,40.62,40.62,0,0,0,16.36-1c18.33-4.81,36.7-9.42,55.05-14.16C1040.25,1443.18,1041.21,1442.43,1044.05,1441ZM273.46,927.65c-.71-1.24-1-2.26-1.42-2.37-17.31-4-34.66-8.2-52.64-5.41-11.3,1.76-22.63,3.57-33.78,6.07-19.73,4.4-39.62,7.68-59.81,8.07-13.67.26-24.26,5.53-33.11,15.64a136.88,136.88,0,0,1-14.56,13.81c-5.12,4.34-10.77,8-16,12.3-3.66,3-7.57,6-10.29,9.75-10.66,14.78-20.37,30.15-25.5,47.9a48.16,48.16,0,0,0-.84,5.19,27.8,27.8,0,0,0,3.87-2.46c30.53-29.82,66.72-47.05,109.57-50.39a191.38,191.38,0,0,0,77.88-23c13.52-7.4,27.22-14.46,40.83-21.7,1.53-.81,3.82-1.17,2.61-4.55-9.31.88-18.75,1.53-28.12,2.7-14.5,1.8-29,3.6-43.41,6-21.48,3.62-42.19,10.26-62.79,17.22-9,3-18.17,5.34-27.32,7.79-1.67.44-4,1.16-5.16-2.27,1.58-1.27,3.14-3,5.09-4,6-3,12-6.27,18.32-8.33,16.14-5.26,32.32-10.54,48.77-14.69,31.15-7.88,63-10.71,95.05-12.3C264.88,928.48,269.2,929.29,273.46,927.65Zm1532.27,347.74a10.55,10.55,0,0,0,.83,2.4c19.36,28.94,26,61.27,25.62,95.5-.06,6.14-.82,12.34.06,18.58,15.9-3.35,52.57-22.66,62.6-32.75-3.81-33-3.81-33-14.7-61.7-7.28-19.18-22.41-44.07-32.86-54.07ZM1760.31,1415c-3.51-5.7-1.16-11.79-.62-17.92.42-4.71,1.45-9.38,1.72-14.09,1.56-27.58-3.87-54.1-12.46-80.11-.21-.65-1.09-1.07-2.13-2.05l-51.92,14.92c.21,2.36.37,4.24.54,6.12,1.06,11.37,2.69,22.73,3,34.12a240.13,240.13,0,0,1-6.84,66.84c-.54,2.09-1.87,4.56.68,6.45C1709.76,1428.11,1748.62,1420.11,1760.31,1415Zm94.36-183c34.51,31.19,50.63,70.23,57.24,113.84,1.46-.31,2.39-.24,2.95-.67,12.37-9.52,22.14-21.32,30.37-34.49a8.73,8.73,0,0,0,.87-7.86c-2.88-9-5.1-18.27-8.3-27.18-11.64-32.51-31.82-58.84-59-79.93-2-1.58-4.53-2.57-7.68-4.32C1868.16,1206.43,1863.48,1219.71,1854.67,1232ZM317.82,476.4c-1.44-2.67-1.63-3.63-2.17-3.93-18.32-10.13-37.35-16.64-58.79-12.59-14.07,2.65-27.43,6.51-39.8,14.27-14.39,9-26.45,37-18.07,56.86,5.85,13.88,9.53,13.42,20.53,8.07,8.86-4.31,17.73-8.65,26.83-12.42a160.89,160.89,0,0,0,27.25-14.17c6.9-4.55,14.26-8.41,21.56-12.33,6.6-3.54,13.4-6.72,20.08-10.12,1.58-.8,3.77-1.27,3-4.66-4.45-.51-9.1-1.45-13.76-1.52A168.21,168.21,0,0,0,243,494.28c-5.53,2-11.23,3.69-16.94,5.19-1.62.43-3.55-.28-5.34-.46.17-1.51,0-2.69.38-2.94,4.27-2.73,8.39-5.9,13-7.82C260.5,477.26,288.16,474.32,317.82,476.4Zm1439.25,820.74c7.49,19,13.64,37.22,16.7,56.37,3.14,19.68,1,39.13-2,58.73,12.2-1.25,36.4-9,46.52-14.72-.17-3-.8-6.13-.45-9.16,2.17-19.06-.38-37.8-3.77-56.46-2.68-14.76-6.45-29.27-12.53-43.06-1.39-3.15-2.35-6.8-7-8.22ZM1632,1329c-11.36-.75-39,2.57-47.66,5.39.09,11.83.4,23.57.21,35.3a138.28,138.28,0,0,1-5.21,35c-3.15,11.25-6.44,22.47-9.69,33.79,14.8,1.94,36.94.8,46.08-2.24,6.34-16.91,13.54-33.47,16.16-51.64C1634.58,1366.09,1635.08,1347.82,1632,1329Zm-548.94,62.7c8.53-8.83,17-17.09,24.89-25.89,16.31-18.2,32.65-36.41,46.38-56.73,1.69-2.51,3-5.28,4.87-8.63-8.15-2.06-15.36-4-22.63-5.67-7.54-1.7-14.74-5.55-22.57-4.38-5.88,8.13-11.22,15.93-17,23.39-6,7.78-12.31,15.41-18.85,22.77-6.28,7.07-12.84,13.92-19.64,20.48-7,6.71-14.4,13-21.85,19.61C1047.72,1382.26,1071.32,1389.93,1083.09,1391.66ZM909.29,1319c34.27-17,62.24-40.07,86.58-70-14.26-6-27.31-12.1-40.26-17.57-7.57,6.23-14.43,12.2-21.64,17.71q-10.35,7.92-21.3,15c-7.62,4.94-15.53,9.44-23.35,14.07-7.62,4.5-16,7.65-24.35,13.12A469.33,469.33,0,0,0,909.29,1319Zm96.74-66a13.29,13.29,0,0,0-1.88,1.4c-.72.93-1.39,1.9-2.07,2.86-19.62,27.9-43.1,51.45-74.43,66.2-1.3.61-2.33,1.77-4.22,3.23,13.87,7.66,27,14.68,41.23,20.46,11.05-7.46,22.22-14.21,32.47-22.14,10-7.73,19.22-16.43,28.37-25.14,9.36-8.91,18.83-17.84,25.93-30.08ZM318.72,240.21a12.25,12.25,0,0,0,2.26-1c11.34-8.31,23.89-11.94,38-10.1,2.17.29,4.46-.21,6.55-.34,1-5.37,1.52-10.1,2.72-14.66,1.44-5.52-.85-9-5.11-12-16.14-11.49-33.93-16.93-53.68-14a239.09,239.09,0,0,0-30.06,6.5c-20.35,5.81-38.62,16-55.76,28.27-1.7,1.22-2.85,3.19-5.55,6.3C253.75,222.44,285.87,230,318.72,240.21Zm18.81,248.92a54.14,54.14,0,0,0-3.53,6.13c-4.1,9.9-2.27,15.25,7.18,20.66,3.76,2.15,7.8,3.82,11.73,5.69,29.39,13.94,57.52,29.89,82.36,51.15a69.83,69.83,0,0,0,7.62,5.65c4.16,2.69,7.37,1.57,9.47-3,2.26-4.95,1.82-10,.79-15.12-5.9-29-21.64-50.5-48.49-63.45a191.8,191.8,0,0,0-44.86-15,44,44,0,0,0-6.62-.36c1.45,2.49,3.43,3.58,5.34,4.78,11,7,22.25,13.61,33,21a91.91,91.91,0,0,1,23.1,23.64c1.5,2.16,3.61,4.4,1.27,8-4-3.33-7.87-6.52-11.69-9.8C390,517,375.26,505.75,358.79,496.91,352.2,493.37,345.53,490,337.53,489.13Zm830.81,813.6c-19,34.78-44.39,64.22-72.37,92.82,7.84,3.56,15.12,4.84,22.3,6.35,7.63,1.6,15,4.73,22.74,3.87,22.5-25.26,62.86-80.17,69.06-94.17C1196.32,1308.07,1182.58,1305.24,1168.34,1302.73Zm-150.73,68c26.68-15.85,46.64-37.76,67-59.22,7.23-7.64,14.9-15,21.22-24.86-14.34-4.44-27.75-8.65-41.21-12.72a12.78,12.78,0,0,0-4-.06c-7.8,10-14.82,20-22.89,29.11-15.75,17.72-32.7,34.24-52.42,47.67-1.4.95-2.3,2.61-4.09,4.71Zm-72.24-143.68c-8-5.89-15.25-11.09-25.24-7.79a44.61,44.61,0,0,1-4.62,1c-22.07,4.82-44.46,7-67,7.93-15.43.61-30.75-1.23-46-3.5-2.85-.43-5.85-1.51-9.61.58,3.15,4.09,5.61,7.59,8.38,10.84,11,13,23.66,24.3,36.48,35.49,6.37,5.56,12.31,7.76,20.2,4,4.59-2.2,9.72-3.27,14.24-5.57a654.71,654.71,0,0,0,61.55-35.47C937.39,1232.2,941,1229.89,945.37,1227.07Zm271.83,169.87c4-5.36,7-10,10.7-14.1,14.92-16.51,26.56-35.29,37.9-54.28,1.14-1.91,1.63-4.2,2.62-6.87-15.32-3.15-30.05-5.44-45-7.75-21.09,33.65-42.93,65.9-72,93.51,6.29,3.19,11.55,3.87,17.65,2,12-3.76,24.28-6.88,36.47-10.11C1209.76,1398.2,1214,1397.57,1217.2,1396.94ZM1672.73,1432c11.58-24,13.37-46.93,14.37-80.44.55-18.4-.58-25.4-3.87-33.08-13.64,2.12-27.47,4.31-41.63,7.89,1.67,9.63,3.82,18.41,4.57,27.3.79,9.39.3,18.9.29,28.35,0,9.16-2,18-4.46,26.76-2.45,8.94-5.24,17.79-8.17,27.68C1647.39,1435.28,1659.89,1434.7,1672.73,1432ZM545.42,1443.23c7.74-.85,9.28-2.51,8.27-9.22-1.89-12.47-4-24.92-5.86-37.39-3-19.9-6.12-39.79-8.92-59.72-4-28.15-8.84-56.12-15-83.87-3.77-17-7.54-34-9.85-51.15-3.28-24.33-9.09-48.05-14.81-71.83-.54-2.25-1.23-4.78-2.7-6.41a149.21,149.21,0,0,0-14.42-14.21c-.39,1.48-.86,2.26-.72,2.9,3.35,15,7.06,29.94,10.11,45q7.27,36,13.82,72.07c4.25,23.3,7.37,46.82,12.31,70q14.94,70.08,26.41,140.77A12.79,12.79,0,0,0,545.42,1443.23Zm985-105.72c-1.77,8.21,0,17-1.44,25.47s-2.22,17.26-4,25.75-4.5,16.76-6.81,25.12-7.89,15.26-9.12,24c11.4,2.07,31.7,2.19,41.51.36,16.8-41.92,25.15-84,20.46-103C1561.63,1334.44,1539,1335.69,1530.44,1337.51ZM306,928.36c2,.28,3.79.55,5.61.79,16.15,2.15,31.92,5.73,46.43,13.45,9.42,5,18.59,10.46,27.9,15.67,2.32,1.3,4.73,2.45,7.45,3.85a62.86,62.86,0,0,0,2.7-5.94c5.85-17.74,14.22-34.28,23.69-50.31,2.81-4.76,5.31-9.72,8.26-14.4a10.53,10.53,0,0,0,.66-11.17c-.86-1.72-1.56-3.52-2.23-5-5.61-1.49-9.79,1.19-14,3.14-17.85,8.28-32.85,20.33-45.72,35.13a64.91,64.91,0,0,1-9.17,9.21c-8.15,6.23-15.11,3.89-18.09-5.83-.92-3-1.32-6.17-2-9.26-.79-3.83-1.58-7.66-2.39-11.61C323.53,901.13,311.76,914.17,306,928.36Zm1145,494.17c11.85,5.23,22.2,9.9,32.67,14.29,1.64.69,3.81.1,5.31.1.73-.64,1.12-.85,1.3-1.18,1.35-2.38,2.58-4.84,4-7.19,14.77-24.88,22-52.12,25.07-80.6.37-3.32,1.62-7-1.33-9.94-19.44-1.48-34.12-.94-42.45,1.66C1474.58,1368.74,1467.61,1396.31,1451,1422.53ZM419.29,460.3c14,.76,27.75,1.29,41.42,3.56,11.72,1.95,23.31,4.44,34,9.82,4.52,2.27,8.61,5.48,12.69,8.52,1.67,1.24,2.27,3.18.08,5-5-2.13-10.13-4.24-15.19-6.46-15-6.57-30.87-9.82-47-11.05C422.06,468,399,470,375.14,472.5c1.54,1.21,2.3,2.24,3.28,2.52a179.27,179.27,0,0,1,39.17,16.56,12.66,12.66,0,0,0,6.68,1.65c12.2-.76,24.43-1.41,36.55-2.9,14-1.71,27.63-1.52,40.8,3.79,11.33,4.57,22.56,9.4,33.73,14.36,5.76,2.57,11.28,5.68,16.92,8.51,1.76.88,3.58,1.82,5.61-1-1.56-4-2.76-8.63-5.06-12.66-15.6-27.41-38.43-43.63-70.81-43.82C461.1,459.35,440.19,460,419.29,460.3Zm1440.63,676.48c6.38,15,11,29.57,11.65,44.9,6,3.5,11.63,6.35,16.79,9.9,27.59,19,46.48,44.81,58.57,75.78,2.15,5.5,3.55,11.3,5.37,16.94.44,1.38.69,3.23,3.17,2.48a20.18,20.18,0,0,0,1.31-3.1,89.52,89.52,0,0,0-3.64-55.83,125.54,125.54,0,0,0-18.33-31.73c-19.56-25-44.32-43.78-71.73-59.32C1862.78,1136.63,1862.3,1136.78,1859.92,1136.78ZM1034,533.81c-11.89,2.8-23.24,6.89-35.2,11.44A480.25,480.25,0,0,1,997,604.52c-2,19.62-8.87,38.11-12.7,57.65,1.58-.37,2.46-.36,3.08-.75q20.48-12.95,40.8-25.9C1031.91,621.66,1036.2,548.58,1034,533.81ZM909.25,205.62c5-2.41,8.71-3.84,12-5.88a99.37,99.37,0,0,0,12.59-8.82,222.67,222.67,0,0,0,37.79-40.63,87.22,87.22,0,0,0,11.79-23.1c10.4-31.38,6-61.46-8-90.66-.36-.75-1.77-1-3.69-2,0,10.67.32,20.49-.06,30.29-1.07,27.67-7.15,53.83-23.54,76.92A142.31,142.31,0,0,1,926,166.26c-7.1,6.26-14.32,12.39-21.59,18.45-5.1,4.27-4.38,10.12-2,13.86C903.94,201.1,906.58,203,909.25,205.62ZM721.78,53.45c-4.37,1.43-4.71,5.39-5.55,8.53a93.8,93.8,0,0,0-2.06,41.16c4.73,26.26,15.78,49.58,35,68.62,3.65,3.62,7.3,7.24,10.91,10.9,11.23,11.39,24.34,20.1,38.69,27a76.26,76.26,0,0,0,7.73,2.76c5.19-5.68,8.72-11.46,8-18.95C757.94,163.54,727.91,116.56,721.78,53.45Zm358.31,465.73c-13.61,4-25.34,6.83-37,11.75,2.67,7.1,3,14.14,2.64,21.16-1.19,23.64-2.07,47.32-6.65,70.65a31.42,31.42,0,0,0,0,5.83c8.59-2.52,31.45-13.7,39.76-19.51A879.32,879.32,0,0,0,1080.09,519.18Zm210.36-44.34c-.15,9.2-.08,17.42-.49,25.62-.38,7.87-1,15.74-2,23.56-1,8-2.4,16-3.75,24.88l43.7-5.07c.67-3.68,1.63-7.08,1.85-10.52.86-13.77,1.45-27.55,2.22-41.32.26-4.71.77-9.41,1.17-14.12.15-1.8.28-3.6.45-5.88C1318.88,470.46,1305.38,473.2,1290.45,474.84Zm-304.32,74c-7.79,3.51-14.24,3.72-20.25,8.21-5.84,46.5-15,92.92-24,139.35-.11.6.47,1.32.73,2a6.15,6.15,0,0,0,2.16-.77c7.59-6.91,15.07-13.95,22.7-20.81,2.54-2.28,3.5-5,4-8.25,1.25-9,2.47-18,4.35-26.88a467.42,467.42,0,0,0,9.12-66.83C985.36,567,985.63,559.18,986.13,548.86Zm239.23,11.44c.47-4.55.88-8.81,1.34-13.07,2.24-20.67-1.27-41.56,2.9-62.16-10.33-.46-32.93,3.9-42.75,8.13.79,8.49,2,17,2.25,25.57s-.73,17.29-.82,26-3.48,16.81-2.57,26.2c10.53-2.69,20.4-5.18,30.25-7.76C1219,562.38,1221.89,561.36,1225.36,560.3Zm104.43,769.49c-6.2,10.48-12.35,20.5-18.14,30.74-5.91,10.46-14.54,19.19-20.17,30.26,17,2.52,37.52,3.63,46.31,2.63,13.63-18.72,28.46-36.62,37.14-59.49C1359.3,1331.9,1344.62,1330.44,1329.79,1329.79ZM1342.94,473c2.43,9.78,2.62,20.35,1.33,30.85-1.39,11.31-3.48,22.53-5.3,33.78-.31,1.87-1.37,3.76.82,5.76,5.52,0,11.37.13,17.22,0,6.17-.18,12.41,2.12,19-.3,6.92-23.12,9.56-46.79,11.55-70.39-8.61-3.37-10.93-3.56-35.49-2.83C1349.09,469.88,1345.74,469.18,1342.94,473Zm-105,10.49c3.19,24.51.33,49.12-2.75,73.8,13.86-1,32.26-4.84,39.43-8.24,3.6-20.56,4.83-60.18,2.23-71.63C1267.66,476.94,1248.48,479.85,1237.89,483.45Zm82.29,844.92c-15.45-1.77-29.22-5-43.14-4.9-4.48,8.83-8.32,17-12.71,24.92s-9.36,15.48-14,23.24c-4.54,7.59-11.84,13.29-16,22.13,8.14.88,15.07-.65,22-1.21s14-.8,20-1.12c8-10.7,15.6-20.25,22.51-30.27C1306,1350.88,1314.7,1341.63,1320.18,1328.37Zm29.65,66.63c7.46,4.07,15.11,3.77,22.31,5.13,7.55,1.42,15,4.74,22.62,3.56,20.9-43.41,25-54.79,24-66.61-8.49-1.84-26.4-2.57-36-1.31C1375.14,1356.87,1363.87,1376.61,1349.83,1395Zm132.65-900.32a97.25,97.25,0,0,0-36.11-15.61c-3,13.09-5.14,25.6-8.92,37.57-3.89,12.33-9.42,24.15-14.26,36.26l23.65,16.63c1.24-1.26,2.93-2.41,3.83-4,3.51-6.17,7.14-12.32,10-18.79,6.77-15.15,13.16-30.47,19.65-45.74C1481.1,499.23,1481.59,497.36,1482.48,494.68ZM348.13,917.3c2.14-1,3.38-1.22,4.19-1.95,2-1.85,3.88-3.91,5.8-5.88,6.31-6.5,12.2-13.47,19-19.41,20.41-17.81,43.57-29.54,71.77-30.11l9.52-11.74c-6.48-3.25-6.5-3.35-10.2-2.54-10.08,2.18-19.76,5.39-28.48,11.15a48.66,48.66,0,0,1-8.36,4.25,3.37,3.37,0,0,1-3.14-.78c-.75-1.15-1.49-3.25-.93-4.13,1.63-2.59,3.51-5.38,6-7a57.56,57.56,0,0,1,19.61-8c4.08-.83,8.11-1.9,13.55-3.2l-25-21.53c-8.07,4-12.49,10.43-15.88,17.64a141.46,141.46,0,0,1-15.4,25.19c-10.6,14-23.84,24-41.16,28.13-2.51.6-4.8,2.16-7.64,3.49,1.53,7.51,2.88,14.45,4.4,21.35C346.14,913.68,347.06,915,348.13,917.3Zm1089,500.19c4.25-7.7,8.36-14.44,11.77-21.51,7.91-16.41,14-33.48,16.69-51.58.31-2.07-.32-4.28-.57-6.93-6.33,0-11.84,0-17.34,0-5.79,0-11.73-1.85-18,1.42-2,24.09-9.26,46.85-20.93,68.7C1417.87,1412.21,1427.06,1414.17,1437.14,1417.49Zm-36.93-944.58c-1.52,24.11-6.75,47.69-14.73,71.21,9.44,2.69,18,4.92,26.93,4.86,11.52-22.92,16.5-47.13,21.8-71.16C1426,473.66,1411.12,471.5,1400.21,472.91ZM328.13,491.19c-3.32,1.25-4.85,1.64-6.2,2.36-10.43,5.56-20.85,11.13-31.21,16.82-3.44,1.9-6.73,4.12-10,6.33-1.47,1-3.56,1.83-2.76,4.29.72.54,1.28,1.3,2,1.42,15.35,2.83,29.13,9.53,42.52,17.21,7.25,4.17,14.16,9,19,15.79,5.43,7.75,13.31,8.63,22.83,10.52-1.53-11.36-3.58-21.62-5.25-32.55-3.44-1.7-6.93-3.41-10.41-5.16-3.87-1.94-7.88-3.66-11.56-5.93-10.49-6.47-13.13-12.92-10.59-24.91C326.74,495.91,327.22,494.48,328.13,491.19Zm1160.46,8.67c-6,30.6-16.59,57.35-35.94,79.69.54,6.43,1,12.65,1.56,18.87.12,1.48-.22,3.2,2.49,3.62a44.64,44.64,0,0,0,3.91-3.82c12.24-14.91,24.73-29.63,36.54-44.87,9.54-12.3,9.19-12.58,6.52-28.18C1502,515.56,1498,507.3,1488.59,499.86Zm-1131.37-55c4.28,6,7.17,10.2,10.28,14.24a3.65,3.65,0,0,0,3.07,1.12,3.75,3.75,0,0,0,2.3-2.39,22.62,22.62,0,0,0,.26-5.88c-.55-11-1.32-22.06-1.75-33.09-.54-14.2,0-28.5-1.42-42.6-2.28-23-.83-45.74,2.35-68.49.49-3.52.79-7.07,1.21-10.6.39-3.29.83-6.57,1.5-11.79L364.18,295c-.62,6.61-1.63,13.65-1.88,20.71-.82,23.66-1.32,47.33-2,71q-.51,17.16-1.38,34.32C358.45,429.26,357.74,437.5,357.22,444.87Zm55.6,252c.11-2.43.33-3.26.16-4-5.85-24.17-11.78-48.31-17.59-72.49-4.33-18-8.41-36.15-9.54-54.76-.26-4.33-.37-8.69-1-13-.31-2.24-.93-5.09-2.48-6.38-4.11-3.4-8.65-6.44-14.16-7.39-.38,1.33-.91,2.13-.76,2.79q17.36,77.37,34.84,154.7a20.18,20.18,0,0,0,1.75,3.64ZM234.76,540.15c19.16,3.94,35.8,7,52.25,10.86,16.74,3.91,32.74,10.59,50.76,14.94-2.21-7.33-6.87-11-11.45-14.31-17.19-12.35-36.13-20.83-57.11-24.39a8.91,8.91,0,0,0-4.62,0C255.23,531.19,246,535.29,234.76,540.15Zm581.29-221c-4.08-2.23-7.21-4-10.78-3.37-8.17,1.39-16.29,3.1-23.6,7.31a22.81,22.81,0,0,0-9.45,10.29c-3.05,6.47-1.4,11.65,5.28,14.45A25.79,25.79,0,0,0,787.77,350c20.68-.47,37.13-9.21,49.06-26.18.47-.67.06-1.95.06-3.62-5.21,1.29-9.85,2.12-14.27,3.62-8.19,2.79-16.26,6-24.37,9-2.44.91-4.9,2.58-7.81-.82C797.54,325.37,807.21,323.86,816.05,319.13Zm-427.5-61.52c22,4.36,41.72,12.32,61.41,20.81,2.44-3.7,1.45-7,.2-10.3A56.1,56.1,0,0,0,430.51,242c-14.14-10.3-29.28-11.69-41.39-3.77,1.36.25,2.49.41,3.61.67,6.12,1.43,12.33,2.55,18.32,4.41,6.63,2.06,11.62,6.58,15.34,12.41,1,1.58,2.56,3.6.44,5.16-.85.64-3,.22-4.18-.43-3.44-1.93-6.55-4.43-10-6.3-4.14-2.23-8.46-4.16-12.81-6-3.63-1.51-7.41-2.73-11.94-.41C388.07,250.56,388.28,253.57,388.55,257.61ZM292.14,889.26c-8.71-2.09-8.71-2.09-15.77-.74-3.42,9.31-5.5,18.72-.48,29.12l21,7.9,24.71-34.83a16.2,16.2,0,0,0-3.56-1c-5.48-.08-10.95,0-16.16,0-2.22,3.83-4,7.29-6.19,10.52-.65,1-2.28,1.26-4.69,2.49C291.45,897.5,291.76,893.75,292.14,889.26Zm6.78-434.1c6.22,3.11,12,5.49,17.19,8.71,5.66,3.48,10.85,7.75,16.34,11.75l29.22-12.47c-10.12-12.56-16.17-15.61-30.43-15.37a98.56,98.56,0,0,0-14.19.75C311,449.52,304.58,449.79,298.92,455.16ZM1475.21,1613l11,29.61c8.7-5.06,13.33-10.65,18.34-22.14-3-10.68-9.2-19.71-16.24-28.22-1.87-2.26-3.49-5.21-7.74-5.4C1480.85,1596.25,1480,1605.14,1475.21,1613ZM960.5,198.48C973.27,191.4,984.1,182,992,169.39c6.24-9.9,9.6-20.68,9-32.5-.07-1.37.36-3.25-1.86-3.6-.35.18-.82.26-1,.52A30.36,30.36,0,0,0,996,138c-7.76,20.23-20.63,36.07-39.75,46.64-1.9,1.06-3.48,2.71-5.45,4.28C953.41,193.25,955.3,197.11,960.5,198.48ZM346.11,294.05c1.46-.21,2.84,0,3.64-.58,6.34-4.66,12.95-9.05,18.74-14.33a34.19,34.19,0,0,0,10.9-21.76,14,14,0,0,0-.46-5.77c-1.8-5.48-7.35-6.62-10.95-2.07-3.17,4-5.73,8.47-8.5,12.78-3.81,5.93-7,12.39-13.32,15.95C345.39,283.77,344.76,288.76,346.11,294.05ZM1422.82,1669.43c9.66.68,17.86-2.76,27-5.66-3.16-8.44-.86-17.2-4.43-25.76l-25,9.8c.6,4.06,1.2,7.47,1.58,10.91S1422.54,1665.54,1422.82,1669.43ZM977.71,323.82c-.23-8.85-4.48-14.29-9.68-19.22a29.82,29.82,0,0,0-18-8c-3.83-.39-4.82.12-10,3.81,8.78.33,16.77,2.12,24,6.52,1.41.86,3.88,1.5,2.15,4.47-14.2-4.27-28.49-9.43-42.59,1.33,6.35,3.75,8.38,4.93,13.25,3.45,9.44-2.87,17.82,0,26.34,3.23C967.5,321.11,971.58,323.64,977.71,323.82ZM1263.27,1663.3c12.15,2.58,23.64,6.32,36.47,5.84-.06-5.76,0-10.72-2.15-15.91-10.76-2.11-21.3-4.86-32.59-6.14C1264.39,1652.78,1263.86,1657.74,1263.27,1663.3Zm-174.85-71.23c-11-2.07-21.22-6-32.69-4.47-.53,5-1,9.56-1.51,14.59l32.25,7.44C1089.66,1601.63,1089.66,1601.63,1088.42,1592.07Zm219,78.93c12.22,1.48,23.55,4.66,36,2.17l-2.5-14.42c-5.73-.57-10.79-1-15.83-1.59-5.38-.6-10.72-2.32-16.61-.64C1308.08,1661.35,1307.75,1666,1307.39,1671Zm76.64,2.87a36.61,36.61,0,0,0-.52-5.21c-.86-3.37-1.93-6.68-2.83-9.76-9.79-1.57-23-1-30.61,1.14-.07,4.54-.58,9.16,1,14.36C1362.22,1675.81,1373,1676.3,1384,1673.87Zm-190.89-33.07c16.25,8.62,21.47,10.55,29.48,10.94v-16c-12.19-5.77-20.07-8-28.75-8.21C1193.64,1631.78,1193.41,1636,1193.14,1640.8Zm-94.28-45.93c-1.28,6.08-2.62,11.21-2.79,17.14l26.72,7.35c.24-5.94,2.33-10.58,1.39-16.48Zm133.1,42.79c-.61,6.69-1,11.64-1.52,16.82,8.44,3.11,16.3,6.15,25.56,6,.25-5.62,1.42-10.57-.28-16.19Zm241.58,15.84c-1.81-10.57-1.23-20.46-6.17-29.76-5.29,2.66-9,6.5-12.43,9.69,1.58,9.08,3,17.4,4.63,26.64Zm-81,2.65c.45,5.94-.84,11.73,1,17.57,7.37.45,14.22.33,20.83-3.32-1.52-6.45.31-12.88-2.55-19C1404.87,1651.07,1398.73,1653,1392.5,1656.15Zm-261.4-34.74c8.15,2.8,15.93,6,24.84,7,.79-5.54,2-10.46.26-16-3.59-1.18-7.23-2.53-11-3.56s-7.36-1.72-11.51-2.67c-.77,3.07-1.47,5.28-1.86,7.53S1131.39,1618.29,1131.1,1621.41Zm-109.19-25.53c8.15,2.43,15.42,3.27,23,4.19,1.66-5.17,2.85-9.56.4-14.83-7.24-.57-14.29-3-22.47-2.29C1022.52,1587.06,1022.25,1590.85,1021.91,1595.88Zm162.46,41.95c.3-2.83.72-5.09.73-7.36,0-2.68-.33-5.35-.51-8-5.47-4.7-11.6-6.15-18.68-6.93-.4,5.78-.74,10.68-1.11,15.9,3.75,1.44,6.92,2.81,10.19,3.88C1177.89,1636.32,1180.89,1636.93,1184.37,1637.83Zm-170.92-55c-8.92-2.2-16.91-2.86-25.76-.57.41,3.37.76,6.29,1.19,9.85,4.43.53,8.27,1,12.12,1.44,4.2.43,8.41.75,12.63,1.12.57-1.79,1.27-2.9,1.19-4C1014.63,1588.39,1014.05,1586.1,1013.45,1582.82ZM800.62,226.91c.47,2.51.8,5,1.44,7.48.51,2,1.59,3.58,4.28,3.28,1.81-2.88,4.22-6.2,2.29-9.47-1.67-2.83-5-4.71-7.62-6.93a5.43,5.43,0,0,0-2.15-.9c-2.68-.71-5.42-1.41-7.6,1.13a6.81,6.81,0,0,0-1.08,7.69,17.48,17.48,0,0,0,3.62,4.47c.36.36,1.38.06,2,.06C798,232,796.14,227.92,800.62,226.91Zm177.43,1356c-9.88-1.41-10.22-1.39-19.21,1.29.62,2.09,1.25,4.17,2,6.7,5.83,0,11.31,0,16.78-.06.58,0,1.13-.88,2.07-1.66C979.18,1587.14,978.6,1584.94,978.05,1582.88ZM845.83,328.9A16.42,16.42,0,0,0,854.08,341c1.75,1.07,3.56,1.82,5.09-.38-2.16-13.75-2.81-14.93-11.08-20,.69,4.67,6.37,7.45,4.5,13.66Zm-470-112.07-1.95-.06c-.6,5.35-1.29,10.69-1.74,16-.14,1.6.66,3,3.08,2.52.2-3,.49-6.13.59-9.23S375.82,219.92,375.82,216.83ZM939.43,1589.25c4.59,1.82,8.64,2.4,12.31.91,0-3.78-1.65-5.42-4.32-4.66S942.08,1588,939.43,1589.25ZM439,871.6a6.35,6.35,0,0,0-2.08-.89c-1.67-.07-3.32.39-3.31,2.42,0,1,.81,2,1.25,3a25.76,25.76,0,0,0,3.58-2.36C438.93,873.37,438.86,872.35,439,871.6Z"/><path d="M706.88,882.44c1.76,2.59,2.93,4.14,3.91,5.8,24.33,41.41,60.33,68.32,105,84.34,26.2,9.39,53.26,14.52,81,16.93a453,453,0,0,0,64,1.08c53.88-3,106.75-12.41,158.79-26.4,93.9-25.26,183.6-61.22,269.86-106a137.18,137.18,0,0,1,40.11-13.82c22.59-3.83,45.16-7.86,67.84-11.13,12.5-1.8,25.18-2.61,37.8-3.19,17-.78,34-1.39,51-1.24,114.53,1,223.39,26,325.54,78.37,49.61,25.45,94.74,57.2,133.32,97.77,26.64,28,49,59,64.23,94.71,15.54,36.36,22,74.17,18.09,113.54-3.06,31.14-13,60.15-28.74,87.16-17.58,30.1-40.78,55.29-67.86,77-36.17,29-76.71,50.08-120.14,65.8-40.67,14.73-82.58,24.15-125.48,29.73-43.34,5.64-86.81,6.1-130.28,3.7-39.91-2.2-79.38-8.32-118.41-17.09-5.4-1.21-10.79-2.49-16.25-3.33a16,16,0,0,1-10.32-5.3c.88-2.76,3.21-1.56,4.81-1.56,24.13,0,48.26.24,72.39.07,29.29-.21,58.4-3.12,87.46-6.69a711.14,711.14,0,0,0,117.1-24.27c32.28-9.64,63.62-21.66,92.88-38.58,21.69-12.54,41.73-27.23,58.06-46.49,11.13-13.13,19.81-27.7,24-44.5,5.75-23,3.54-45.49-5.93-67.24-8.83-20.28-22.1-37.38-38-52.47-23.78-22.48-51.16-39.74-80.26-54.38-40.08-20.17-82.27-34.62-125.64-45.79a896.39,896.39,0,0,0-116.44-21.82c-32.61-3.93-65.3-6.11-98.13-7.37-27.33-1-54.6-.38-81.81,1.07-67.74,3.61-134.46,13.62-199.07,35.19-22.91,7.64-45.23,16.69-66.39,28.43-4.84,2.68-9.62,5.49-14.23,8.54-60.14,39.71-124.53,70.24-194,89.71-34.42,9.64-69.48,15.49-105.31,15.13-22.22-.22-44.12-3.26-65.32-10.37-46.25-15.52-77.46-46.23-93.23-92.39-9.06-26.5-12-53.89-11-81.78,1.84-50.78,15.35-99,32.35-146.42C704.55,885.85,705.35,884.94,706.88,882.44Z" style="fill:#ccc"/><path d="M695.51,761.4c3.84-4,7.83-8.39,12-12.53,9.42-9.28,20.47-14.65,34-14a65,65,0,0,0,11.84-.45c7.47-1.06,11.19-6.38,9.21-13.59a38.2,38.2,0,0,0-5.16-10.56c-7.27-11-16.8-19.9-27.53-27.51-3.54-2.51-7.13-5-11-7.65a38.06,38.06,0,0,1,3.57-14.63C733.9,633.93,746.33,608,760,582.51c6.53-12.14,11.33-25.21,16.8-37.91,3-6.89,5.63-13.91,8.5-20.84,11.83-28.62,20.7-58.11,24.31-88.91,1.93-16.46,2.64-33.08,3.39-49.66.5-11,.09-22.12.09-33.8l17.48-11.63c8,1.32,16,1.61,22.73,6.55,2.79,2,5.87,2,8.84-.12a35.11,35.11,0,0,1,4.44-2.25c4.17,2.45,8.26,4.8,12.3,7.23,7.16,4.28,14.58,7.93,22.76,9.83.77.18,1.5.53,2.27.7,15.12,3.43,19.65-.63,17.81-16a10.39,10.39,0,0,1,.3-1.87c4.71.12,8.46,3.28,12.77,4.48,4.55,1.28,9,2.76,14.17,4.33.88,2.27,2.21,4.69,2.79,7.29,8.69,38.69,13.79,77.83,13.6,117.52a417.61,417.61,0,0,1-4.62,57.87c-4.58,31.67-8.77,63.39-13.29,95.06-4.48,31.38-12.18,62-21.9,92.16-1.08,3.35-3,6.41-4.54,9.63-8.73,18.81-4.22,35.94,12.7,47.93,8.17,5.79,17.43,9.19,26.95,12,13.35,3.94,27.09,5.73,40.9,6.47a348.85,348.85,0,0,0,48.59-.82c92.54-8,179.64-35.08,263.1-74.84a490.3,490.3,0,0,0,78.51-46.43c16-11.69,31.65-24,43.57-39.94,8.84-11.81,19.34-21.86,29.47-32.37,22.6-23.42,42.66-48.81,58.94-77.06a197.48,197.48,0,0,0,19.55-45.66c3.52-12.64,5.45-25.45,4.06-38.67a61.28,61.28,0,0,0-10.27-28.69c-.87-1.28-1.71-2.59-3.15-4.78,1.88.17,3,0,3.71.37,26.17,13.8,49.37,31.33,68.15,54.37,19.18,23.54,31.42,50.16,34.92,80.46,3.37,29.18-.55,57.54-10.32,85.17a273.08,273.08,0,0,1-38,70.79c-20.77,28.23-45.53,52.54-73,74.17A485.8,485.8,0,0,1,1429,831.2c-38.47,18.48-77.14,36.55-116.15,53.85-61.84,27.43-125.16,50.89-190.54,68.62a885.57,885.57,0,0,1-121.93,24.47,501.87,501.87,0,0,1-100.66,2.63c-33.26-2.55-65.72-9.22-96.38-23.07-19.25-8.69-36.87-19.84-52.32-34.31-28.18-26.38-44.19-59.28-51.64-96.69A237.45,237.45,0,0,1,695.51,761.4Z" style="fill:#ccc"/><path d="M618.44,1268.8c1.34,8.12,3.14,16.2,3.93,24.37,3.42,35.72,18.83,66.62,38.36,95.81,10.12,15.13,21.3,29.45,34.58,42.08a243.45,243.45,0,0,0,46.38,34.78c17.72,10.23,37.19,15.35,57.09,19,27.37,5,55,5.94,82.75,4.64a188.43,188.43,0,0,0,24.72-2.85c24.88-4.52,49.58-9.76,73.82-17.22,19.24-5.91,38.94-10.33,58.39-15.56,24.39-6.56,48.7-13.44,73.13-19.85,21.78-5.73,43.29-12.27,64.75-19.11,18.45-5.88,37.69-8.64,57-10.79a424.72,424.72,0,0,1,65.16-2.07c57.4,2.45,112.83,13.77,165.58,37.13,29.12,12.9,56.33,28.76,79.91,50.37,18,16.5,32.89,35.33,41.31,58.55,11.5,31.68,7.73,61.45-12.38,88.74-15.42,20.94-36.42,34.55-60.39,45.64-.23-2-.74-3.18-.41-4,14.6-36.67,4.85-68.09-20.84-95.93-15.84-17.15-35.52-28.87-56.65-38.21-23.29-10.28-47.69-16.5-72.93-20-22.48-3.1-45-3.13-67.48-1.68a252.93,252.93,0,0,0-55.93,9.92c-17,5.07-34,10.37-50.93,15.78-29.36,9.4-58.4,19.71-86.78,31.78a34,34,0,0,1-20.54,2.08c-18.64-3.36-37.51-5.59-56.36-7.63a343.12,343.12,0,0,0-36.68-2,247.19,247.19,0,0,0-31.92,2.25c-21.35,2.81-34.44,16.54-43,35-4,8.55-6.56,17.77-9.71,26.71-.91,2.6-1.6,5.27-2.66,8.83-3,.68-6.38,2.05-9.78,2.13-19.37.43-38.75.93-58.11.67-21.13-.29-41.33-6.16-61.52-11.72-10.46-2.88-19.37-8.7-28.15-14.88A192.84,192.84,0,0,1,708,1590.5c-18-20.59-34.45-42.36-48.28-65.94-16.55-28.22-26.84-58.93-33.8-90.74-5.92-27.07-9.88-54.42-10.15-82.22-.07-7.11-.64-14.21-1.08-21.31C613.4,1309.72,614.3,1289.23,618.44,1268.8Z" style="fill:#ccc"/><path d="M465.64,848.86l7.94,3.09c.67.94,1.39,1.52,1.53,2.22,3.23,16.15,10.85,30.52,18.91,44.55,11.44,19.93,20.72,40.89,30.7,61.51a112.16,112.16,0,0,1,6.81,17.69c6.78,23.54,13.91,47.05,15.94,71.62,1.17,14.16,1.34,28.4,2.16,42.6.5,8.67,1.27,17.33,2.14,26,.31,3,.6,6.28,3.64,8.34,3.29-3,3.4-7.08,3.53-11,.31-9.08.68-18.18.38-27.25-.6-19-.82-38-4.72-56.62-6.47-31-14.46-61.4-29-89.95-10.59-20.79-21.88-41.16-33-61.66-2.82-5.2-5.38-10.56-7.79-16-.91-2-1.07-4.44-1.49-6.31l18.18-7.18a37.24,37.24,0,0,1,6.31,1.24c27,8.94,54.3,17.12,79.6,30.46,20.06,10.59,38.88,22.83,53.48,40.63,4.59,5.6,8.62,11.56,8.53,19.07,0,4.68-.36,9.64-2,13.95-4.44,11.86-5,23.94-3.37,36.21,2.94,21.69-.54,42.51-7.72,62.93-3,8.58-5.69,17.27-8.77,25.81a107.35,107.35,0,0,1-5.68,13c-2.58,5-5.92,9.34-11.65,11.21-4.64,1.51-6.76,5.07-7.55,9.72-3,17.33-12.28,31.51-22.84,45-8.51,10.86-12.2,11.53-24,4.55-12-7.13-22.24-16.5-32-26.27q-50.81-50.67-101.13-101.82a184,184,0,0,1-16.53-20.14c-8.23-11.17-10-23.81-7.18-37.23a174.56,174.56,0,0,1,12.39-38.28c13.44-28.65,27.8-56.82,46.76-82.35C460.53,855.11,463,852.14,465.64,848.86Z" style="fill:#1c9350"/><path d="M668.16,1104.37l4.62,13.66c11,32.38,29.35,59.34,57.74,79,3.28,2.27,6.33,4.55,8.08,8.37,11.42,25,26.76,47.45,43.65,69a25.88,25.88,0,0,1,1.55,2.7c-.4,1.71-.9,4-1.43,6.22a74.86,74.86,0,0,0,.56,36.37c5,19,14,36.08,25.75,51.66,31.66,41.93,72.74,70.84,122.48,87.54,6.33,2.12,12.78,3.88,19,5.76.43,2.58-1.24,2.81-2.72,3.19-39.32,10-79.13,15.23-119.75,11.45-17.3-1.61-34.49-4-51.36-8.56a149.73,149.73,0,0,1-43-19.44c-23.46-15.3-42.81-34.69-59.33-57.32-12.93-17.71-22.93-36.85-31.94-56.66-6.47-14.2-8.74-29.44-11.28-44.65a390.53,390.53,0,0,1-5.16-68.45,87.24,87.24,0,0,1,2.07-18.79c6.71-28.93,15.16-57.28,29.87-83.35C660.48,1116.87,663.63,1111.91,668.16,1104.37Z" style="fill:#ccc"/><path d="M967.63,547.14c1-8.84,1.88-15.83,2.61-22.83s1.78-14.14,1.9-21.23c.11-5.83,2.43-9.66,7.32-12.44,14.07-8,27.72-16.86,42.21-24,21.25-10.45,42.93-20.1,64.74-29.34,27-11.43,55.41-18.44,83.94-24.91,43.21-9.79,87-16.3,131-20.74,43.28-4.36,86.71-6.81,130.23-4.9,18.94.84,37.84,2.47,56.45,6.52a74.8,74.8,0,0,1,31.86,15c12.31,10,18.83,22.95,19.42,39,.59,15.7-2.62,30.64-8.13,45.17-3.49,9.19-7.33,18.25-12.52,26.41-3.37.38-3.34-2.23-4-3.75-7.32-17.26-20.29-28.9-36.75-37a154.93,154.93,0,0,0-42.77-13.63,384.34,384.34,0,0,0-76.75-5c-66.59,2-132.17,11.62-197,26.7-55.44,12.9-110,28.89-163.28,49C988.6,538.74,979.14,542.61,967.63,547.14Z" style="fill:#ccc"/><path d="M159.83,1265.89a21.47,21.47,0,0,1-3-3.06c-11-16.25-18.62-33.81-20.81-53.55-1.8-16.17-3.13-32.38.61-48.34,3.68-15.74,7.35-31.65,13.06-46.72,5.42-14.31,12.7-28.12,23.89-39.2,12.07-11.94,24-24,36.38-35.66,9.24-8.7,19.88-15.52,31.08-21.55,20.2-10.88,40.6-21.19,62.86-27.31,23.35-6.4,46.91-11,71.31-9.27q4.14.3,8.26.78a31.68,31.68,0,0,1,3.36.77c2.35,5.28,2.35,5.28,1.58,13a56,56,0,0,1-6.61.05c-12-1.24-23.62.62-35.22,3.33-23.83,5.57-45,16.94-65.38,30q-15.46,9.91-30.39,20.66a181.73,181.73,0,0,0-49.23,53.9c-3,5-4.92,10.73-7.09,16.22-.47,1.18.14,2.79.36,5.45,2.21-1.47,3.67-2.05,4.56-3.1,5.1-6,10.49-11.85,15-18.3,14.42-20.68,31.81-38.21,53.14-51.76,13.67-8.67,27.13-17.7,41-26,18.5-11,38.63-18,59.81-21.76,5.38-1,11-.82,16.49-.87,3.41,0,5.7,1.85,7.4,5,4.53,8.29,9.37,16.41,14.65,25.57-3,9.34-9.75,17.62-17.2,25.12-13.9,14-27.33,28.48-43.91,39.62-8.17,5.48-15.36,12.41-23,18.64-26.68,21.67-53.48,43.2-80,65.06a256.74,256.74,0,0,0-21.57,20.28c-19.73,20.49-39.19,41.24-58.79,61.86C161.91,1265.24,161,1265.37,159.83,1265.89Z" style="fill:#c5db68"/><path d="M122.06,908.29c4.63-10.33,7.79-18,11.44-25.41,10.65-21.68,22.61-42.65,37.28-61.86,10.59-13.88,22.75-26.34,38.34-34.85,13.52-7.39,26.87-15.11,40.66-21.95A129.62,129.62,0,0,1,300,751.28c9.06-.55,18.12-1.58,27.18-1.59A145.38,145.38,0,0,1,386,761.6a118.51,118.51,0,0,1,25.57,14.86c9.59,7.44,10.27,11.66,3.53,23.84-6.64-1.35-13.48-3-20.41-4.1-27.88-4.19-55.7-5.13-83.77-.74-27.9,4.36-54.94,11.41-81,22.18-8.35,3.45-16.24,8.09-24.18,12.47-2.25,1.24-4.91,2.81-4.49,7,2.27-.34,4.57-.32,6.61-1,10.8-3.82,21.61-7.64,32.28-11.8C272.06,811.85,305.06,804,339.21,802c24.53-1.47,49,.37,73.53,7.32-.82,1.64-1.16,3.24-2.15,4.14-5.65,5.19-9.55,11.51-12.79,18.37A119.93,119.93,0,0,1,377,861.92c-11.64,12.62-26.45,18.88-43.14,19.61-14.17.62-28.44-.42-42.64-1.26-15-.88-29.91-3.12-44.89-3.46-24.23-.54-48.16,2.31-71.08,10.81-14.44,5.36-28.71,11.19-43,16.8C129.7,905.39,127.2,906.33,122.06,908.29Z" style="fill:#1c9350"/><path d="M762.93,284c-12.33-4.68-19.51-14.18-24.35-25.92-1.32-3.21-1.16-6.43.88-9,4.07-5.16,5.45-11.28,7.36-17.31A48.9,48.9,0,0,1,752.34,220a11.78,11.78,0,0,1,6.43-4.72c3.46-.85,7.1-.93,9.58-3.88,2-2.4,3.76-5,6-8.13,7.13,1.8,12.46,7.32,20.36,10.1C787,218,784.49,223.8,787.07,231c2.71,7.6,10.56,11,21.67,10.08,6.1-10.25,6-11.8-2.09-23a57,57,0,0,1,16.84,6.07c5.1,2.78,8.9,6.51,10.17,12.4.5,2.29.81,4.81,4.08,4.78.77-9.35-1.55-14.67-9.39-19.63-4.3-2.73-9.07-4.71-14.38-7.42.25-3.31,2.68-6.11,3.59-9.34.86-3,2-6.1,2.2-9.19.17-3.32-.68-6.7-1.15-10.62,6.95-.7,14-1,21,.59a55.83,55.83,0,0,0,31.54-1.87c8.27-2.94,16.83-4.29,25.47-5.35a47,47,0,0,1,5.27,0c-1.55,5.95-7.38,9.71-5.95,15.61,1.17,4.89,3.15,9.58,5.13,15.42-3,2.56-6.77,5.82-10.54,9.1-8.2,7.14-8.36,16-4.56,25.65.38-2.17,1.11-4.35,1.08-6.51-.11-7.82,3.36-13.57,9.54-18.06a73.55,73.55,0,0,1,16.23-9.45c7.63-3,14.56-7.83,21.66-12.09,3-1.79,5.67-4.16,9.11-6.74,1.77,2,3.17,3.74,4.76,5.31,2.53,2.48,4.84,6.17,7.86,6.95,6.12,1.58,8.6,6.24,12.13,10.39s7.81,7.8,11.94,11.46c3.38,3,4.92,6.72,2.86,10.57-7,13.15-9.18,28.62-19.32,40.28-3.63,4.17-7,8.59-10.61,12.75-2,2.25-2.14,2.11-9.26,2.29a39,39,0,0,1,11.49-14.79c3.64-3,7.52-5.94,10.48-9.56,2.39-2.93,3.69-6.81,5.2-10.38.26-.61-.88-1.81-1.55-3.09-1.28.84-2.49,1.23-3.05,2.06a73.6,73.6,0,0,1-14.42,15.6c-4.21,3.46-7.59,8-11.09,12.24-4,4.88-7.48,10.22-11.63,15-11.16,12.78-27.87,14.57-41.11,8.73-2.53-1.11-5-2.27-7.47-3.62-10-5.56-19.77-4.31-29.37.92-3.47,1.88-6.69,4.22-10.15,6.13-6.43,3.56-12.84,4.42-20.43,2.63-12.42-2.93-22.85-8.49-31.55-17.64a87.42,87.42,0,0,0-18.38-14.86c-11-6.61-20.42-14.94-24.6-27.77a9,9,0,0,0-2.14-2.77c-.22-.24-.73-.23-1.83-.54-.25,1.37-.85,2.73-.68,4a29.34,29.34,0,0,0,8.26,16.72c4.33,4.55,8.73,9,13.09,13.54Zm144.54-56.74c-2.18,1-3.16,2.86-1.36,4.53,7.44,6.9,16.62,6.15,22.47-1.69a20.06,20.06,0,0,0,4.12-13.25c-.25-5.11-3.66-8-8.62-7.25a11.32,11.32,0,0,0-5.42,2c-5,4.35-10,8.87-11.38,15.87Zm-67.06,28.17-5.68,8.9c3.78,2,6.43.67,8.17-2.17S843,257.12,840.41,255.41Zm45.2.53c-3.59,3-4.06,4.3-2.4,6.27,1.86,2.2,5.22,3.08,6.1,1.56,1.33-2.29-.66-3.52-1.69-5C887,257.78,886.28,256.87,885.61,255.94Z" style="fill:#ccc"/><path d="M755.84,724.44c-3.15,1-5.29,2-7.51,2.29a60.34,60.34,0,0,1-8.29,0c-15.11-.26-28.06,5.17-38.16,16.1-8.15,8.81-17.94,13.79-29.17,17.13a287.89,287.89,0,0,0-27.84,10A109.66,109.66,0,0,0,612,790.88a114.49,114.49,0,0,1-38.1,23.49,62.89,62.89,0,0,0-18.48,10.45c-1.52,1.26-3.08,2.5-4.7,3.61-13,8.87-22.17,8.5-35.55-1.38-.07-.76-.45-1.65-.17-2.25,9.79-21.13,18.85-42.63,33.85-60.92,6.3-7.68,12.85-15,20.72-21.08,6.26-4.82,12.65-9.48,19.06-14.11,20.8-15,44.1-22.64,69.73-23.35,11-.31,22-.81,33-1.22,1.32-1.91.1-3.08-1.38-3.51-4.91-1.42-9.83-3.32-14.85-3.73-29.09-2.38-56.85,2.18-81.83,18.11-11,7-21.41,14.88-31.75,22.8-8.84,6.77-15.92,15.32-22.3,24.44-3.6,5.15-7.25,10.26-10.74,15.19-3.39.06-3.12-2.53-3.65-4.08-1.93-5.6-3.37-11.36-5.39-16.92a15.12,15.12,0,0,1,1.14-13.62c1.6-2.72,3-5.56,4.78-8.17A213.58,213.58,0,0,1,562.88,692c15.44-13.39,32.8-23.5,53.14-27.41,31-6,60.58-.85,88.82,12.5,13.64,6.45,26.21,14.74,36.82,25.61C747.4,708.6,753.11,714.65,755.84,724.44Z" style="fill:#1c9350"/><path d="M694.89,501.31c-6.64-1.4-10-5.43-13.31-9.28-24.4-28.1-51.08-54-77.78-79.81-29.69-28.74-63.73-50.45-102.85-64.05-6.72-2.34-13.37-4.87-20-7.43A92.92,92.92,0,0,1,454.57,325c-12.78-10.71-19.62-24.46-20.51-41.13,0-.3.44-.64.74-1.05,3.4-1.63,5.9,1.06,8.62,2.2,11.67,4.87,12.58,4.49,16.26-7.89a4.33,4.33,0,0,1,.65-1c9.3,2.16,17.61,6.67,51.81,27.43a321,321,0,0,1,48.27,36.33c14.67,13.23,29.24,26.63,43.1,40.7a295.57,295.57,0,0,1,38.4,48.15c-.47-4.21-.29-5.81-.85-7.09A95.07,95.07,0,0,0,635.34,410c-10-16.2-21.16-31.53-35.17-44.55q-19.54-18.16-39.47-35.91c-27.44-24.38-59.41-41.75-91.66-58.66-3.15-1.65-6.55-2.95-9.36-5.05-1.6-1.19-2.23-3.68-3.33-5.67,3.67-3.42,7.46-3.91,11.42-4.3,12.38-1.21,24.44.55,36.4,3.49,34.63,8.49,64.39,25.89,90.35,49.93,30.21,28,53.75,61,72.33,97.64,11.64,23,21.68,46.58,27.8,71.66,1.39,5.67,1.39,11.7,1.78,17.58C696.52,497.58,695.6,499.06,694.89,501.31Z" style="fill:#c5db68"/><path d="M1507.85,1635.47c2.26,9.62.85,17.4-.74,25.07a68.08,68.08,0,0,1-4.09,12.36c-6.48,15.46-8.89,17.66-25,22.21a339.51,339.51,0,0,1-71.08,12.62c-12.22.77-24.43,2-36.67,2.41a215.71,215.71,0,0,1-23.69-1c-16.56-1.25-33.12-2.48-49.63-4.21-28.3-3-56.65-5.61-84.79-9.71-33.67-4.89-66.58-13.48-98.87-24.24-4.46-1.49-8.58-4-12.84-6.12a456.44,456.44,0,0,0-97.93-35.3c-12.32-2.87-24.76-5.15-37.49-5.56-17-.54-34-.79-49.54,7.14-2.5-2.17-1.14-4.07-.46-5.72,2-4.73,4.17-9.38,6.31-14a13.25,13.25,0,0,1,7.84-6.84,41,41,0,0,1,9.11-2.56c11.36-1.32,22.68-2.62,34.24-2.12,38.94,1.68,76.74,9.89,114.4,19.08,28.06,6.85,55.49,15.67,82.65,25.44,14.12,5.08,28.29,10.16,42.76,14.07,27.82,7.52,55.48,15.87,84.14,19.78,31,4.22,62,7,93.36,4.33,25-2.17,49.36-6.15,72.88-14.92,11.19-4.17,21.86-9.36,30.85-17.34C1498.21,1646.21,1502.24,1641.36,1507.85,1635.47Z" style="fill:#ccc"/><path d="M170,274.23c-13.23-11.63-19-25.93-23.74-40.65a30.6,30.6,0,0,1,2.83-25.21,31.53,31.53,0,0,1,3.89-5.94c10.79-11.69,18.86-25.32,27.84-38.31,13.91-20.13,31.22-36.5,53-48.1,17.85-9.49,36.33-14.6,56.77-13.34,13.09.8,26,1.93,38.51,5.88,3.76,1.18,7.44,2.63,11.13,4,21.05,8,31.45,24.36,35,45.58a97.55,97.55,0,0,1,.26,29.45c-2.9,1-3.55-1.29-4.45-2.84-7.6-13.1-18-24-27.74-35.4-5.79-6.79-13.35-11.15-21.63-14.09-19.5-6.91-39.2-8.44-59.32-2.29C232,142.27,206.5,158.52,187,183.77c-3.87,5-7.85,9.93-11.44,15.13A58.83,58.83,0,0,0,170,209.28c-.64,1.52-.1,3.55-.1,7.18,3.28-3,5.49-4.52,7.09-6.53,6.17-7.73,12-15.72,18.2-23.4C215,162,240.34,146.16,271,138.88c18.74-4.45,36.94-2.14,54.37,5.73A35.92,35.92,0,0,1,337,152.55C346.59,163,355.7,174,364.77,184.91c2.71,3.26,5.18,6.9,6,11-1.75,2.28-3.08.66-4.24,0-3.79-2.13-7.39-4.59-11.22-6.63a78.24,78.24,0,0,0-45.85-8.71c-32.62,3.37-62,15.3-88.63,34-14,9.85-24.64,23.28-34.76,37C180.76,258.86,176.35,266.79,170,274.23Z" style="fill:#1c9350"/><path d="M188.89,505.33c.68,9.55,1.26,17.78,1.88,26.54-5.78,1.66-11.59.11-17.35-.27-15.54-1-30.73,1-45.69,5-1.39.37-3.18.73-3.21,3.41a17.16,17.16,0,0,0,4.09.82c8.29-.32,16.56-.86,24.85-1.2q17.14-.69,34.3-1.21c4.2-.13,7.57,1.26,10,5,4.49,6.92,10.84,9.06,18.47,5.71,5-2.2,10.14-1.87,15.15-1.09,16.38,2.54,32.85,4.83,49,8.42,17.71,3.95,35.12,9.22,52.65,13.95,2.24.61,4.4,1.45,6.28,2.07,1.65,4.46-.32,7.58-2.58,10.29-5.66,6.79-12.27,12.47-21.27,14.14-7,1.3-14,2.63-21.05,2.86-24.28.81-48-3.27-71.47-9.1-17.24-4.29-34.2-9.69-51.45-13.89-12.64-3.07-25.5-5.34-38.37-7.29-6.58-1-13.39-.61-20.1-.7-10.27-.14-20.63.72-30.78-.38C59.61,565.94,41.05,555.55,27.39,537A26.75,26.75,0,0,1,25,532.16c1.72-4.42,5.34-5.15,8.7-6.09,16.73-4.66,33.41-9.51,50.25-13.74a330,330,0,0,1,51.36-8.52A223.82,223.82,0,0,1,188.89,505.33Z" style="fill:#c5db68"/><path d="M1141.64,1416.4c-4.24,1.57-6,2.42-7.93,2.9-17.6,4.49-35.32,8.57-52.8,13.47a55.7,55.7,0,0,1-26.87.73A411.3,411.3,0,0,1,951.24,1398Q829.61,1337,755.76,1222.72c-2.33-3.62-4.4-7.4-6.43-10.82,1.67-3,3.58-1.91,5.31-1.27,7.79,2.85,15.49,5.93,23.36,8.54a11.86,11.86,0,0,1,7.19,5.63c10.8,19.33,26.51,34.39,43,48.69,26.67,23.2,56.14,42.43,87,59.52a784.22,784.22,0,0,0,208.65,79.64C1128.78,1413.77,1133.78,1414.75,1141.64,1416.4Z" style="fill:#ccc"/><path d="M565.11,198.41C563.8,192.24,561,188.09,558,184c-17.72-24.37-40.69-41.76-69.19-51.68C463.48,123.54,439,127,415.18,138c-9.16,4.25-16.08,11.36-22.59,18.87-2.29,2.65-4.34,5.52-6.69,8.54-4.45-10.15-7.82-27.77-6.55-34.41a4,4,0,0,1,2.07-2.6,3.8,3.8,0,0,1,3.09.72c.87.67,1.15,2.08,2,2.89a40.42,40.42,0,0,0,4.15,3.1,76,76,0,0,0,4.76-7.12c6-11.66,15.7-18.6,28.16-21.75a133.43,133.43,0,0,1,47-3.22,253.47,253.47,0,0,1,48.59,10.39A136.64,136.64,0,0,1,567.67,140a58.7,58.7,0,0,1,17.52,24.91c3.2,8.69,2.86,17-1.33,25.22-.54,1.06-1.11,2.1-1.69,3.13-6.16,11-12.54,21.93-15.38,35.14-2.67-.61-5.09-.66-6.95-1.69A125,125,0,0,1,547.91,219c-19.35-13.86-39.68-26-62.11-34.21-17.54-6.44-35.5-10.77-54.41-10.22-13.61.41-26.69,2.68-38.76,9.36a64,64,0,0,1-6.28,2.52c.39-2.65.3-4.19.85-5.46,8.54-19.92,22.52-34.18,43.58-40.57,23.16-7,45.7-6.15,68.07,4.24,20.18,9.38,36.48,23.41,51.69,39.07,3.85,3.95,7.25,8.34,10.94,12.46C562.14,196.94,563.21,197.28,565.11,198.41Z" style="fill:#1c9350"/><path d="M176.5,281.43c-6.67,2.31-13.25,4.9-20,6.86-16.74,4.85-33,10.79-48.42,19-18.73,10-34.15,24.08-48.26,39.71a21.2,21.2,0,0,0-2.25,3.82c1.44,2.29,3,1.45,4.17.56,5.38-4,11.2-7.6,15.91-12.29,22.22-22.18,49.49-34.88,79.23-43.15,3.42-1,6.84-1.94,10.28-2.82a235.26,235.26,0,0,0,53.79-21.32,225.46,225.46,0,0,1,71.58-24c3.81-.63,7.71-.79,11.4-1.14,1.27,4-1.57,4.91-3.21,6.2-7.61,6-11.46,14-12.73,23.3A84.78,84.78,0,0,1,281,300a36.41,36.41,0,0,1-17.82,18.23A103.74,103.74,0,0,1,232.87,328c-10.93,1.63-21.94,2.95-33,3.58-15.38.89-30.81,1-46.21,1.48-24.46.79-47.95,5.63-69,18.62C64.49,364.14,45.53,378.37,29,395.6c-1.24,1.28-2.73,2.32-4.91,4.15-3.64-16.14-3-30,8.86-41.45a100.55,100.55,0,0,0,17.19-22.52,49.52,49.52,0,0,1,8.52-11.32c21.51-20.42,43.56-40.24,69.28-55.4a118,118,0,0,1,16-7.68c5.07-2,6.81-1.2,10,3.23,3,4.15,5.79,8.45,9,12.42a12.63,12.63,0,0,0,13.76,4.6Z" style="fill:#c5db68"/><path d="M958,1633.32c-.49,3.82-.89,7.71-1.52,11.56-1.56,9.55.69,18.11,6.93,25.43a68.83,68.83,0,0,0,10.08,10c26.41,20.33,55.52,34.65,88.84,39.63,24.31,3.63,48.78,4.34,73.3,4.51,31.63.21,63.3-.43,94.87,1.07s63,5.46,93.19,15.79c20.36,7,39.33,16.48,56.1,30.1a12.05,12.05,0,0,1,4,5.44,15.67,15.67,0,0,1-2.88-1.22c-24.26-16.41-51.13-26.45-79.64-32.34a374.32,374.32,0,0,0-93.14-7.48c-20.56.94-40.81,4.68-61.11,7.85-6.63,1-13.26,2.27-19.94,2.83-22.83,1.9-45.67,4.64-68.54,5-35.94.62-69.33-9.13-100.38-27.65-19.67-11.75-33.66-28.39-45.41-47.36-4.44-7.17-6.86-15-5.43-23.74.67-4.13,2-7.59,5.51-10,1.3-.89,2.48-2,3.79-2.86C927,1632.9,943.86,1630.15,958,1633.32Z" style="fill:#ccc"/><path d="M364.83,745.25c8.83-14.25,19.29-25.75,33.77-33.08,15.2-7.7,31.61-10.29,48.39-8.95,16.57,1.33,31.34,8,44,18.8a43.07,43.07,0,0,1,8.15,10.07c9.27,14.95,14.57,31.5,18.58,48.47a25,25,0,0,1-2.4,18.36c-7.21,13.16-14,26.54-21.15,39.75-1.24,2.3-3.21,4.22-5.33,6.93-1.38-1.92-2.66-3-3-4.32a85.49,85.49,0,0,1-2.22-11.61c-2.77-25.77-10.92-50.14-20-74.15-5.2-13.8-14.25-25.47-24.75-35.86-1.34-1.33-3.05-2.28-5.85-4.33.3,3.23-.08,5.3.71,6.71a187.72,187.72,0,0,0,11.1,18.18,103.4,103.4,0,0,1,15.24,30.64c5.32,17.36,11.39,34.53,14.08,52.59,1,6.61,1.64,13.27,2.4,19.92,0,.31-.37.68-.88,1.55a36.67,36.67,0,0,1-5.25-1.81,165.85,165.85,0,0,1-42.77-31.52c-3.68-3.77-5.12-7.85-3.15-12.88.28-.74.63-1.46.84-2.22,2.92-10.29.24-18.83-8.48-25-6.41-4.58-12.89-9.22-19.87-12.81-7.69-4-16-6.76-24-10.06Z" style="fill:#1c9350"/><path d="M273.46,927.65c-4.26,1.64-8.58.83-12.73,1-32,1.59-63.9,4.42-95.05,12.3-16.45,4.15-32.63,9.43-48.77,14.69-6.34,2.06-12.3,5.35-18.32,8.33-2,1-3.51,2.71-5.09,4,1.18,3.43,3.49,2.71,5.16,2.27,9.15-2.45,18.36-4.76,27.32-7.79,20.6-7,41.31-13.6,62.79-17.22,14.4-2.43,28.91-4.23,43.41-6,9.37-1.17,18.81-1.82,28.12-2.7,1.21,3.38-1.08,3.74-2.61,4.55-13.61,7.24-27.31,14.3-40.83,21.7a191.38,191.38,0,0,1-77.88,23c-42.85,3.34-79,20.57-109.57,50.39a27.8,27.8,0,0,1-3.87,2.46,48.16,48.16,0,0,1,.84-5.19c5.13-17.75,14.84-33.12,25.5-47.9,2.72-3.77,6.63-6.76,10.29-9.75,5.2-4.26,10.85-8,16-12.3A136.88,136.88,0,0,0,92.7,949.65c8.85-10.11,19.44-15.38,33.11-15.64,20.19-.39,40.08-3.67,59.81-8.07,11.15-2.5,22.48-4.31,33.78-6.07,18-2.79,35.33,1.36,52.64,5.41C272.5,925.39,272.75,926.41,273.46,927.65Z" style="fill:#1c9350"/><path d="M1805.73,1275.39l41.55-32c10.45,10,25.58,34.89,32.86,54.07,10.89,28.7,10.89,28.7,14.7,61.7-10,10.09-46.7,29.4-62.6,32.75-.88-6.24-.12-12.44-.06-18.58.34-34.23-6.26-66.56-25.62-95.5A10.55,10.55,0,0,1,1805.73,1275.39Z" style="fill:#ffff63"/><path d="M1760.31,1415c-11.69,5.07-50.55,13.07-68,14.28-2.55-1.89-1.22-4.36-.68-6.45a240.13,240.13,0,0,0,6.84-66.84c-.35-11.39-2-22.75-3-34.12-.17-1.88-.33-3.76-.54-6.12l51.92-14.92c1,1,1.92,1.4,2.13,2.05,8.59,26,14,52.53,12.46,80.11-.27,4.71-1.3,9.38-1.72,14.09C1759.15,1403.25,1756.8,1409.34,1760.31,1415Z" style="fill:#ffff63"/><path d="M1854.67,1232c8.81-12.32,13.49-25.6,16.45-40.61,3.15,1.75,5.64,2.74,7.68,4.32,27.18,21.09,47.36,47.42,59,79.93,3.2,8.91,5.42,18.16,8.3,27.18a8.73,8.73,0,0,1-.87,7.86c-8.23,13.17-18,25-30.37,34.49-.56.43-1.49.36-2.95.67C1905.3,1302.26,1889.18,1263.22,1854.67,1232Z" style="fill:#ffff63"/><path d="M317.82,476.4c-29.66-2.08-57.32.86-83.68,11.85-4.63,1.92-8.75,5.09-13,7.82-.4.25-.21,1.43-.38,2.94,1.79.18,3.72.89,5.34.46,5.71-1.5,11.41-3.15,16.94-5.19a168.21,168.21,0,0,1,61.48-10.42c4.66.07,9.31,1,13.76,1.52.75,3.39-1.44,3.86-3,4.66-6.68,3.4-13.48,6.58-20.08,10.12-7.3,3.92-14.66,7.78-21.56,12.33a160.89,160.89,0,0,1-27.25,14.17c-9.1,3.77-18,8.11-26.83,12.42-11,5.35-14.68,5.81-20.53-8.07-8.38-19.89,3.68-47.84,18.07-56.86,12.37-7.76,25.73-11.62,39.8-14.27,21.44-4.05,40.47,2.46,58.79,12.59C316.19,472.77,316.38,473.73,317.82,476.4Z" style="fill:#1c9350"/><path d="M1757.07,1297.14l37.5-16.52c4.61,1.42,5.57,5.07,7,8.22,6.08,13.79,9.85,28.3,12.53,43.06,3.39,18.66,5.94,37.4,3.77,56.46-.35,3,.28,6.17.45,9.16-10.12,5.74-34.32,13.47-46.52,14.72,3-19.6,5.15-39,2-58.73C1770.71,1334.36,1764.56,1316.16,1757.07,1297.14Z" style="fill:#ffff63"/><path d="M1632,1329c3,18.86,2.55,37.13-.11,55.59-2.62,18.17-9.82,34.73-16.16,51.64-9.14,3-31.28,4.18-46.08,2.24,3.25-11.32,6.54-22.54,9.69-33.79a138.28,138.28,0,0,0,5.21-35c.19-11.73-.12-23.47-.21-35.3C1593.08,1331.53,1620.67,1328.21,1632,1329Z" style="fill:#ffff63"/><path d="M1083.09,1391.66c-11.77-1.73-35.37-9.4-46.4-15.05,7.45-6.65,14.88-12.9,21.85-19.61,6.8-6.56,13.36-13.41,19.64-20.48,6.54-7.36,12.81-15,18.85-22.77,5.78-7.46,11.12-15.26,17-23.39,7.83-1.17,15,2.68,22.57,4.38,7.27,1.64,14.48,3.61,22.63,5.67-1.87,3.35-3.18,6.12-4.87,8.63-13.73,20.32-30.07,38.53-46.38,56.73C1100.1,1374.57,1091.62,1382.83,1083.09,1391.66Z" style="fill:#ffff63"/><path d="M909.29,1319A469.33,469.33,0,0,1,865,1291.38c8.33-5.47,16.73-8.62,24.35-13.12,7.82-4.63,15.73-9.13,23.35-14.07q10.94-7.11,21.3-15c7.21-5.51,14.07-11.48,21.64-17.71,12.95,5.47,26,11.59,40.26,17.57C971.53,1279,943.56,1302.08,909.29,1319Z" style="fill:#ffff63"/><path d="M1006,1253.05l45.4,16.79c-7.1,12.24-16.57,21.17-25.93,30.08-9.15,8.71-18.4,17.41-28.37,25.14-10.25,7.93-21.42,14.68-32.47,22.14-14.25-5.78-27.36-12.8-41.23-20.46,1.89-1.46,2.92-2.62,4.22-3.23,31.33-14.75,54.81-38.3,74.43-66.2.68-1,1.35-1.93,2.07-2.86A13.29,13.29,0,0,1,1006,1253.05Z" style="fill:#ffff63"/><path d="M337.53,489.13c8,.91,14.67,4.24,21.26,7.78,16.47,8.84,31.25,20.05,45.39,32.18,3.82,3.28,7.72,6.47,11.69,9.8,2.34-3.58.23-5.82-1.27-8a91.91,91.91,0,0,0-23.1-23.64c-10.73-7.38-22-14-33-21-1.91-1.2-3.89-2.29-5.34-4.78a44,44,0,0,1,6.62.36,191.8,191.8,0,0,1,44.86,15c26.85,13,42.59,34.48,48.49,63.45,1,5.07,1.47,10.17-.79,15.12-2.1,4.57-5.31,5.69-9.47,3a69.83,69.83,0,0,1-7.62-5.65c-24.84-21.26-53-37.21-82.36-51.15-3.93-1.87-8-3.54-11.73-5.69-9.45-5.41-11.28-10.76-7.18-20.66A54.14,54.14,0,0,1,337.53,489.13Z" style="fill:#1c9350"/><path d="M1168.34,1302.73c14.24,2.51,28,5.34,41.73,8.87-6.2,14-46.56,68.91-69.06,94.17-7.7.86-15.11-2.27-22.74-3.87-7.18-1.51-14.46-2.79-22.3-6.35C1124,1367,1149.35,1337.51,1168.34,1302.73Z" style="fill:#ffff63"/><path d="M1017.61,1370.75l-36.45-15.37c1.79-2.1,2.69-3.76,4.09-4.71,19.72-13.43,36.67-30,52.42-47.67,8.07-9.09,15.09-19.12,22.89-29.11a12.78,12.78,0,0,1,4,.06c13.46,4.07,26.87,8.28,41.21,12.72-6.32,9.9-14,17.22-21.22,24.86C1064.25,1333,1044.29,1354.9,1017.61,1370.75Z" style="fill:#ffff63"/><path d="M945.37,1227.07c-4.35,2.82-8,5.13-11.58,7.49A654.71,654.71,0,0,1,872.24,1270c-4.52,2.3-9.65,3.37-14.24,5.57-7.89,3.77-13.83,1.57-20.2-4-12.82-11.19-25.46-22.5-36.48-35.49-2.77-3.25-5.23-6.75-8.38-10.84,3.76-2.09,6.76-1,9.61-.58,15.25,2.27,30.57,4.11,46,3.5,22.5-.89,44.89-3.11,67-7.93a44.61,44.61,0,0,0,4.62-1C930.12,1216,937.33,1221.18,945.37,1227.07Z" style="fill:#ffff63"/><path d="M1217.2,1396.94c-3.16.63-7.44,1.26-11.6,2.36-12.19,3.23-24.44,6.35-36.47,10.11-6.1,1.91-11.36,1.23-17.65-2,29-27.61,50.87-59.86,72-93.51,14.93,2.31,29.66,4.6,45,7.75-1,2.67-1.48,5-2.62,6.87-11.34,19-23,37.77-37.9,54.28C1224.23,1386.91,1221.23,1391.58,1217.2,1396.94Z" style="fill:#ffff63"/><path d="M1672.73,1432c-12.84,2.7-25.34,3.28-38.9,4.46,2.93-9.89,5.72-18.74,8.17-27.68,2.41-8.75,4.45-17.6,4.46-26.76,0-9.45.5-19-.29-28.35-.75-8.89-2.9-17.67-4.57-27.3,14.16-3.58,28-5.77,41.63-7.89,3.29,7.68,4.42,14.68,3.87,33.08C1686.1,1385.07,1684.31,1408,1672.73,1432Z" style="fill:#ffff63"/><path d="M545.42,1443.23a12.79,12.79,0,0,1-1.39-3.09q-11.5-70.71-26.41-140.77c-4.94-23.14-8.06-46.66-12.31-70q-6.58-36.09-13.82-72.07c-3.05-15.07-6.76-30-10.11-45-.14-.64.33-1.42.72-2.9a149.21,149.21,0,0,1,14.42,14.21c1.47,1.63,2.16,4.16,2.7,6.41,5.72,23.78,11.53,47.5,14.81,71.83,2.31,17.19,6.08,34.2,9.85,51.15,6.19,27.75,11.06,55.72,15,83.87,2.8,19.93,5.89,39.82,8.92,59.72,1.9,12.47,4,24.92,5.86,37.39C554.7,1440.72,553.16,1442.38,545.42,1443.23Z" style="fill:#c5db68"/><path d="M1530.44,1337.51c8.56-1.82,31.19-3.07,40.58-2.35,4.69,19-3.66,61.09-20.46,103-9.81,1.83-30.11,1.71-41.51-.36,1.23-8.7,6.86-15.74,9.12-24s5-16.65,6.81-25.12,2.58-17.18,4-25.75S1528.67,1345.72,1530.44,1337.51Z" style="fill:#ffff63"/><path d="M1451,1422.53c16.58-26.22,23.55-53.79,24.55-82.86,8.33-2.6,23-3.14,42.45-1.66,3,2.92,1.7,6.62,1.33,9.94-3.11,28.48-10.3,55.72-25.07,80.6-1.4,2.35-2.63,4.81-4,7.19-.18.33-.57.54-1.3,1.18-1.5,0-3.67.59-5.31-.1C1473.23,1432.43,1462.88,1427.76,1451,1422.53Z" style="fill:#ffff63"/><path d="M419.29,460.3c20.9-.3,41.81-.95,62.72-.82,32.38.19,55.21,16.41,70.81,43.82,2.3,4,3.5,8.68,5.06,12.66-2,2.85-3.85,1.91-5.61,1-5.64-2.83-11.16-5.94-16.92-8.51-11.17-5-22.4-9.79-33.73-14.36-13.17-5.31-26.84-5.5-40.8-3.79-12.12,1.49-24.35,2.14-36.55,2.9a12.66,12.66,0,0,1-6.68-1.65A179.27,179.27,0,0,0,378.42,475c-1-.28-1.74-1.31-3.28-2.52C399,470,422.06,468,445.22,469.71c16.18,1.23,32,4.48,47,11.05,5.06,2.22,10.16,4.33,15.19,6.46,2.19-1.84,1.59-3.78-.08-5-4.08-3-8.17-6.25-12.69-8.52-10.67-5.38-22.26-7.87-34-9.82C447,461.59,433.28,461.06,419.29,460.3Z" style="fill:#c5db68"/><path d="M1859.92,1136.78c2.38,0,2.86-.15,3.16,0,27.41,15.54,52.17,34.3,71.73,59.32a125.54,125.54,0,0,1,18.33,31.73,89.52,89.52,0,0,1,3.64,55.83,20.18,20.18,0,0,1-1.31,3.1c-2.48.75-2.73-1.1-3.17-2.48-1.82-5.64-3.22-11.44-5.37-16.94-12.09-31-31-56.79-58.57-75.78-5.16-3.55-10.81-6.4-16.79-9.9C1870.94,1166.35,1866.3,1151.82,1859.92,1136.78Z" style="fill:#ffff63"/><path d="M1034,533.81c2.17,14.77-2.12,87.85-5.88,101.71q-20.28,12.9-40.8,25.9c-.62.39-1.5.38-3.08.75,3.83-19.54,10.74-38,12.7-57.65a480.25,480.25,0,0,0,1.86-59.27C1010.79,540.7,1022.14,536.61,1034,533.81Z" style="fill:#ffff63"/><path d="M909.25,205.62c-2.67-2.66-5.31-4.52-6.88-7.05-2.33-3.74-3-9.59,2-13.86,7.27-6.06,14.49-12.19,21.59-18.45a142.31,142.31,0,0,0,22.19-24.49c16.39-23.09,22.47-49.25,23.54-76.92.38-9.8.06-19.62.06-30.29,1.92,1,3.33,1.22,3.69,2,14,29.2,18.37,59.28,8,90.66a87.22,87.22,0,0,1-11.79,23.1,222.67,222.67,0,0,1-37.79,40.63,99.37,99.37,0,0,1-12.59,8.82C918,201.78,914.27,203.21,909.25,205.62Z" style="fill:#cdcea3"/><path d="M1091.27,517.42c-.25,9.78.88,19.63.75,29.47-.12,9.48-1.14,18.94-1.47,28.41-.34,9.76-2.89,19.43-1.59,30.58,14.87-6.09,29.15-11.46,43.41-17.48.34-3.25.83-6,.87-8.68.17-11.07.24-22.14.28-33.2l1.56-42.41S1091.39,512.77,1091.27,517.42Z" style="fill:#ffff63"/><path d="M721.78,53.45c6.13,63.11,36.16,110.09,92.71,140,.69,7.49-2.84,13.27-8,18.95a76.26,76.26,0,0,1-7.73-2.76c-14.35-6.92-27.46-15.63-38.69-27-3.61-3.66-7.26-7.28-10.91-10.9-19.18-19-30.23-42.36-35-68.62A93.8,93.8,0,0,1,716.23,62C717.07,58.84,717.41,54.88,721.78,53.45Z" style="fill:#cdcea3"/><path d="M1080.09,519.18a879.32,879.32,0,0,1-1.29,89.88c-8.31,5.81-31.17,17-39.76,19.51a31.42,31.42,0,0,1,0-5.83c4.58-23.33,5.46-47,6.65-70.65.35-7,0-14.06-2.64-21.16C1054.75,526,1066.48,523.13,1080.09,519.18Z" style="fill:#ffff63"/><path d="M1290.45,474.84c14.93-1.64,28.43-4.38,43.16-2.85-.17,2.28-.3,4.08-.45,5.88-.4,4.71-.91,9.41-1.17,14.12-.77,13.77-1.36,27.55-2.22,41.32-.22,3.44-1.18,6.84-1.85,10.52l-43.7,5.07c1.35-8.86,2.79-16.84,3.75-24.88.94-7.82,1.61-15.69,2-23.56C1290.37,492.26,1290.3,484,1290.45,474.84Z" style="fill:#ffff63"/><path d="M986.13,548.86c-.5,10.32-.77,18.17-1.28,26a467.42,467.42,0,0,1-9.12,66.83c-1.88,8.87-3.1,17.89-4.35,26.88-.45,3.29-1.41,6-4,8.25-7.63,6.86-15.11,13.9-22.7,20.81a6.15,6.15,0,0,1-2.16.77c-.26-.67-.84-1.39-.73-2,9.08-46.43,18.2-92.85,24-139.35C971.89,552.58,978.34,552.37,986.13,548.86Z" style="fill:#ffff63"/><path d="M1225.36,560.3c-3.47,1.06-6.4,2.08-9.4,2.86-9.85,2.58-19.72,5.07-30.25,7.76-.91-9.39,2.49-17.65,2.57-26.2s1-17.32.82-26-1.46-17.08-2.25-25.57c9.82-4.23,32.42-8.59,42.75-8.13-4.17,20.6-.66,41.49-2.9,62.16C1226.24,551.49,1225.83,555.75,1225.36,560.3Z" style="fill:#ffff63"/><path d="M1329.79,1329.79c14.83.65,29.51,2.11,45.14,4.14-8.68,22.87-23.51,40.77-37.14,59.49-8.79,1-29.27-.11-46.31-2.63,5.63-11.07,14.26-19.8,20.17-30.26C1317.44,1350.29,1323.59,1340.27,1329.79,1329.79Z" style="fill:#ffff63"/><path d="M1342.94,473c2.8-3.78,6.15-3.08,9.18-3.17,24.56-.73,26.88-.54,35.49,2.83-2,23.6-4.63,47.27-11.55,70.39-6.64,2.42-12.88.12-19,.3-5.85.17-11.7,0-17.22,0-2.19-2-1.13-3.89-.82-5.76,1.82-11.25,3.91-22.47,5.3-33.78C1345.56,493.31,1345.37,482.74,1342.94,473Z" style="fill:#ffff63"/><path d="M1237.89,483.45c10.59-3.6,29.77-6.51,38.91-6.07,2.6,11.45,1.37,51.07-2.23,71.63-7.17,3.4-25.57,7.29-39.43,8.24C1238.22,532.57,1241.08,508,1237.89,483.45Z" style="fill:#ffff63"/><path d="M1320.18,1328.37c-5.48,13.26-14.21,22.51-21.29,32.79-6.91,10-14.51,19.57-22.51,30.27-6,.32-13,.56-20,1.12s-13.91,2.09-22,1.21c4.17-8.84,11.47-14.54,16-22.13,4.65-7.76,9.62-15.34,14-23.24s8.23-16.09,12.71-24.92C1291,1323.38,1304.73,1326.6,1320.18,1328.37Z" style="fill:#ffff63"/><path d="M1349.83,1395c14-18.39,25.31-38.13,33-59.23,9.6-1.26,27.51-.53,36,1.31,1,11.82-3.14,23.2-24,66.61-7.63,1.18-15.07-2.14-22.62-3.56C1364.94,1398.77,1357.29,1399.07,1349.83,1395Z" style="fill:#ffff63"/><path d="M1482.48,494.68c-.89,2.68-1.38,4.55-2.13,6.32-6.49,15.27-12.88,30.59-19.65,45.74-2.89,6.47-6.52,12.62-10,18.79-.9,1.59-2.59,2.74-3.83,4l-23.65-16.63c4.84-12.11,10.37-23.93,14.26-36.26,3.78-12,5.89-24.48,8.92-37.57A97.25,97.25,0,0,1,1482.48,494.68Z" style="fill:#ffff63"/><path d="M348.13,917.3c-1.07-2.29-2-3.62-2.31-5.08-1.52-6.9-2.87-13.84-4.4-21.35,2.84-1.33,5.13-2.89,7.64-3.49,17.32-4.16,30.56-14.14,41.16-28.13a141.46,141.46,0,0,0,15.4-25.19c3.39-7.21,7.81-13.63,15.88-17.64l25,21.53c-5.44,1.3-9.47,2.37-13.55,3.2a57.56,57.56,0,0,0-19.61,8c-2.49,1.6-4.37,4.39-6,7-.56.88.18,3,.93,4.13a3.37,3.37,0,0,0,3.14.78,48.66,48.66,0,0,0,8.36-4.25c8.72-5.76,18.4-9,28.48-11.15,3.7-.81,3.72-.71,10.2,2.54L448.9,860c-28.2.57-51.36,12.3-71.77,30.11-6.81,5.94-12.7,12.91-19,19.41-1.92,2-3.76,4-5.8,5.88C351.51,916.08,350.27,916.34,348.13,917.3Z" style="fill:#1c9350"/><path d="M1143.46,502c4-1.11,8.08-2.18,12.33-3.18,7.24-1.72,14.2-3.09,20.82-4.19,3.05,12.09,1.81,63.61-1.94,79.79l-29.54,9.69c-2.88-3.33-1.46-6.47-1.13-9.43.06-.61.1-.92.1-.94.26-2.32.12-12.06-.78-35" style="fill:#ffff63"/><path d="M1437.14,1417.49c-10.08-3.32-19.27-5.28-28.34-9.89,11.67-21.85,18.9-44.61,20.93-68.7,6.23-3.27,12.17-1.38,18-1.42,5.5,0,11,0,17.34,0,.25,2.65.88,4.86.57,6.93-2.71,18.1-8.78,35.17-16.69,51.58C1445.5,1403.05,1441.39,1409.79,1437.14,1417.49Z" style="fill:#ffff63"/><path d="M1400.21,472.91c10.91-1.41,25.75.75,34,4.91-5.3,24-10.28,48.24-21.8,71.16-8.93.06-17.49-2.17-26.93-4.86C1393.46,520.6,1398.69,497,1400.21,472.91Z" style="fill:#ffff63"/><path d="M176.68,281.63c.33-1.12.38-2.44,1-3.34,7.3-10.31,14.83-20.46,22-30.86,5.87-8.51,14.06-11.69,24-13.09,23.15-3.25,45.54.38,69.45,5.86-2.18,1.41-3.18,2.56-4.31,2.72a233.74,233.74,0,0,0-81.4,27.59c-9.63,5.38-19.55,10.34-30.94,10.92Z" style="fill:#c5db68"/><path d="M1488.59,499.86c9.4,7.44,13.43,15.7,15.08,25.31,2.67,15.6,3,15.88-6.52,28.18-11.81,15.24-24.3,30-36.54,44.87a44.64,44.64,0,0,1-3.91,3.82c-2.71-.42-2.37-2.14-2.49-3.62-.51-6.22-1-12.44-1.56-18.87C1472,557.21,1482.58,530.46,1488.59,499.86Z" style="fill:#ffff63"/><path d="M357.22,444.87c.52-7.37,1.23-15.61,1.66-23.87q.87-17.14,1.38-34.32c.72-23.66,1.22-47.33,2-71,.25-7.06,1.26-14.1,1.88-20.71L375,285.39c-.67,5.22-1.11,8.5-1.5,11.79-.42,3.53-.72,7.08-1.21,10.6-3.18,22.75-4.63,45.48-2.35,68.49,1.4,14.1.88,28.4,1.42,42.6.43,11,1.2,22.06,1.75,33.09a22.62,22.62,0,0,1-.26,5.88,3.75,3.75,0,0,1-2.3,2.39,3.65,3.65,0,0,1-3.07-1.12C364.39,455.07,361.5,450.85,357.22,444.87Z" style="fill:#c5db68"/><path d="M412.82,696.89,404.06,700a20.18,20.18,0,0,1-1.75-3.64q-17.49-77.34-34.84-154.7c-.15-.66.38-1.46.76-2.79,5.51,1,10,4,14.16,7.39,1.55,1.29,2.17,4.14,2.48,6.38.61,4.29.72,8.65,1,13,1.13,18.61,5.21,36.71,9.54,54.76,5.81,24.18,11.74,48.32,17.59,72.49C413.15,693.63,412.93,694.46,412.82,696.89Z" style="fill:#c5db68"/><path d="M234.76,540.15c11.2-4.86,20.47-9,29.83-12.86a8.91,8.91,0,0,1,4.62,0c21,3.56,39.92,12,57.11,24.39,4.58,3.29,9.24,7,11.45,14.31-18-4.35-34-11-50.76-14.94C270.56,547.17,253.92,544.09,234.76,540.15Z" style="fill:#c5db68"/><path d="M816.05,319.13c-8.84,4.73-18.51,6.24-25.61,12.85,2.91,3.4,5.37,1.73,7.81.82,8.11-3,16.18-6.21,24.37-9,4.42-1.5,9.06-2.33,14.27-3.62,0,1.67.41,2.95-.06,3.62-11.93,17-28.38,25.71-49.06,26.18a25.79,25.79,0,0,1-10.27-2.17c-6.68-2.8-8.33-8-5.28-14.45a22.81,22.81,0,0,1,9.45-10.29c7.31-4.21,15.43-5.92,23.6-7.31C808.84,315.15,812,316.9,816.05,319.13Z" style="fill:#1c9350"/><path d="M853.1,314.88c2.79,1.35,5.85,2.33,8.32,4.13,10.54,7.67,20.91,15.58,31.34,23.4l9.32,7c2.11-2.11.49-3.19-.49-4.28C892.24,334.77,881,326.69,869.5,319c-3.19-2.13-6.3-4.39-9.85-6.86,7.65-2.45,10.48-2.79,16.16-.53a83.44,83.44,0,0,1,13.72,6.89c9.09,5.76,16.61,13.32,23.17,21.82,2.68,3.48,4.74,7.29,4.92,11.85.09,2.43-1.73,4.85-4.12,4.91a33.73,33.73,0,0,1-8.23-.48c-14.18-3.18-26.15-10.9-37.92-19a11.26,11.26,0,0,1-3-3.61" style="fill:#1c9350"/><path d="M1256.66,1812.18c6.61.88,11.27,5.39,16.41,8.92a244,244,0,0,0,50.1,26.62c12.84,5,26.07,6.2,39.61,5.2,3.49-.26,7.32-.71,10.29-2.36,13.62-7.57,24.21-17.72,26.33-34.23.34-2.61.64-5.23,1.18-9.61,4.16,5.09,5.09,9.53,5.8,14.08a27.69,27.69,0,0,1-1.64,15.12c-4.64,11.25-12.74,19.11-24.35,22.61-12.65,3.82-25.46,4.85-38.54,1.12a174,174,0,0,1-41.19-17.85c-13.91-8.27-27.29-17.44-40.85-26.31" style="fill:#ccc"/><path d="M388.55,257.61c-.27-4-.48-7.05-.67-9.84,4.53-2.32,8.31-1.1,11.94.41,4.35,1.82,8.67,3.75,12.81,6,3.47,1.87,6.58,4.37,10,6.3,1.16.65,3.33,1.07,4.18.43,2.12-1.56.56-3.58-.44-5.16-3.72-5.83-8.71-10.35-15.34-12.41-6-1.86-12.2-3-18.32-4.41-1.12-.26-2.25-.42-3.61-.67,12.11-7.92,27.25-6.53,41.39,3.77a56.1,56.1,0,0,1,19.65,26.11c1.25,3.31,2.24,6.6-.2,10.3C430.27,269.93,410.59,262,388.55,257.61Z" style="fill:#1c9350"/><path d="M292.14,889.26c-.38,4.49-.69,8.24-1.13,13.39,2.41-1.23,4-1.53,4.69-2.49,2.16-3.23,4-6.69,6.19-10.52,5.21,0,10.68,0,16.16,0a16.2,16.2,0,0,1,3.56,1L296.9,925.54l-21-7.9c-5-10.4-2.94-19.81.48-29.12C283.43,887.17,283.43,887.17,292.14,889.26Z" style="fill:#1c9350"/><path d="M298.92,455.16c5.66-5.37,12.11-5.64,18.13-6.63a98.56,98.56,0,0,1,14.19-.75c14.26-.24,20.31,2.81,30.43,15.37l-29.22,12.47c-5.49-4-10.68-8.27-16.34-11.75C310.88,460.65,305.14,458.27,298.92,455.16Z" style="fill:#1c9350"/><path d="M1475.21,1613c4.76-7.87,5.64-16.76,5.38-26.15,4.25.19,5.87,3.14,7.74,5.4,7,8.51,13.26,17.54,16.24,28.22-5,11.49-9.64,17.08-18.34,22.14Z" style="fill:#ffff63"/><path d="M960.5,198.48c-5.2-1.37-7.09-5.23-9.68-9.61,2-1.57,3.55-3.22,5.45-4.28C975.39,174,988.26,158.18,996,138a30.36,30.36,0,0,1,2.19-4.14c.15-.26.62-.34,1-.52,2.22.35,1.79,2.23,1.86,3.6.59,11.82-2.77,22.6-9,32.5C984.1,182,973.27,191.4,960.5,198.48Z" style="fill:#cdcea3"/><path d="M346.11,294.05c-1.35-5.29-.72-10.28.05-15.78,6.37-3.56,9.51-10,13.32-15.95,2.77-4.31,5.33-8.79,8.5-12.78,3.6-4.55,9.15-3.41,10.95,2.07a14,14,0,0,1,.46,5.77,34.19,34.19,0,0,1-10.9,21.76c-5.79,5.28-12.4,9.67-18.74,14.33C349,294.05,347.57,293.84,346.11,294.05Z" style="fill:#1c9350"/><path d="M938.41,336.3c-1.16-1.42-2.07-3.26-3.54-4.19-5-3.16-10.27-5.93-15.33-9-1.93-1.17-3.59-2.76-7.11-5.51,3.54,0,4.94-.27,6.19,0,5.34,1.33,10.56,3.17,16,4.18,5.87,1.11,9.89,4.77,13.74,8.74,3.6,3.71,6.53,7.89,5.86,13.71-5.49,3.64-10.87,1.41-16-.15C923.28,339.59,910,332.49,901,319c2.74-1.9,4.75-.81,6.73.69,3.76,2.88,7.33,6.09,11.38,8.51,6,3.61,11.91,7.88,19.46,7.88a4.33,4.33,0,0,0,.66.69c.17.11.45,0,.68.06Z" style="fill:#1c9350"/><path d="M1422.82,1669.43c-.28-3.89-.43-7.32-.81-10.71s-1-6.85-1.58-10.91l25-9.8c3.57,8.56,1.27,17.32,4.43,25.76C1440.68,1666.67,1432.48,1670.11,1422.82,1669.43Z" style="fill:#ffff63"/><path d="M977.71,323.82c-6.13-.18-10.21-2.71-14.54-4.37-8.52-3.26-16.9-6.1-26.34-3.23-4.87,1.48-6.9.3-13.25-3.45,14.1-10.76,28.39-5.6,42.59-1.33,1.73-3-.74-3.61-2.15-4.47-7.2-4.4-15.19-6.19-24-6.52,5.16-3.69,6.15-4.2,10-3.81a29.82,29.82,0,0,1,18,8C973.23,309.53,977.48,315,977.71,323.82Z" style="fill:#1c9350"/><path d="M1263.27,1663.3c.59-5.56,1.12-10.52,1.73-16.21,11.29,1.28,21.83,4,32.59,6.14,2.14,5.19,2.09,10.15,2.15,15.91C1286.91,1669.62,1275.42,1665.88,1263.27,1663.3Z" style="fill:#ffff63"/><path d="M1088.42,1592.07c1.24,9.56,1.24,9.56-2,17.56l-32.25-7.44c.52-5,1-9.55,1.51-14.59C1067.2,1586,1077.46,1590,1088.42,1592.07Z" style="fill:#ffff63"/><path d="M1307.39,1671c.36-5,.69-9.65,1-14.48,5.89-1.68,11.23,0,16.61.64,5,.56,10.1,1,15.83,1.59l2.5,14.42C1330.94,1675.66,1319.61,1672.48,1307.39,1671Z" style="fill:#ffff63"/><path d="M1384,1673.87c-11.06,2.43-21.81,1.94-32.92.53-1.62-5.2-1.11-9.82-1-14.36,7.6-2.18,20.82-2.71,30.61-1.14.9,3.08,2,6.39,2.83,9.76A36.61,36.61,0,0,1,1384,1673.87Z" style="fill:#ffff63"/><path d="M1193.14,1640.8c.27-4.77.5-9,.73-13.23,8.68.17,16.56,2.44,28.75,8.21v16C1214.61,1651.35,1209.39,1649.42,1193.14,1640.8Z" style="fill:#ffff63"/><path d="M731.78,163.27c1.55,1,3.33,1.78,4.62,3.06,9.16,9.11,18.14,18.42,27.36,27.49,6.63,6.52,6.67,7.75-.85,14.52-11.31-5.94-25.73-27-30.94-45.23Z" style="fill:#cdcea3"/><path d="M1098.86,1594.87l25.32,8c.94,5.9-1.15,10.54-1.39,16.48l-26.72-7.35C1096.24,1606.08,1097.58,1601,1098.86,1594.87Z" style="fill:#ffff63"/><path d="M1232,1637.66l23.76,6.66c1.7,5.62.53,10.57.28,16.19-9.26.12-17.12-2.92-25.56-6C1230.91,1649.3,1231.35,1644.35,1232,1637.66Z" style="fill:#ffff63"/><path d="M1473.54,1653.5l-14,6.57c-1.6-9.24-3-17.56-4.63-26.64,3.45-3.19,7.14-7,12.43-9.69C1472.31,1633,1471.73,1642.93,1473.54,1653.5Z" style="fill:#ffff63"/><path d="M1392.5,1656.15c6.23-3.15,12.37-5.08,19.31-4.74,2.86,6.11,1,12.54,2.55,19-6.61,3.65-13.46,3.77-20.83,3.32C1391.66,1667.88,1393,1662.09,1392.5,1656.15Z" style="fill:#ffff63"/><path d="M1131.1,1621.41c.29-3.12.38-5.44.77-7.7s1.09-4.46,1.86-7.53c4.15,1,7.87,1.65,11.51,2.67s7.37,2.38,11,3.56c1.73,5.55.53,10.47-.26,16C1147,1627.41,1139.25,1624.21,1131.1,1621.41Z" style="fill:#ffff63"/><path d="M1021.91,1595.88c.34-5,.61-8.82.89-12.93,8.18-.74,15.23,1.72,22.47,2.29,2.45,5.27,1.26,9.66-.4,14.83C1037.33,1599.15,1030.06,1598.31,1021.91,1595.88Z" style="fill:#ffff63"/><path d="M1184.37,1637.83c-3.48-.9-6.48-1.51-9.38-2.46-3.27-1.07-6.44-2.44-10.19-3.88.37-5.22.71-10.12,1.11-15.9,7.08.78,13.21,2.23,18.68,6.93.18,2.6.52,5.27.51,8C1185.09,1632.74,1184.67,1635,1184.37,1637.83Z" style="fill:#ffff63"/><path d="M1013.45,1582.82c.6,3.28,1.18,5.57,1.37,7.89.08,1-.62,2.16-1.19,4-4.22-.37-8.43-.69-12.63-1.12-3.85-.4-7.69-.91-12.12-1.44-.43-3.56-.78-6.48-1.19-9.85C996.54,1580,1004.53,1580.62,1013.45,1582.82Z" style="fill:#ffff63"/><path d="M343.35,246.41c-.2.34-.33.82-.63,1-8.91,4.72-17.84,9.4-27.08,14.26-1.46-.77-.72-2.32,0-3.58,6.62-11.88,16.65-19.15,30.7-22.66-3.14,5.08-9.76,4.47-11.78,9.69" style="fill:#1c9350"/><path d="M800.62,226.91c-4.48,1-2.65,5.05-4.8,6.81-.64,0-1.66.3-2-.06a17.48,17.48,0,0,1-3.62-4.47,6.81,6.81,0,0,1,1.08-7.69c2.18-2.54,4.92-1.84,7.6-1.13a5.43,5.43,0,0,1,2.15.9c2.65,2.22,6,4.1,7.62,6.93,1.93,3.27-.48,6.59-2.29,9.47-2.69.3-3.77-1.32-4.28-3.28C801.42,232,801.09,229.42,800.62,226.91Z" style="fill:#ffff63"/><path d="M978.05,1582.88c.55,2.06,1.13,4.26,1.65,6.27-.94.78-1.49,1.65-2.07,1.66-5.47.1-11,.06-16.78.06-.76-2.53-1.39-4.61-2-6.7C967.83,1581.49,968.17,1581.47,978.05,1582.88Z" style="fill:#ffff63"/><path d="M845.83,328.9l6.76,5.36c1.87-6.21-3.81-9-4.5-13.66,8.27,5,8.92,6.23,11.08,20-1.53,2.2-3.34,1.45-5.09.38A16.42,16.42,0,0,1,845.83,328.9Z" style="fill:#1c9350"/><path d="M757.59,278.28a146.7,146.7,0,0,1,40.76,33.4c-2.66,0-4.41.5-5.5-.12a16.37,16.37,0,0,1-4.13-4.09c-3.12-3.82-8.56-9.12-20.78-18.81-1.84-1.46-4.55-3.54-8-6Z" style="fill:#ccc"/><path d="M375.82,216.83c0,3.09.08,6.19,0,9.28s-.39,6.2-.59,9.23c-2.42.46-3.22-.92-3.08-2.52.45-5.36,1.14-10.7,1.74-16Z" style="fill:#c5db68"/><path d="M939.43,1589.25c2.65-1.29,5.2-3,8-3.75s4.27.88,4.32,4.66C948.07,1591.65,944,1591.07,939.43,1589.25Z" style="fill:#ffff63"/><path d="M439,871.6c-.17.75-.1,1.77-.56,2.18a25.76,25.76,0,0,1-3.58,2.36c-.44-1-1.25-2-1.25-3,0-2,1.64-2.49,3.31-2.42A6.35,6.35,0,0,1,439,871.6Z" style="fill:#c5db68"/><path d="M1449.35,832.28l.18.11Z" style="fill:#fff"/><path d="M732,163.11c-.2-.51-.39-1-.59-1.54.19.22.49.42.54.68a3,3,0,0,1-.13,1Z" style="fill:#fff"/><path d="M907.28,227.45c1.39-7,6.35-11.52,11.38-15.87a11.32,11.32,0,0,1,5.42-2c5-.78,8.37,2.14,8.62,7.25a20.06,20.06,0,0,1-4.12,13.25c-5.85,7.84-15,8.59-22.47,1.69-1.8-1.67-.82-3.52,1.36-4.54,2.41,2.34,4.32,6.1,8.63,3.07l2-9.43,5.06,8c4.91-3.15,6.53-7.18,5.93-12.26-.28-2.35-3.12-4.4-5.17-3.3a40.57,40.57,0,0,0-7.5,5.34C913.23,221.47,911.79,226.05,907.28,227.45Z"/><path d="M840.41,255.41c2.59,1.71,4.23,3.88,2.49,6.73s-4.39,4.14-8.17,2.17Z"/><path d="M885.61,255.94c.67.93,1.37,1.84,2,2.78,1,1.53,3,2.76,1.69,5-.88,1.52-4.24.64-6.1-1.56C881.55,260.24,882,258.92,885.61,255.94Z"/><path d="M938.41,336.3l1.51.55c-.23,0-.51,0-.68-.06a4.33,4.33,0,0,1-.66-.69Z"/><path d="M907.28,227.45c4.51-1.4,6-6,9.11-8.76a40.57,40.57,0,0,1,7.5-5.34c2.05-1.1,4.89,1,5.17,3.3.6,5.08-1,9.11-5.93,12.26l-5.06-8-2,9.43c-4.31,3-6.22-.73-8.63-3.07C907.47,227.24,907.28,227.45,907.28,227.45Z" style="fill:#ffff63"/></svg>