<svg id="b852eb80-b1a9-45b1-9ffb-1e28e367b116" data-name="Calque 1" xmlns="http://www.w3.org/2000/svg" viewBox="0 0 2163.39 1936.73"><path d="M311.36,1787.35q-3.39-3.07-6.62-6.19Q308,1784.28,311.36,1787.35Z" style="fill:none"/><path d="M303.88,1780.34c-70.2-67.87-89.16-148.48-97-182.54C221.23,1667.86,251.47,1729.85,303.88,1780.34Z" style="fill:none"/><path d="M177,1518c1.51,51.92,9.72,102.61,28.89,151.31C198.81,1650.5,181.88,1596,177,1518Z" style="fill:none"/><path d="M329.5,1119.07c13.22-23.79,22.94-49.41,34-74.3C346.67,1082.65,333.65,1110.44,329.5,1119.07Z" style="fill:none"/><path d="M1107.19,1097.23c-.08,2.45-.22,4.61-.42,6.45.13-1.21.2-1.82.2-1.84C1107.08,1100.92,1107.15,1099.41,1107.19,1097.23Z" style="fill:none"/><path d="M1130.71,954.93c14.63-3.35,28.69-6,42.08-8.19C1158.62,948.81,1144.62,951.66,1130.71,954.93Z" style="fill:none"/><path d="M686.43,1385.77a98.77,98.77,0,0,0-22.12,45.83c-5.54,27.75-2.41,46.56,27.6,65.63,17.64,11.21,37.35,17.54,57.74,22,34.52,7.6,69.58,10,104.9,9.48,45,.53,89.56-4.27,133.83-10.88,95.09-14.21,187.87-37.67,278.58-68.73,96-32.89,188.85-72.49,275.92-124.07,40.37-23.91,79.36-49.8,113.39-81.77,15.42-14.48,29.31-30.74,42.19-47.42,7.51-9.73,13-21.45,17.07-33,10.51-30,1.86-55.51-24.75-73.45-9.72-6.55-20.68-12.26-32-15.56-19-5.59-38.6-10.36-58.3-13-51-6.78-102.3-4.36-153.27.68-60.52,6-120.25,17-179.26,31.45-118.3,29-232.37,69.17-341.21,122.62-57.8,28.39-113.57,60-164.52,99.48C734.6,1336.51,709,1359.48,686.43,1385.77Z" style="fill:none"/><path d="M347.44,537.52a70,70,0,0,1,12.86,8.22A70,70,0,0,0,347.44,537.52Z" style="fill:none"/><path d="M272.91,297.49v.05c2.25,1.35,4.68,2.53,6.78,4C277.59,300.06,275.15,298.87,272.91,297.49Z" style="fill:none"/><path d="M699,1346.29c1.48-.48,3.33-.57,4.38-1.5-1,.93-2.9,1-4.38,1.5Z" style="fill:none"/><path d="M271.53,293.85c.33.85.67,1.7,1,2.54l-1-2.53Z" style="fill:none"/><path d="M624.65,424.88a4,4,0,0,0-.63,5.21A4,4,0,0,1,624.65,424.88Z" style="fill:none"/><path d="M272.64,295.78c0,.2-.07.4-.11.61h0A4.76,4.76,0,0,0,272.64,295.78Z" style="fill:none"/><path d="M207.14,1672.51c-.37-.91-.79-2-1.25-3.2-19.17-48.7-27.38-99.39-28.89-151.31-.53-8.4-1.17-21.24-1.27-37-1-.07-1.87-.18-2.69-.28,0,0,25.83,242.27,39.58,206.28C211.5,1684,209.45,1678.21,207.14,1672.51Z" style="fill:none"/><polygon points="1105.69 961.22 1105.68 961.22 1105.69 961.23 1105.69 961.22" style="fill:none"/><path d="M1724.88,1608.73l.5-.08c3.41-7.87,11.86-9.45,18.41-13.05a1050.11,1050.11,0,0,0,125.94-81c68.11-51.27,128.23-109.94,176.17-179.71,30.76-44.78,55.54-92.37,70.45-144.44,15.17-53,19.8-106.78,10.14-161.1-10.71-60.23-37.68-113.34-79.22-159.28-57.37-63.45-129.3-105.43-211.12-132.41-6.73-2.22-14-3.29-21.05-4.2q-27.31-3.47-54.71-6.27c-24.66-2.53-49.3-5.9-74-6.92a1775.91,1775.91,0,0,0-220.79,4.92c-50.19,4.19-100.22,10.53-150.21,16.8-76.24,9.57-151.66,23.68-225.81,43.36-50.93,13.52-101.5,28.4-147.62,54.45-6.16,3.48-13.1,5.84-19.91,8-52.75,17-102,40.73-147.35,72-2.93,2-6.69,2.91-12.12,5.18-.39-9.78-.74-17.4-1-25-.42-12.39-.41-24.8-1.24-37.16C756,800.1,748,737.91,732.83,676.68c-1.25-5-2.12-11.16-.33-15.73,5-12.57.18-22.82-6.21-32.87-4.1-6.44-9-12.38-14.06-19.2,11.45-3.3,19.65,2.8,28.42,5.55,9.88,3.09,19.36,7.39,29.22,10.55,7,2.23,12.67-2.26,12.67-9.51A50.39,50.39,0,0,0,781.25,604c-4.4-18.31-16-31.79-31.24-42.68-5-3.6-10.35-6.79-16.27-10.64,2.83-4.1,4.67-7.51,7.2-10.34,24.45-27.48,37.75-61,53.18-93.21,7.2-15,4.3-28.69-9.51-39.52-5-3.9-9.85-7.93-14.46-12.23-6.86-6.41-13.49-13.07-16.28-23.47,5.58-4.51,11-8.86,16.45-13.3,45.43-37.36,68.6-83,56-141.83-1.12-5.24-1.4-10.9-9.32-13.79-1.94,2.49-4.83,5-6.24,8.19-5.69,12.8-10.24,26.11-16.47,38.64-10.78,21.72-23.5,42.35-42.35,58.67-1.8,1.56-3.93,5.43-8.06,1.89,9.82-13.12,20.63-25.62,29.1-39.47,8.09-13.22,15.22-27.38,20-42a227.11,227.11,0,0,0,9.81-47.66,222.53,222.53,0,0,0-.25-46.3,270.88,270.88,0,0,0-9.67-47.76c-4.38-14.81-9.79-29.74-17.52-43.11S762.23,14.84,744.06,5.34c-.09,7.73-1.13,13,0,17.88,4.45,19.92,4.09,40.06,3.86,60.21-.08,7-.36,13.95-.68,20.91-2.26,49.56-13.2,96.47-42.39,138.5-15.38,22.15-34.3,40.76-54.6,58.42-6.79,5.91-13.8,9.25-23.39,9.76-28,1.5-55.81,4.84-82.63,13.33-16.49,5.22-33,5.18-49.74,1.66a137.71,137.71,0,0,0-59.6.17c-15.11,3.53-26.17-.6-37.63-8.89-62.53-45.24-104.27-104-125-177-5.78-20.36-9.72-40.72-7.71-61.92A32.76,32.76,0,0,0,264,66.86a12,12,0,0,0-5.35-6.58c-1.34-.75-4.72.55-6.38,1.86-13.77,10.89-19.59,25.94-23.2,42.17-10.65,48-3.7,94.09,16.34,138.53,6.75,15,13.6,29.4,14.6,46.17.5,8.25,4.38,16.44,7.43,24.4,7.88,20.54,19.78,38.84,34.16,55.71,3.93,4.6,7.37,9.59,11.49,15-14.06,12.9-21.05,28.49-25.7,45-2.56,9.07-5.5,17.6-10.95,25.53-6.23,9.06-5.82,19.39-1.48,28.95,10.43,23,23.73,43.84,46.79,57.44a320,320,0,0,1,29.38,20.15c14.4,10.83,21.56,19.5,28.75,33.27-5.35,3.13-10.88,6.06-16.09,9.47a49.27,49.27,0,0,0-18.92,23.49c-7.38,18.47-.28,34.22,18.71,41.51,13.78,5.3,28.08,5.43,42.55,3,4.37-.74,8.86-.75,13.4-1.1.91,3.73,1.85,5.94,1.93,8.18,1.78,52,0,103.89-7.46,155.42-13.37,92.49-47.84,178.11-92.67,260.14C308,1119,286.19,1150,260.7,1202.89c-18.35,38.1-30.37,69.22-36.32,85.3-16.74,45.3-36.64,110.33-48.65,192.76.43,12.46.91,24.75,1.27,37,4.89,78,21.81,132.5,28.89,151.31.43,1.06.82,2.13,1.25,3.2,2.31,5.7,4.36,11.49,5.48,14.45a337.14,337.14,0,0,0,49.68,83.81c126.34,155.73,363.76,156.86,452.44,157.28,54.46.26,125.91-4.15,272.66-38.33,132.81-30.94,320.68-84.73,540.9-183.13M755.05,1005c1.5-13.86,3.59-27.73,3.84-41.62.21-11.43,4.92-18.94,14.81-24.39,28.48-15.7,56.11-33.05,85.45-47,43-20.48,86.89-39.41,131-57.52,54.66-22.42,112.17-36.16,169.92-48.83,87.47-19.2,176.05-32,265.19-40.66,87.61-8.56,175.51-13.37,263.61-9.61,38.33,1.64,76.6,4.85,114.28,12.79,23.91,5,45.58,14.54,64.48,29.44,24.91,19.63,38.11,45,39.32,76.42,1.18,30.79-5.31,60.08-16.48,88.56-7.06,18-14.82,35.78-25.33,51.78-6.81.75-6.76-4.38-8.06-7.35-14.82-33.84-41.07-56.67-74.39-72.62-27.44-13.13-56.5-21.73-86.57-26.71-51.4-8.51-103.23-11.32-155.36-9.77-134.81,4-267.55,22.79-398.72,52.34-112.23,25.28-222.64,56.65-330.53,96-19.35,7.06-38.49,14.65-61.79,23.54C751.82,1032.41,753.56,1018.71,755.05,1005Zm57.86,41c24.21-8.92,47.19-16.93,71.25-22.42,4.41,28.94-4.29,172.23-11.9,199.4-27.37,16.85-55,33.86-82.58,50.77-1.26.77-3,.74-6.23,1.46,7.73-38.29,21.72-74.54,25.69-113S813.88,1085.34,812.91,1046Zm113.88,169.56c108.84-53.45,222.91-93.66,341.21-122.62,59-14.45,118.74-25.46,179.26-31.45,51-5,102.25-7.46,153.27-.68,19.7,2.62,39.25,7.39,58.3,13,11.27,3.3,22.23,9,32,15.56,26.61,17.94,35.26,43.47,24.75,73.45-4.06,11.59-9.56,23.31-17.07,33-12.88,16.68-26.77,32.94-42.19,47.42-34,32-73,57.86-113.39,81.77-87.07,51.58-179.9,91.18-275.92,124.07-90.71,31.06-183.49,54.52-278.58,68.73-44.27,6.61-88.86,11.41-133.83,10.88-35.32.56-70.38-1.88-104.9-9.48-20.39-4.49-40.1-10.82-57.74-22-30-19.07-33.14-37.88-27.6-65.63a98.77,98.77,0,0,1,22.12-45.83c22.61-26.29,48.17-49.26,75.84-70.7C813.22,1275.61,869,1244,926.79,1215.59ZM902.53,1018c23.57-9.65,47.33-15.29,74.87-23a1670.59,1670.59,0,0,1-2.61,176.2c-16.82,11.39-63.1,33.3-80.47,38.25,0-3.94-.64-7.82.09-11.44,9.27-45.74,11.06-92.15,13.45-138.5C908.58,1045.69,907.93,1031.89,902.53,1018Zm97.5-26.48c.24-9.12,88.7-26.1,88.7-26.1,1.42-.94,11.9-7.69,17-4.16h0v0q12-3.27,24.91-6.24h.05l.06,0c13.91-3.27,27.91-6.12,42.08-8.19,6.16,23.7,3.65,124.71-3.93,156.43l-59.81,19c-5.83-6.54-2.94-12.69-2.28-18.48.2-1.84.34-4,.42-6.45.14-8.67-.33-28.06-1.79-63.94l.29-72.06h0q-8.33,2.19-16.63,4.45l-.34.07c-.07,1.83-.5,13.12-3.15,82.78-.08,21.69-.22,43.39-.57,65.09-.09,5.33-1.07,10.65-1.75,17-28.87,11.8-57.79,22.34-87.88,34.28-2.62-21.87,2.53-40.82,3.22-60,.66-18.57,2.74-37.12,3-55.69C1001.81,1030,999.53,1010.65,1000,991.48Zm198,2.64c-.46-16.76-3-33.47-4.57-50.13,19.89-8.28,65.64-16.84,86.54-15.92-8.44,40.38-1.32,81.32-5.85,121.85-.94,8.35-1.78,16.71-2.72,25.62-7,2.09-13,4.08-19,5.61-20,5-39.93,9.93-61.25,15.22-1.84-18.41,5-34.61,5.21-51.38C1196.58,1028,1198.53,1011.05,1198.07,994.12Zm98.76-69.25c21.43-7,60.26-12.75,78.77-11.89,5.26,22.44,2.76,100.13-4.52,140.43-14.52,6.65-51.77,14.3-79.81,16.15C1297.49,1021.17,1303.28,972.93,1296.83,924.87Zm93.78,128.31c2.74-17.35,5.65-33,7.6-48.77,1.89-15.33,3.25-30.76,4-46.19.82-16.07.67-32.18,1-50.23,30.22-3.2,57.56-8.58,87.38-5.58-.36,4.48-.62,8-.93,11.53-.79,9.23-1.82,18.44-2.36,27.68-1.56,27-2.76,54-4.5,81-.44,6.75-2.38,13.41-3.73,20.63Zm118.86-148.86c5.68-7.41,12.45-6,18.6-6.21,49.71-1.44,54.39-1.07,71.83,5.55-4,46.26-9.38,92.65-23.39,138-13.42,4.75-26.07.25-38.55.59-11.83.33-23.68.07-34.85.07-4.45-3.92-2.29-7.61-1.67-11.28,3.69-22.06,7.92-44.06,10.74-66.23C1514.79,944.21,1514.39,923.49,1509.47,904.32Zm115.93-.09c22.09-2.78,52.13,1.47,68.83,9.61-10.73,47.11-20.81,94.57-44.12,139.52-18.08.11-35.4-4.27-54.53-9.55C1611.75,997.72,1622.33,951.47,1625.4,904.23Zm94.39,189.41-47.86-32.6c9.8-23.75,21-46.92,28.86-71.09,7.65-23.48,11.92-48,18.06-73.66,25.07,5.4,49.25,14.29,73.09,30.61-1.81,5.24-2.78,8.93-4.3,12.39-13.16,29.93-26.08,60-39.78,89.66-5.85,12.69-13.21,24.74-20.3,36.85C1725.73,1088.92,1722.31,1091.16,1719.79,1093.64Zm84.53-136.58c19,14.58,27.19,30.78,30.52,49.62,5.4,30.57,6.11,31.13-13.2,55.24-23.91,29.88-49.19,58.74-74,88-2.47,2.91-5.58,5.31-7.92,7.5-5.49-.83-4.78-4.21-5-7.11-1-12.19-2.08-24.38-3.15-37C1770.73,1069.48,1792.14,1017.05,1804.32,957.06Zm-1017.12,96c-1,20.23-1.55,35.63-2.59,51a890.69,890.69,0,0,1-18.45,131c-3.81,17.38-6.28,35.06-8.81,52.68-.92,6.45-2.86,11.7-8,16.18-15.45,13.45-30.59,27.24-45.94,40.8-1,.93-2.9,1-4.38,1.5h0c-.46-1.14-1.43-2.38-1.5-3.45a1.61,1.61,0,0,1,0-.44c18.38-91,36.85-182,48.67-273.19C758.39,1060.4,771.45,1060,787.2,1053.11ZM722.5,652c-11.1,7.14-22,2.76-32.33-.29-30.18-8.88-57-22.8-75.27-49.21,5.56-3.73,9.62-1.59,13.61,1.36,7.63,5.64,14.85,11.94,23,16.68q2.3,1.32,4.57,2.69c10.5,6.23,21.1,12.52,34.16,12.73-2.2-2.73-4-6.06-6.84-7.8-10.14-6.19-20.78-11.62-31-17.65-3.89-2.28-7.26-5.39-14.39-10.8,7.17,0,10-.52,12.54.09,10.8,2.61,21.38,6.21,32.28,8.2,11.89,2.16,20,9.34,27.81,17.11C717.94,632.43,723.87,640.61,722.5,652Zm-214.72-46.4c16.74,9.9,18.05,12.22,22.43,39.17-3.11,4.3-6.77,2.84-10.3.75-9-5.35-15.13-13-16.7-23.66l13.67,10.52C520.67,620.22,509.18,614.79,507.78,605.63Zm10.14-11.22c5.64,2.65,11.84,4.57,16.83,8.09,21.34,15,42.33,30.55,63.45,45.88l18.87,13.7c4.26-4.12,1-6.25-1-8.37-18.93-20.31-41.62-36.14-65-51.23-6.47-4.18-12.76-8.6-20-13.47,15.5-4.79,21.21-5.46,32.72-1a171.23,171.23,0,0,1,27.76,13.52c18.42,11.27,33.64,26.11,46.91,42.77,5.43,6.81,9.6,14.29,10,23.23.19,4.76-3.49,9.51-8.33,9.63-5.56.14-11.3.21-16.66-1C594.81,670,570.58,654.82,546.77,639c-2.51-1.66-4.42-4.47-6-7.09Zm232.64-20.15c10.54,9.66,19.14,20.34,19.61,37.69-12.42-.37-20.68-5.33-29.44-8.57-17.25-6.39-34.21-12-53.32-6.34-9.86,2.91-14,.6-26.82-6.76,28.53-21.09,57.47-11,86.22-2.62,3.5-5.81-1.5-7.06-4.35-8.75-14.58-8.63-30.77-12.14-48.54-12.78,10.46-7.24,12.46-8.25,20.21-7.48C728,560,740.34,564.91,750.56,574.26Zm56.66-326.7a58.84,58.84,0,0,1,4.44-8.12c.31-.51,1.25-.67,2-1,4.5.68,3.64,4.37,3.78,7.07,1.2,23.16-5.62,44.31-18.25,63.7-16,24.64-38,43.16-63.82,57-10.52-2.7-14.34-10.25-19.6-18.84,4-3.08,7.19-6.32,11-8.39C765.46,318.27,791.53,287.22,807.22,247.56ZM621.81,339.24c14.7-11.9,29.32-23.91,43.7-36.18a282.65,282.65,0,0,0,44.92-48c33.17-45.26,45.47-96.54,47.65-150.78.77-19.21.12-38.48.12-59.4,3.88,1.94,6.75,2.4,7.47,3.87C794,106,802.84,165,781.81,226.46a169.5,169.5,0,0,1-23.87,45.28c-21.83,29.86-47.85,56-76.51,79.67A199.75,199.75,0,0,1,656,368.7c-6.73,4-14.22,6.78-24.37,11.51-5.4-5.21-10.75-8.86-13.93-13.81C613,359.06,611.47,347.59,621.81,339.24ZM236.68,179.32c-5-26.86-3.19-54.15,4.18-80.7,1.71-6.16,2.39-13.92,11.24-16.72,12.4,123.72,73.19,215.83,187.66,274.54,1.41,14.69-5.74,26-16.25,37.15-5.41-1.84-10.77-3.13-15.65-5.41-29-13.56-55.58-30.64-78.33-53-7.3-7.18-14.68-14.28-22.07-21.38C268.64,276.5,246.26,230.79,236.68,179.32ZM427.89,424.48c3.92,6.41-1,12.92-4.62,18.57-5.45.58-7.64-2.59-8.67-6.44-1.29-4.78-2-9.72-2.91-14.66-9.08,2-5.37,9.9-9.72,13.35-1.3,0-3.37.6-4.08-.1-2.74-2.68-5.72-5.45-7.34-8.77a13,13,0,0,1,2.18-15.08c4.42-5,10-3.61,15.4-2.22a11.46,11.46,0,0,1,4.35,1.78C417.84,415.26,424.51,418.94,427.89,424.48Zm-155-126.94-.58-.35,0,0h0c0-.26.12-.53.18-.79-.33-.84-.67-1.69-1-2.54h0c.19.23.44.44.65.65a1.5,1.5,0,0,1,.44.69,1.93,1.93,0,0,1,0,.59,4.76,4.76,0,0,1-.11.62l.19.49c.06.2.13.4.19.6,2.24,1.38,4.68,2.57,6.79,4.08a17.25,17.25,0,0,1,2,1.62c18.55,17.87,36.72,36.12,55.38,53.89,13.42,12.78,13.52,15.19-1.72,28.48C312.6,374,283.63,333.08,272.92,297.54Zm95,262.47a225.9,225.9,0,0,0-22.39-17,28.4,28.4,0,0,1-2.7-2.07c-2.59-2.21-4.92-4.8-7.44-7.12h0c-17.75-6.52-30.22-17.82-39.47-32.07-1.32-2-2.57-4.13-3.77-6.29q-2.2-4-4.15-8.18-1-2.1-1.89-4.26c-2.69-6.29-2.35-12.61,1.77-17.68,8.24-10.11,11-22.11,14.91-33.92a93.58,93.58,0,0,1,11.16-23,23.9,23.9,0,0,1,13-9.27c7-1.66,14.39-1.81,19.4-7.59,4.09-4.72,7.62-9.88,12.24-15.94,14.44,3.52,25.23,14.35,41.22,19.79C384.19,404.54,379,415.86,384.25,430c5.5,14.88,21.39,21.57,43.88,19.75,12.35-20.09,12.11-23.12-4.24-45.17A118.38,118.38,0,0,1,458,416.49c10.31,5.45,18,12.76,20.59,24.31,1,4.48,1.63,9.43,8.24,9.37,1.57-18.33-3.14-28.77-19-38.49-8.71-5.34-18.35-9.24-29.11-14.55.51-6.48,5.42-12,7.28-18.31,1.73-5.95,4.11-11.95,4.44-18,.34-6.52-1.38-13.14-2.34-20.81,14.07-1.38,28.34-2,42.53,1.14a116.36,116.36,0,0,0,63.83-3.66c16.75-5.76,34.08-8.4,51.56-10.49,3-.36,6.07-.05,10.67-.05-3.13,11.66-14.93,19-12,30.6C607,367.12,611,376.31,615,387.76c-6,5-13.69,11.41-21.34,17.85-16.6,14-16.92,31.34-9.21,50.27.76-4.25,2.23-8.51,2.17-12.75-.23-15.33,6.79-26.61,19.31-35.41,10.33-7.26,20.62-13.84,32.86-18.53,15.43-5.91,29.48-15.34,43.85-23.69,6.07-3.52,11.46-8.15,18.44-13.21,3.57,3.88,6.41,7.33,9.64,10.39,5.11,4.87,9.78,12.12,15.89,13.64,12.4,3.09,17.42,12.23,24.56,20.37S767,412,775.37,419.14c6.84,5.86,9.94,13.19,5.77,20.74-14.23,25.77-18.56,56.11-39.09,79-7.36,8.18-14.12,16.86-21.49,25-4,4.41-4.32,4.13-18.73,4.48,5.42-12.17,13.48-21.11,23.26-29,7.36-5.93,15.21-11.63,21.2-18.73,4.85-5.75,7.48-13.34,10.53-20.35.52-1.2-1.78-3.56-3.14-6.06-2.59,1.64-5,2.42-6.17,4a146.28,146.28,0,0,1-29.19,30.58c-8.52,6.79-15.37,15.64-22.45,24-8.11,9.58-15.14,20-23.54,29.36-22.6,25.06-56.41,28.55-83.22,17.12-5.12-2.19-10.23-4.47-15.11-7.1-20.23-10.9-40-8.45-59.47,1.79-7,3.7-13.54,8.28-20.53,12-13,7-26,8.67-41.37,5.15-25.13-5.75-46.24-16.64-63.87-34.58a175.08,175.08,0,0,0-37.2-29.12c-22.36-13-41.33-29.3-49.8-54.46-.69-2.05-2.73-3.72-4.32-5.42-.44-.48-1.47-.46-3.71-1.06-.51,2.69-1.71,5.35-1.38,7.81,1.71,12.71,7.66,23.55,16.73,32.77,8.76,8.92,17.66,17.7,26.5,26.54,1.41.26,2.79.58,4.13,1a49.12,49.12,0,0,1,7.73,2.94,70,70,0,0,1,12.86,8.22c1.33,1,2.64,2.13,3.92,3.23,7.06,6,13.93,12.31,21,18.82,3.52,3.26,7.07,6.57,10.7,10s7.36,6.85,11.2,10.38c-.67,0-1.31,0-1.93,0-4.3.18-7.26.81-9.2-.27q-.61-.35-1.2-.75a20.05,20.05,0,0,1-2.23-1.81,57.73,57.73,0,0,1-4.93-5.45c-1.51-1.79-3.06-3.55-4.63-5.28A183.34,183.34,0,0,0,367.92,560Zm17.75,103.21A53.89,53.89,0,0,1,364.89,659c-13.53-5.49-16.86-15.64-10.7-28.32a45.23,45.23,0,0,1,19.14-20.17c14.8-8.26,31.23-11.61,47.76-14.34,7.23-1.19,13.56,2.24,21.82,6.61C425,612,405.46,615,391.09,628c5.89,6.66,10.87,3.37,15.8,1.59,16.42-5.93,32.74-12.17,49.33-17.64,8.94-2.94,18.34-4.56,28.89-7.1,0,3.28.83,5.79-.12,7.1C460.84,645.18,427.55,662.31,385.67,663.22Zm1063,1049C1323.46,1766,1195.29,1812,1063,1846.7c-81.2,21.33-163.35,37.88-246.82,48a1048.88,1048.88,0,0,1-203.75,5.15c-67.34-5-133-18.08-195.1-45.23-39-17-74.63-38.89-105.92-67.26q-3.37-3.06-6.62-6.19l-.86-.82c-52.41-50.49-82.65-112.48-97-182.54a402.4,402.4,0,0,1-7.64-136.45,353.16,353.16,0,0,1,10.4-68.25c6.75-26.54,13.76-41.17,29.11-81.14,23.56-61.36,17.38-53.8,29.37-81.21,21.26-48.56,25.33-46.69,61.43-111.68,4.15-8.63,17.17-36.42,34-74.3,6-13.51,11.41-27.27,17.21-40.87,24-56.1,41.9-113.92,49.21-174.29,3.91-32.27,5.35-64.86,6.86-97.35,1-21.65.2-43.37.2-66.26l35.36-22.81c16.29,2.58,32.36,3.16,46,12.83,5.65,4,11.89,3.87,17.91-.23,2.51-1.71,5.52-2.74,9-4.4,8.43,4.79,16.71,9.41,24.9,14.16,14.48,8.41,29.51,15.55,46.08,19.28,1.55.35,3,1,4.58,1.37,30.61,6.73,39.77-1.24,36.05-31.29-.08-.7.22-1.44.6-3.66,9.54.23,17.14,6.42,25.86,8.79,9.21,2.5,18.3,5.39,28.68,8.48,1.79,4.44,4.47,9.2,5.65,14.29,17.58,75.84,27.91,152.58,27.53,230.38-.19,38-3.73,75.8-9.35,113.46-9.26,62.08-17.75,124.27-26.9,186.36-9.06,61.51-24.66,121.57-44.33,180.66-2.18,6.56-6.16,12.57-9.19,18.88-17.68,36.87-8.54,70.46,25.7,94,16.54,11.36,35.29,18,54.55,23.53,27,7.73,54.85,11.24,82.8,12.69a725.93,725.93,0,0,0,98.36-1.62c187.32-15.71,363.64-68.77,532.57-146.72,55.72-25.7,109-55.69,158.92-91,32.41-22.93,64.07-47.06,88.22-78.3,17.89-23.15,39.13-42.86,59.65-63.46,45.75-45.92,86.34-95.68,119.31-151.08,16.85-28.31,30.5-58,39.57-89.5,7.13-24.79,11-49.89,8.22-75.8-2.23-20.51-8.82-39.25-20.8-56.26-1.76-2.51-3.45-5.07-6.37-9.36,3.8.32,6-.07,7.52.72,53,27,99.93,61.42,137.93,106.59,38.83,46.15,63.62,98.33,70.7,157.74,6.82,57.19-1.11,112.79-20.9,166.95-18.3,50.09-44.48,96.07-76.93,138.78-42,55.35-92.17,103-147.79,145.42a990.57,990.57,0,0,1-182.87,110.8C1605.9,1642.84,1527.61,1678.28,1448.64,1712.19Z"/><path d="M205.89,1669.31c.46,1.21.88,2.29,1.25,3.2C206.71,1671.44,206.32,1670.37,205.89,1669.31Z"/><path d="M272.37,297.17h0l.35-.28Z"/><path d="M1089.05,965.67q8.31-2.25,16.63-4.45c-5-3.53-15.53,3.22-17,4.16l0,.36Z"/><path d="M2014.43,1350.4c32.45-42.71,58.63-88.69,76.93-138.78,19.79-54.16,27.72-109.76,20.9-166.95-7.08-59.41-31.87-111.59-70.7-157.74-38-45.17-85-79.54-137.93-106.59-1.54-.79-3.72-.4-7.52-.72,2.92,4.29,4.61,6.85,6.37,9.36,12,17,18.57,35.75,20.8,56.26,2.82,25.91-1.09,51-8.22,75.8-9.07,31.53-22.72,61.19-39.57,89.5-33,55.4-73.56,105.16-119.31,151.08-20.52,20.6-41.76,40.31-59.65,63.46-24.15,31.24-55.81,55.37-88.22,78.3-49.92,35.32-103.2,65.31-158.92,91-168.93,77.95-345.25,131-532.57,146.72a725.93,725.93,0,0,1-98.36,1.62c-28-1.45-55.77-5-82.8-12.69-19.26-5.5-38-12.17-54.55-23.53-34.24-23.5-43.38-57.09-25.7-94,3-6.31,7-12.32,9.19-18.88,19.67-59.09,35.27-119.15,44.33-180.66,9.15-62.09,17.64-124.28,26.9-186.36,5.62-37.66,9.16-75.49,9.35-113.46.38-77.8-9.95-154.54-27.53-230.38-1.18-5.09-3.86-9.85-5.65-14.29-10.38-3.09-19.47-6-28.68-8.48-8.72-2.37-16.32-8.56-25.86-8.79-.38,2.22-.68,3-.6,3.66,3.72,30.05-5.44,38-36.05,31.29-1.55-.34-3-1-4.58-1.37-16.57-3.73-31.6-10.87-46.08-19.28-8.19-4.75-16.47-9.37-24.9-14.16-3.46,1.66-6.47,2.69-9,4.4-6,4.1-12.26,4.23-17.91.23-13.66-9.67-29.73-10.25-46-12.83L437,666c0,22.89.81,44.61-.2,66.26-1.51,32.49-2.95,65.08-6.86,97.35C422.61,890,404.67,947.8,380.71,1003.9c-5.8,13.6-11.21,27.36-17.21,40.87-11.06,24.89-20.78,50.51-34,74.3C316,1147.23,292,1198.6,246.29,1300.55q-23.68,84.62-47.38,169.23a451.52,451.52,0,0,0,7.92,128c7.89,34.06,26.85,114.67,97,182.54l.86.82q3.24,3.12,6.62,6.19c31.29,28.37,66.95,50.22,105.92,67.26,62.05,27.15,127.76,40.23,195.1,45.23a1048.88,1048.88,0,0,0,203.75-5.15c83.47-10.11,165.62-26.66,246.82-48,132.34-34.75,260.51-80.75,385.69-134.51,79-33.91,157.26-69.35,235.13-105.57a990.57,990.57,0,0,0,182.87-110.8C1922.26,1453.41,1972.39,1405.75,2014.43,1350.4Z" style="fill:#ccc"/><path d="M304.74,1781.16l-.86-.82Z" style="fill:#ccc"/><path d="M198.91,1469.78q23.7-84.61,47.38-169.23c45.74-102,69.69-153.32,83.21-181.48-36.1,65-40.17,63.12-61.43,111.68-12,27.41-5.81,19.85-29.37,81.21-15.35,40-22.36,54.6-29.11,81.14a353.16,353.16,0,0,0-10.4,68.25,402.4,402.4,0,0,0,7.64,136.45A451.52,451.52,0,0,1,198.91,1469.78Z" style="fill:#ccc"/><path d="M1142.08,930.21c131.17-29.55,263.91-48.34,398.72-52.34,52.13-1.55,104,1.26,155.36,9.77,30.07,5,59.13,13.58,86.57,26.71,33.32,15.95,59.57,38.78,74.39,72.62,1.3,3,1.25,8.1,8.06,7.35,10.51-16,18.27-33.77,25.33-51.78,11.17-28.48,17.66-57.77,16.48-88.56-1.21-31.44-14.41-56.79-39.32-76.42-18.9-14.9-40.57-24.41-64.48-29.44-37.68-7.94-76-11.15-114.28-12.79-88.1-3.76-176,1-263.61,9.61-89.14,8.7-177.72,21.46-265.19,40.66-57.75,12.67-115.26,26.41-169.92,48.83-44.15,18.11-88,37-131,57.52-29.34,14-57,31.33-85.45,47-9.89,5.45-14.6,13-14.81,24.39-.25,13.89-2.34,27.76-3.84,41.62s-3.23,27.42-5.29,44.76c23.3-8.89,42.44-16.48,61.79-23.54C919.44,986.86,1029.85,955.49,1142.08,930.21Z" style="fill:#ccc"/><path d="M335.39,533.83h0l.09-.1.1-.11c-8.84-8.84-17.74-17.62-26.5-26.54-9.07-9.22-15-20.06-16.73-32.77-.33-2.46.87-5.12,1.38-7.81,2.24.6,3.27.58,3.71,1.06,1.59,1.7,3.63,3.37,4.32,5.42,8.47,25.16,27.44,41.48,49.8,54.46a175.08,175.08,0,0,1,37.2,29.12c17.63,17.94,38.74,28.83,63.87,34.58C468,594.66,481,593,494,586c7-3.75,13.51-8.33,20.53-12,19.45-10.24,39.24-12.69,59.47-1.79,4.88,2.63,10,4.91,15.11,7.1,26.81,11.43,60.62,7.94,83.22-17.12,8.4-9.32,15.43-19.78,23.54-29.36,7.08-8.35,13.93-17.2,22.45-24a146.28,146.28,0,0,0,29.19-30.58c1.14-1.62,3.58-2.4,6.17-4,1.36,2.5,3.66,4.86,3.14,6.06-3.05,7-5.68,14.6-10.53,20.35-6,7.1-13.84,12.8-21.2,18.73-9.78,7.89-17.84,16.83-23.26,29,14.41-.35,14.74-.07,18.73-4.48,7.37-8.15,14.13-16.83,21.49-25,20.53-22.84,24.86-53.18,39.09-79,4.17-7.55,1.07-14.88-5.77-20.74-8.36-7.16-17-14.25-24.18-22.45S739,379.41,726.63,376.32c-6.11-1.52-10.78-8.77-15.89-13.64-3.23-3.06-6.07-6.51-9.64-10.39-7,5.06-12.37,9.69-18.44,13.21-14.37,8.35-28.42,17.78-43.85,23.69-12.24,4.69-22.53,11.27-32.86,18.53-12.52,8.8-19.54,20.08-19.31,35.41.06,4.24-1.41,8.5-2.17,12.75-7.71-18.93-7.39-36.28,9.21-50.27,7.65-6.44,15.33-12.83,21.34-17.85-4-11.45-8-20.64-10.39-30.22-2.88-11.57,8.92-18.94,12-30.6-4.6,0-7.68-.31-10.67.05-17.48,2.09-34.81,4.73-51.56,10.49a116.36,116.36,0,0,1-63.83,3.66c-14.19-3.11-28.46-2.52-42.53-1.14,1,7.67,2.68,14.29,2.34,20.81-.33,6.06-2.71,12.06-4.44,18-1.86,6.34-6.77,11.83-7.28,18.31,10.76,5.31,20.4,9.21,29.11,14.55,15.86,9.72,20.57,20.16,19,38.49-6.61.06-7.25-4.89-8.24-9.37C476,429.25,468.3,421.94,458,416.49a118.38,118.38,0,0,0-34.1-11.91c16.35,22.05,16.59,25.08,4.24,45.17-22.49,1.82-38.38-4.87-43.88-19.75-5.22-14.14-.06-25.46,15.57-34.61-16-5.44-26.78-16.27-41.22-19.79-4.62,6.06-8.15,11.22-12.24,15.94-5,5.78-12.38,5.93-19.4,7.59a23.9,23.9,0,0,0-13,9.27,93.58,93.58,0,0,0-11.16,23c-3.87,11.81-6.67,23.81-14.91,33.92-4.12,5.07-4.46,11.39-1.77,17.68q.92,2.16,1.89,4.26,2,4.21,4.15,8.18c1.2,2.16,2.45,4.25,3.77,6.29C305.17,516,317.65,527.31,335.39,533.83Zm289.26-109a10,10,0,0,1,3-2.13c2.89-13.57,12.86-22.39,23-30.85,2.77-2.32,7.15-3.33,11-3.91,10-1.53,16.94,4.19,17.45,14.21a38.5,38.5,0,0,1-8.34,26c-11.84,15.36-30.42,16.84-45.48,3.31-.23-.2-.43-.41-.62-.61a5.72,5.72,0,0,1-.59-.78A4,4,0,0,1,624.65,424.88Zm-40.93,54c1.37,1.84,2.77,3.62,4.07,5.47,2.08,3,6.11,5.4,3.42,9.89-1.78,3-8.57,1.26-12.33-3.05C575.5,487.29,576.46,484.71,583.72,478.86Zm-91.5-1c5.26,3.36,8.56,7.61,5,13.19s-8.88,8.13-16.53,4.26C484.61,489.39,488.38,483.66,492.22,477.82Z" style="fill:#ccc"/><path d="M335.39,533.83c-17.74-6.52-30.22-17.82-39.47-32.07,9.25,14.25,21.72,25.55,39.47,32.07Z" style="fill:#ccc"/><path d="M783.45,1275.24c3.19-.72,5-.69,6.23-1.46,27.63-16.91,55.21-33.92,82.58-50.77,7.61-27.17,16.31-170.46,11.9-199.4-24.06,5.49-47,13.5-71.25,22.42,1,39.31.19,77.77-3.77,116.2S791.18,1237,783.45,1275.24Z" style="fill:#ffff63"/><path d="M617.65,366.4c3.18,5,8.53,8.6,13.93,13.81,10.15-4.73,17.64-7.52,24.37-11.51a199.75,199.75,0,0,0,25.48-17.29c28.66-23.67,54.68-49.81,76.51-79.67a169.5,169.5,0,0,0,23.87-45.28C802.84,165,794,106,765.67,48.73c-.72-1.47-3.59-1.93-7.47-3.87,0,20.92.65,40.19-.12,59.4C755.9,158.5,743.6,209.78,710.43,255a282.65,282.65,0,0,1-44.92,48c-14.38,12.27-29,24.28-43.7,36.18C611.47,347.59,613,359.06,617.65,366.4Z" style="fill:#cdcea3"/><path d="M995.36,1164.9c30.09-11.94,59-22.48,87.88-34.28.68-6.36,1.66-11.68,1.75-17,.35-21.7.49-43.4.57-65.09.11-27.64-2.48-55.36,3.1-82.77-40.82,7.79-73,17.12-88.63,25.73.57,19.17,1.78,38.48,1.53,57.78-.24,18.57-2.32,37.12-3,55.69C997.89,1124.08,992.74,1143,995.36,1164.9Z" style="fill:#ffff63"/><path d="M1000,991.48c-.5,19.17,1.78,38.48,1.53,57.78C1001.81,1030,1000.6,1010.65,1000,991.48Z" style="fill:#ffff63"/><path d="M1085.56,1048.52c2.65-69.66,3.08-80.95,3.15-82.78h0C1083.08,993.16,1085.67,1020.88,1085.56,1048.52Z" style="fill:#ffff63"/><path d="M1088.73,965.38s-88.46,17-88.7,26.1c15.6-8.61,47.81-17.94,88.63-25.73C1088.68,965.63,1088.7,965.51,1088.73,965.38Z" style="fill:#ffff63"/><path d="M1088.71,965.74l0-.36c0,.13,0,.25-.07.37Z" style="fill:#ffff63"/><path d="M329.53,335.22c22.75,22.32,49.29,39.4,78.33,53,4.88,2.28,10.24,3.57,15.65,5.41,10.51-11.13,17.66-22.46,16.25-37.15C325.29,297.73,264.5,205.62,252.1,81.9c-8.85,2.8-9.53,10.56-11.24,16.72-7.37,26.55-9.18,53.84-4.18,80.7,9.58,51.47,32,97.18,70.78,134.52C314.85,320.94,322.23,328,329.53,335.22Z" style="fill:#cdcea3"/><path d="M894.41,1198c-.73,3.62-.09,7.5-.09,11.44,17.37-5,63.65-26.86,80.47-38.25a1670.59,1670.59,0,0,0,2.61-176.2c-27.54,7.73-51.3,13.37-74.87,23,5.4,13.93,6.05,27.73,5.33,41.49C905.47,1105.8,903.68,1152.21,894.41,1198Z" style="fill:#ffff63"/><path d="M1482.81,1022.62c1.74-27,2.94-54,4.5-81,.54-9.24,1.57-18.45,2.36-27.68.31-3.52.57-7.05.93-11.53-29.82-3-57.16,2.38-87.38,5.58-.31,18-.16,34.16-1,50.23-.78,15.43-2.14,30.86-4,46.19-2,15.76-4.86,31.42-7.6,48.77l88.47-9.93C1480.43,1036,1482.37,1029.37,1482.81,1022.62Z" style="fill:#ffff63"/><path d="M697.53,1342.84c.07,1.07,1,2.31,1.5,3.45,1.48-.48,3.33-.57,4.38-1.5,15.35-13.56,30.49-27.35,45.94-40.8,5.14-4.48,7.08-9.73,8-16.18,2.53-17.62,5-35.3,8.81-52.68a890.69,890.69,0,0,0,18.45-131c1-15.37,1.58-30.77,2.59-51-15.75,6.89-28.81,7.29-41,16.1-11.82,91.15-30.29,182.16-48.67,273.19A1.61,1.61,0,0,0,697.53,1342.84Z" style="fill:#ffff63"/><path d="M699,1346.29h0c-.46-1.14-1.43-2.38-1.5-3.45C697.6,1343.91,698.57,1345.15,699,1346.29Z" style="fill:#ffff63"/><path d="M1191.2,1096.37c21.32-5.29,41.3-10.17,61.25-15.22,6-1.53,12-3.52,19-5.61.94-8.91,1.78-17.27,2.72-25.62,4.53-40.53-2.59-81.47,5.85-121.85-20.9-.92-66.65,7.64-86.54,15.92,1.6,16.66,4.11,33.37,4.57,50.13.46,16.93-1.49,33.91-1.66,50.87C1196.24,1061.76,1189.36,1078,1191.2,1096.37Z" style="fill:#ffff63"/><path d="M1501.44,1031c-.62,3.67-2.78,7.36,1.67,11.28,11.17,0,23,.26,34.85-.07,12.48-.34,25.13,4.16,38.55-.59,14-45.33,19.36-91.72,23.39-138-17.44-6.62-22.12-7-71.83-5.55-6.15.18-12.92-1.2-18.6,6.21,4.92,19.17,5.32,39.89,2.71,60.47C1509.36,987,1505.13,1009,1501.44,1031Z" style="fill:#ffff63"/><path d="M1371.08,1053.41c7.28-40.3,9.78-118,4.52-140.43-18.51-.86-57.34,4.84-78.77,11.89,6.45,48.06.66,96.3-5.56,144.69C1319.31,1067.71,1356.56,1060.06,1371.08,1053.41Z" style="fill:#ffff63"/><path d="M1727.56,1085.8c7.09-12.11,14.45-24.16,20.3-36.85,13.7-29.69,26.62-59.73,39.78-89.66,1.52-3.46,2.49-7.15,4.3-12.39-23.84-16.32-48-25.21-73.09-30.61-6.14,25.67-10.41,50.18-18.06,73.66-7.88,24.17-19.06,47.34-28.86,71.09l47.86,32.6C1722.31,1091.16,1725.73,1088.92,1727.56,1085.8Z" style="fill:#ffff63"/><path d="M1105.74,961.26c1.87,1.35,2.28,3.64,2.49,4.93,2.06,12.44,3.09,18.67,1.54,26.06-6.4,30.57-1.81,81.1-2.58,105,0,2.18-.11,3.69-.22,4.61,0,0-.07.63-.2,1.84-.66,5.79-3.55,11.94,2.28,18.48l59.81-19c7.58-31.72,10.09-132.73,3.93-156.43-13.39,2.15-27.45,4.84-42.08,8.19l-.11,0c-8.33,2-16.63,4.08-24.91,6.26h0Z" style="fill:#ffff63"/><path d="M1130.65,955h-.05l.11,0Z" style="fill:#ffff63"/><path d="M1105.69,961.2v0c8.28-2.18,16.58-4.3,24.91-6.26Q1117.7,957.92,1105.69,961.2Z" style="fill:#ffff63"/><path d="M1109.77,992.25c1.55-7.39.52-13.62-1.54-26.06-.21-1.29-.62-3.58-2.49-4.93l0,0-.29,72.06c1.46,35.88,1.93,55.27,1.79,63.94C1108,1073.35,1103.37,1022.82,1109.77,992.25Z" style="fill:#ffff63"/><path d="M1694.23,913.84c-16.7-8.14-46.74-12.39-68.83-9.61-3.07,47.24-13.65,93.49-29.82,139.58,19.13,5.28,36.45,9.66,54.53,9.55C1673.42,1008.41,1683.5,961,1694.23,913.84Z" style="fill:#ffff63"/><path d="M1739.75,1157.38c2.34-2.19,5.45-4.59,7.92-7.5,24.78-29.22,50.06-58.08,74-88,19.31-24.11,18.6-24.67,13.2-55.24-3.33-18.84-11.5-35-30.52-49.62-12.18,60-33.59,112.42-72.75,156.22,1.07,12.61,2.12,24.8,3.15,37C1735,1153.17,1734.26,1156.55,1739.75,1157.38Z" style="fill:#ffff63"/><path d="M485,611.9c.95-1.31.12-3.82.12-7.1-10.55,2.54-19.95,4.16-28.89,7.1-16.59,5.47-32.91,11.71-49.33,17.64-4.93,1.78-9.91,5.07-15.8-1.59,14.37-13,33.94-15.93,51.82-25.2-8.26-4.37-14.59-7.8-21.82-6.61-16.53,2.73-33,6.08-47.76,14.34a45.23,45.23,0,0,0-19.14,20.17c-6.16,12.68-2.83,22.83,10.7,28.32a53.89,53.89,0,0,0,20.78,4.25C427.55,662.31,460.84,645.18,485,611.9Z" style="fill:#1c9350"/><path d="M546.77,639c23.81,15.8,48,30.93,76.76,37.16,5.36,1.16,11.1,1.09,16.66,1,4.84-.12,8.52-4.87,8.33-9.63-.36-8.94-4.53-16.42-10-23.23-13.27-16.66-28.49-31.5-46.91-42.77A171.23,171.23,0,0,0,563.89,588c-11.51-4.43-17.22-3.76-32.72,1,7.19,4.87,13.48,9.29,20,13.47,23.33,15.09,46,30.92,65,51.23,2,2.12,5.26,4.25,1,8.37l-18.87-13.7c-21.12-15.33-42.11-30.84-63.45-45.88-5-3.52-11.19-5.44-16.83-8.09l22.85,37.52C542.35,634.55,544.26,637.36,546.77,639Z" style="fill:#1c9350"/><path d="M715.72,347.39c5.26,8.59,9.08,16.14,19.6,18.84,25.85-13.88,47.77-32.4,63.82-57,12.63-19.39,19.45-40.54,18.25-63.7-.14-2.7.72-6.39-3.78-7.07-.7.35-1.64.51-2,1a58.84,58.84,0,0,0-4.44,8.12c-15.69,39.66-41.76,70.71-80.45,91.44C722.91,341.07,719.72,344.31,715.72,347.39Z" style="fill:#cdcea3"/><path d="M682.83,608c-10.9-2-21.48-5.59-32.28-8.2-2.54-.61-5.37-.09-12.54-.09,7.13,5.41,10.5,8.52,14.39,10.8,10.26,6,20.9,11.46,31,17.65,2.84,1.74,4.64,5.07,6.84,7.8l.66,0c.23.24.44.5.66.74l2.06.73c-.46,0-1,.1-1.37-.11a3.1,3.1,0,0,1-.69-.62l-1-.34-.33-.42c-13-.21-23.66-6.5-34.16-12.73q-2.28-1.37-4.57-2.69c-8.19-4.74-15.41-11-23-16.68-4-2.95-8-5.09-13.61-1.36,18.23,26.41,45.09,40.33,75.27,49.21,10.35,3,21.23,7.43,32.33.29,1.37-11.42-4.56-19.6-11.86-26.89C702.85,617.37,694.72,610.19,682.83,608Z" style="fill:#1c9350"/><path d="M690.94,636l-.33.4.33-.4-.66,0h0Z" style="fill:#1c9350"/><path d="M690.28,636c-13.06-.21-23.66-6.5-34.16-12.73,10.5,6.23,21.11,12.52,34.16,12.73Z" style="fill:#1c9350"/><path d="M690.28,636l.33.42.33-.4Z" style="fill:#1c9350"/><path d="M693.92,566.13c17.77.64,34,4.15,48.54,12.78,2.85,1.69,7.85,2.94,4.35,8.75-28.75-8.37-57.69-18.47-86.22,2.62,12.84,7.36,17,9.67,26.82,6.76,19.11-5.63,36.07,0,53.32,6.34,8.76,3.24,17,8.2,29.44,8.57-.47-17.35-9.07-28-19.61-37.69C740.34,564.91,728,560,714.13,558.65,706.38,557.88,704.38,558.89,693.92,566.13Z" style="fill:#1c9350"/><path d="M335.34,385.56c15.24-13.29,15.14-15.7,1.72-28.48-18.66-17.77-36.83-36-55.38-53.89a17.25,17.25,0,0,0-2-1.62c-2.1-1.5-4.53-2.68-6.78-4C283.63,333.08,312.6,374,335.34,385.56Z" style="fill:#cdcea3"/><path d="M279.7,301.57a17.25,17.25,0,0,1,2,1.62A17.25,17.25,0,0,0,279.7,301.57Z" style="fill:#cdcea3"/><path d="M272.37,297.17l0,0,.58.35v-.05Z" style="fill:#cdcea3"/><path d="M272.72,296.89l-.35.28.54.32C272.85,297.29,272.78,297.09,272.72,296.89Z" style="fill:#cdcea3"/><path d="M392.73,411.35a13,13,0,0,0-2.18,15.08c1.62,3.32,4.6,6.09,7.34,8.77.71.7,2.78.1,4.08.1,4.35-3.45.64-11.36,9.72-13.35.95,4.94,1.62,9.88,2.91,14.66,1,3.85,3.22,7,8.67,6.44,3.66-5.65,8.54-12.16,4.62-18.57-3.38-5.54-10.05-9.22-15.41-13.57a11.46,11.46,0,0,0-4.35-1.78C402.69,407.74,397.15,406.37,392.73,411.35Z" style="fill:#ffff63"/><path d="M503.21,621.89c1.57,10.67,7.66,18.31,16.7,23.66,3.53,2.09,7.19,3.55,10.3-.75-4.38-26.95-5.69-29.27-22.43-39.17,1.4,9.16,12.89,14.59,9.1,26.78Z" style="fill:#1c9350"/><path d="M387.59,579.89a57.73,57.73,0,0,0,4.93,5.45,20.05,20.05,0,0,0,2.23,1.81q.58.4,1.2.75c1.94,1.08,4.9.45,9.2.27.62,0,1.26,0,1.93,0-3.84-3.53-7.56-7-11.2-10.38s-7.18-6.7-10.7-10c-7-6.51-13.9-12.77-21-18.82-.94-.81-2.2-1.89-3.92-3.23a114.86,114.86,0,0,0-10.7-7.34l-12.25-7.64c-3.36-2.12-8.29-5.33-14.23-9.56,6.26,7.87,9.68,11.09,11.67,12.54,1.52,1.11,3,1.77,4.29,3.69a9.43,9.43,0,0,0,2.78,3.23c.32.21.61.36,1.43.86,0,0,1.07.68,2.24,1.5,15.11,10.64,22.39,17,22.39,17a183.34,183.34,0,0,1,15,14.6C384.53,576.34,386.08,578.1,387.59,579.89Z" style="fill:#ccc"/><path d="M335.39,533.83l-.11-.06q-7.48-3.75-15-7.39,22,15.35,22.56,14.57Q343.19,540.47,335.39,533.83Z" style="fill:#ccc"/><path d="M392.52,585.34a57.73,57.73,0,0,1-4.93-5.45A57.73,57.73,0,0,0,392.52,585.34Z" style="fill:#ccc"/><path d="M405.15,588.17c.62,0,1.26,0,1.93,0-3.84-3.53-7.56-7-11.2-10.38,3.64,3.39,7.36,6.85,11.2,10.38C406.41,588.13,405.77,588.15,405.15,588.17Z" style="fill:#ccc"/><path d="M272.62,295.19a1.5,1.5,0,0,0-.44-.69c-.21-.21-.46-.42-.65-.64l1,2.53c0-.21.09-.41.11-.61A1.94,1.94,0,0,0,272.62,295.19Z" style="fill:#fff"/><path d="M272.62,295.19a1.94,1.94,0,0,1,0,.59A1.93,1.93,0,0,0,272.62,295.19Z" style="fill:#fff"/><path d="M272.53,296.4h0c-.06.26-.13.53-.18.79h0C272.41,296.91,272.47,296.66,272.53,296.4Z" style="fill:#fff"/><path d="M272.53,296.4c-.06.26-.12.51-.16.77h0l.35-.28Z" style="fill:#fff"/><path d="M271.53,293.85h0c.19.22.44.43.65.64C272,294.29,271.72,294.08,271.53,293.85Z" style="fill:#fff"/><path d="M624,430.09a5.72,5.72,0,0,0,.59.78c.19.2.39.41.62.61,15.06,13.53,33.64,12,45.48-3.31a38.5,38.5,0,0,0,8.34-26c-.51-10-7.4-15.74-17.45-14.21-3.81.58-8.19,1.59-11,3.91-10.12,8.46-20.09,17.28-23,30.85l.33-.16.21.21c8.65-3,11.59-11.64,17.83-17a82,82,0,0,1,15.18-10.47c4.15-2.15,9.91,1.86,10.47,6.46,1.21,10-2.06,17.88-12,24-3.1-4.78-5.89-9.06-10.24-15.75-1.64,7.58-2.8,13-4,18.48-8.59,5.85-12.47-1.2-17.24-5.8-.2.07-.4.16-.61.22l.06-.26a9.78,9.78,0,0,0-3,2.12A4,4,0,0,0,624,430.09Z"/><path d="M624.61,430.87a5.72,5.72,0,0,1-.59-.78A5.72,5.72,0,0,0,624.61,430.87Z"/><path d="M628,422.6l-.24.27.26-.28-.33.16h0Z"/><path d="M628,422.6l-.32.16-.06.26.14-.15Z"/><path d="M627.66,422.75a10,10,0,0,0-3,2.13,9.78,9.78,0,0,1,3-2.12Z"/><path d="M497.26,491c3.52-5.58.22-9.83-5-13.19-3.84,5.84-7.61,11.57-11.49,17.45C488.38,499.14,493.75,496.58,497.26,491Z"/><path d="M591.21,494.22c2.69-4.49-1.34-6.91-3.42-9.89-1.3-1.85-2.7-3.63-4.07-5.47-7.26,5.85-8.22,8.43-4.84,12.31C582.64,495.48,589.43,497.19,591.21,494.22Z"/><path d="M693.66,637.48l-2.06-.73a3.1,3.1,0,0,0,.69.62C692.63,637.58,693.2,637.45,693.66,637.48Z"/><path d="M691.6,636.75c-.22-.24-.43-.5-.66-.74l-.33.4Z"/><path d="M645.44,428.6c1.2-5.52,2.36-10.9,4-18.48,4.35,6.69,7.14,11,10.24,15.75,9.94-6.16,13.21-14.08,12-24-.56-4.6-6.32-8.61-10.47-6.46A82,82,0,0,0,646,405.84c-6.24,5.32-9.18,14-17.83,17C633,427.4,636.85,434.45,645.44,428.6Z" style="fill:#ffff63"/><path d="M627.59,423c.21-.06.41-.15.61-.22l-.21-.21-.26.28Z" style="fill:#ffff63"/></svg>