<svg id="efdfd4e6-0085-42e3-9043-673115dd2ae9" data-name="Calque 1" xmlns="http://www.w3.org/2000/svg" viewBox="0 0 2163.39 1936.73"><path d="M617.63,1494.52a199.64,199.64,0,0,1,30.55,20.15A199.64,199.64,0,0,0,617.63,1494.52Z" style="fill:none"/><path d="M408.77,834.59s0,.08,0,.12c6.15,3.72,12.8,6.95,18.56,11C421.58,841.63,414.9,838.37,408.77,834.59Z" style="fill:none"/><path d="M1372.39,1183.56c-3.87,4.22-4.94,9.27-1.75,14.28C1367.45,1192.84,1368.52,1187.79,1372.39,1183.56Z" style="fill:none"/><path d="M408,829.89a12.81,12.81,0,0,1-.31,1.69v0A15.35,15.35,0,0,0,408,829.89Z" style="fill:none"/><path d="M405,824.63c.91,2.32,1.81,4.64,2.72,7-.91-2.31-1.81-4.63-2.72-7Z" style="fill:none"/><path d="M990.21,1741.55c3.6-3.73,12.18-13,21.83-11.61,13.17,1.87,14.14,21.51,33,46.37,6.55,8.65,27.6,36.44,52.55,36.07,14.93-.22,20.57-10.36,32-16,44-21.8,99.42,59.64,203.23,88.09,40.14,11,104.64,18.76,122.09-8.5,17.16-26.82-20.88-72.41-7-84.18,12.43-10.5,43.93,25.27,111.29,43.28,16.84,4.5,88.59,23.68,108.61-4.74,5-7.1,5.24-15,5.57-25.81.2-6.73,1.33-26.62-22.61-64.26-11.21-17.64-24.71-33.91-38.51-52.59,31.39-9,53.83,7.67,77.87,15.21,27.06,8.48,53,20.24,80,28.89,19.1,6.12,34.72-6.17,34.7-26a135.93,135.93,0,0,0-3.53-31.46c-12-50.15-43.87-87.07-85.57-116.92-13.76-9.84-28.36-18.59-44.57-29.15,7.74-11.24,12.8-20.56,19.71-28.33,67-75.27,103.42-166.95,145.71-255.33,19.72-41.22,11.77-78.62-26.06-108.27-13.62-10.68-27-21.74-39.61-33.52-18.8-17.54-37-35.79-44.62-64.3,15.31-12.36,30.3-24.27,45.07-36.42,124.48-102.37,188-227.32,153.38-388.55-3.08-14.35-3.85-29.88-25.53-37.79-5.33,6.82-13.25,13.78-17.1,22.45-15.59,35.06-28.07,71.51-45.12,105.86-29.55,59.5-64.39,116-116,160.7-5,4.29-10.77,14.89-22.08,5.2,26.89-36,56.51-70.2,79.71-108.13,22.15-36.22,41.69-75,54.9-115,13.9-42.06,22.34-86.53,26.87-130.56a609.11,609.11,0,0,0-.67-126.85,743.81,743.81,0,0,0-26.49-130.83c-12-40.58-26.82-81.46-48-118.09s-36-80.18-85.77-106.2c-.25,21.19-3.09,35.7-.12,49C1711.58,137.8,1710.61,193,1710,248.16c-.22,19.1-1,38.21-1.86,57.3C1701.92,441.23,1672,569.72,1592,684.87c-42.13,60.67-94,111.66-149.59,160-18.61,16.2-37.81,25.34-64.08,26.75-76.66,4.09-152.9,13.25-226.37,36.52-45.16,14.3-90.26,14.2-136.25,4.54-54.34-11.4-109.94-12-163.28.47-41.4,9.66-71.7-1.63-103.1-24.35C578,764.9,463.69,603.81,407,404c-15.83-55.78-26.64-111.56-21.12-169.64,1-10.46,1.17-21.59-1.53-31.59-1.88-7-8.2-14.36-14.68-18-3.67-2.08-12.92,1.49-17.48,5.09-37.71,29.84-53.66,71.07-63.53,115.51-29.19,131.42-10.16,257.79,44.76,379.54,18.47,41,37.24,80.52,40,126.46,1.35,22.61,12,45,20.36,66.84,21.59,56.29,54.19,106.43,93.58,152.63,10.75,12.61,20.18,26.27,31.48,41.11-38.51,35.36-57.67,78.07-70.41,123.28-7,24.85-15.07,48.22-30,69.94-17.08,24.85-15.95,53.14-4.06,79.33,28.57,63,65,120.1,128.19,157.36,28,16.52,54.52,35.69,80.48,55.2,39.46,29.67,59.07,53.41,78.75,91.15-14.63,8.55-29.8,16.6-44.07,25.93-24.35,15.93-41.33,38.11-51.82,64.35-2.46,6.14-13.46,39-2.41,66.18,21.43,52.73,115.78,57.55,161,53.66,49.25-4.24,87.24-22.8,110.51-37C941.74,1783.89,973.61,1758.72,990.21,1741.55Zm727.1-148.73c28.88,26.45,52.43,55.7,53.71,103.24-34-1-56.64-14.59-80.65-23.48-47.23-17.51-93.69-32.78-146-17.35-27,8-38.29,1.62-73.47-18.53,78.16-57.77,157.44-30.1,236.18-7.17,9.61-15.92-4.09-19.35-11.91-24-39.93-23.65-84.28-33.26-133-35,28.63-19.84,34.13-22.59,55.35-20.5C1655.42,1553.77,1689.33,1567.18,1717.31,1592.82Zm155.24-895c3.08-7.78,7.82-15,12.16-22.23.84-1.4,3.41-1.83,5.34-2.79,12.33,1.86,10,12,10.36,19.36,3.27,63.45-15.41,121.38-50,174.51-44,67.51-104,118.23-174.82,156.27-28.84-7.41-39.31-28.1-53.7-51.63,10.95-8.44,19.69-17.31,30.25-23C1758.14,891.51,1829.54,806.46,1872.55,697.79ZM1364.59,949c40.29-32.59,80.33-65.49,119.71-99.1,46.08-39.33,87.3-82.72,123.08-131.55,90.88-124,124.57-264.47,130.54-413.08,2.12-52.63.34-105.4.34-162.72,10.61,5.3,18.47,6.58,20.45,10.59C1836.43,310,1860.55,471.5,1802.92,640c-15.27,44.63-37.42,85.8-65.39,124.06-59.79,81.8-131.07,153.42-209.6,218.25-21.54,17.78-45.59,33-69.8,47.37-18.44,10.93-39,18.59-66.77,31.54-14.77-14.27-29.45-24.27-38.15-37.85C1340.32,1003.26,1336.27,971.85,1364.59,949ZM309.53,510.84c-13.7-73.57-8.76-148.34,11.43-221.06,4.69-16.87,6.57-38.14,30.8-45.81,34,338.95,200.52,591.26,514.11,752.11,3.85,40.24-15.73,71.28-44.52,101.79-14.81-5-29.51-8.6-42.88-14.84C698.91,1045.89,626.2,999.1,563.9,937.94q-30-29.48-60.47-58.57C397.08,777.1,335.77,651.85,309.53,510.84Zm523.83,671.64c10.72,17.56-2.63,35.39-12.68,50.88-14.92,1.6-20.91-7.1-23.75-17.63-3.53-13.12-5.36-26.66-7.95-40.17-24.89,5.44-14.73,27.12-26.65,36.57-3.54,0-9.21,1.63-11.18-.29-7.49-7.32-15.67-14.93-20.1-24-6.88-14.14-5-28.87,6-41.29,12.11-13.66,27.29-9.9,42.19-6.09,4.16,1.06,8.77,2.29,11.93,4.87C805.81,1157.22,824.1,1167.31,833.36,1182.48Zm156.41,513.45c-66.15,91.16-157.37,138.1-272.09,140.6-19,.41-39.29-4.48-56.93-11.64-37-15-46.18-42.86-29.3-77.6q17.35-35.71,52.44-55.26c40.53-22.62,85.55-31.8,130.84-39.28,19.78-3.26,37.14,6.13,59.78,18.12-49,25.38-102.62,33.47-142,69,16.13,18.25,29.77,9.25,43.27,4.38,45-16.25,89.71-33.35,135.16-48.33,24.48-8.08,50.25-12.5,79.14-19.46C990.1,1685.45,992.37,1692.35,989.77,1695.93Zm-88.64-56.87c-68.86-15.74-126.68-45.6-175-94.72-30.35-30.87-63.78-57.68-101.91-79.81C563,1429,511,1384.28,487.82,1315.35c-1.89-5.62-7.5-10.18-11.83-14.85-1.23-1.32-4.05-1.25-10.17-2.91-1.41,7.37-4.69,14.65-3.78,21.4,4.68,34.82,21,64.51,45.81,89.79,24,24.42,48.39,48.49,72.61,72.71,3.86.7,7.64,1.59,11.32,2.63a132.73,132.73,0,0,1,21.16,8.05c1.58.76,3.14,1.55,4.69,2.35a199.64,199.64,0,0,1,30.55,20.15c3.65,2.87,7.23,5.84,10.75,8.85,19.33,16.59,38.16,33.73,57.41,51.57,9.63,8.92,19.37,18,29.33,27.29s20.14,18.75,30.67,28.44c-1.84,0-3.6,0-5.28.11-11.8.47-19.89,2.19-25.2-.76-1.13-.63-2.22-1.31-3.3-2.05a54,54,0,0,1-6.12-5,162.85,162.85,0,0,1-13.5-14.92q-6.2-7.38-12.69-14.47a497,497,0,0,0-41.2-40,618.76,618.76,0,0,0-61.33-46.54,80.9,80.9,0,0,1-7.4-5.66c-7.1-6.07-13.47-13.16-20.38-19.51h0c-48.61-17.87-82.79-48.82-108.12-87.87q-5.43-8.36-10.34-17.21-6-10.87-11.37-22.41-2.67-5.76-5.19-11.67c-7.34-17.25-6.43-34.56,4.88-48.44,22.56-27.7,30.23-60.56,40.83-92.93a257,257,0,0,1,30.57-63.1c7.7-11.41,22.22-22.22,35.66-25.39,19.21-4.53,39.4-5,53.14-20.8,11.19-12.91,20.88-27,33.54-43.67,39.54,9.65,69.1,39.31,112.92,54.24-42.83,25.06-57,56.08-42.66,94.81,15.06,40.77,58.6,59.08,120.19,54.09,33.85-55,33.2-63.34-11.6-123.74a324.23,324.23,0,0,1,93.42,32.64c28.23,14.92,49.35,35,56.39,66.6,2.73,12.25,4.49,25.83,22.59,25.67,4.29-50.22-8.6-78.81-52.06-105.46-23.85-14.62-50.27-25.31-79.74-39.84,1.41-17.77,14.86-32.79,19.93-50.18,4.76-16.31,11.28-32.72,12.16-49.33.95-17.86-3.76-36-6.38-57,38.53-3.8,77.63-5.4,116.5,3.12,59.39,13,117.83,9.57,174.87-10,45.88-15.77,93.34-23,141.24-28.73,8.2-1,16.64-.14,29.24-.14-8.59,32-40.91,52.15-33,83.85,6.53,26.22,17.47,51.41,28.45,82.77-16.45,13.77-37.51,31.27-58.44,48.91-45.49,38.31-46.36,85.85-25.26,137.72,2.1-11.64,6.13-23.32,6-34.94-.62-42,18.62-72.9,52.91-97,28.29-19.88,56.5-37.93,90-50.77,42.28-16.19,80.75-42,120.13-64.89,16.64-9.66,31.4-22.34,50.52-36.19,9.78,10.64,17.57,20.07,26.4,28.47,14,13.32,26.8,33.18,43.54,37.36,34,8.47,47.72,33.51,67.29,55.81,19.71,22.46,43.32,41.87,66.24,61.5,18.73,16.05,27.23,36.12,15.81,56.8-39,70.61-50.86,153.73-107.11,216.31-20.14,22.4-38.66,46.17-58.87,68.51-10.92,12.08-11.82,11.31-51.31,12.26,14.85-33.34,36.94-57.83,63.73-79.44,20.16-16.26,41.66-31.86,58.06-51.3,13.3-15.76,20.5-36.56,28.86-55.76,1.44-3.29-4.86-9.75-8.6-16.61-7.09,4.51-13.78,6.63-16.91,11.09-22.31,31.89-49,59.11-80,83.76-23.34,18.6-42.12,42.86-61.51,65.73-22.23,26.23-41.49,54.89-64.5,80.42-61.91,68.66-154.53,78.23-228,46.89-14-6-28-12.22-41.41-19.43-55.43-29.87-109.65-23.16-162.92,4.9-19.23,10.12-37.09,22.67-56.25,33C978.76,1644.08,943.24,1648.69,901.13,1639.06Zm184.3,149c-24.74-14.63-41.44-35.58-45.75-64.8l37.47,28.82c10.37-33.39-21.11-48.27-24.94-73.36,45.87,27.11,49.44,33.46,61.45,107.29C1105.14,1797.85,1095.12,1793.84,1085.43,1788.1Zm329.51,86.54c-15.21.37-30.94.58-45.64-2.61-78.66-17.06-145-58.53-210.27-101.81-6.87-4.56-12.12-12.24-16.44-19.41L1080,1648c15.46,7.28,32.43,12.54,46.11,22.18,58.47,41.2,116,83.68,173.81,125.69,17.31,12.58,34.62,25.14,51.7,37.54,11.68-11.3,2.69-17.14-2.73-23-51.85-55.62-114-99-177.94-140.34-17.71-11.45-35-23.57-54.65-36.89,42.45-13.14,58.11-15,89.64-2.83a469,469,0,0,1,76.06,37c50.45,30.89,92.15,71.54,128.5,117.19,14.86,18.64,26.3,39.14,27.27,63.61C1438.28,1861.29,1428.2,1874.31,1414.94,1874.64Zm225.51-68.79c-30.41,19.58-60.23,7.57-88.59-.77-82.67-24.34-156.24-62.48-206.18-134.83,15.21-10.2,26.35-4.34,37.29,3.74,20.89,15.44,40.68,32.71,63.1,45.68,4.19,2.42,8.36,4.9,12.54,7.38,28.74,17.07,57.8,34.29,93.56,34.86-6-7.45-11-16.59-18.74-21.35-27.77-17-56.92-31.84-85-48.35-10.66-6.25-19.9-14.79-39.42-29.6,19.63,0,27.39-1.43,34.35.25,29.58,7.15,58.56,17,88.44,22.46,32.57,5.92,54.85,25.6,76.17,46.89C1627.94,1752.17,1644.2,1774.58,1640.45,1805.85Z"/><path d="M407.3,833.71h0l1-.77Z"/><path d="M1233.62,1587.09c13.38,7.21,27.38,13.45,41.41,19.43,73.43,31.34,166,21.77,228-46.89,23-25.53,42.27-54.19,64.5-80.42,19.39-22.87,38.17-47.13,61.51-65.73,30.91-24.65,57.64-51.87,80-83.76,3.13-4.46,9.82-6.58,16.91-11.09,3.74,6.86,10,13.32,8.6,16.61-8.36,19.2-15.56,40-28.86,55.76-16.4,19.44-37.9,35-58.06,51.3-26.79,21.61-48.88,46.1-63.73,79.44,39.49-1,40.39-.18,51.31-12.26,20.21-22.34,38.73-46.11,58.87-68.51,56.25-62.58,68.12-145.7,107.11-216.31,11.42-20.68,2.92-40.75-15.81-56.8-22.92-19.63-46.53-39-66.24-61.5-19.57-22.3-33.33-47.34-67.29-55.81-16.74-4.18-29.53-24-43.54-37.36-8.83-8.4-16.62-17.83-26.4-28.47-19.12,13.85-33.88,26.53-50.52,36.19-39.38,22.87-77.85,48.7-120.13,64.89-33.52,12.84-61.73,30.89-90,50.77-34.29,24.1-53.53,55-52.91,97,.18,11.62-3.85,23.3-6,34.94-21.1-51.87-20.23-99.41,25.26-137.72,20.93-17.64,42-35.14,58.44-48.91-11-31.36-21.92-56.55-28.45-82.77-7.9-31.7,24.42-51.9,33-83.85-12.6,0-21-.84-29.24.14-47.9,5.73-95.36,13-141.24,28.73-57,19.61-115.48,23-174.87,10-38.87-8.52-78-6.92-116.5-3.12,2.62,21,7.33,39.15,6.38,57-.88,16.61-7.4,33-12.16,49.33-5.07,17.39-18.52,32.41-19.93,50.18,29.47,14.53,55.89,25.22,79.74,39.84,43.46,26.65,56.35,55.24,52.06,105.46-18.1.16-19.86-13.42-22.59-25.67-7-31.64-28.16-51.68-56.39-66.6A324.23,324.23,0,0,0,822.39,1128c44.8,60.4,45.45,68.72,11.6,123.74-61.59,5-105.13-13.32-120.19-54.09-14.3-38.73-.17-69.75,42.66-94.81-43.82-14.93-73.38-44.59-112.92-54.24-12.66,16.62-22.35,30.76-33.54,43.67-13.74,15.84-33.93,16.27-53.14,20.8-13.44,3.17-28,14-35.66,25.39a257,257,0,0,0-30.57,63.1c-10.6,32.37-18.27,65.23-40.83,92.94-11.31,13.87-12.22,31.18-4.88,48.43q2.52,5.91,5.19,11.67c1.51,3.26,5.31,11.27,11.37,22.41,5.23,9.6,10,17.54,11.87,20.59,13.95,22.4,36.44,41.5,56.39,58.21,9.83,8.23,23.4,19.07,40.31,31l31.21.24a410.56,410.56,0,0,1-86.73-74c-46.55-52.72-49.47-84.08-49.93-94.56a102.82,102.82,0,0,1,1.22-20.85c6.12,1.66,8.94,1.59,10.17,2.91,4.33,4.67,9.94,9.23,11.83,14.85C511,1384.28,563,1429,624.25,1464.53c38.13,22.13,71.56,48.94,101.91,79.81,48.29,49.12,106.11,79,175,94.72,42.11,9.63,77.63,5,113.32-14.12,19.16-10.28,37-22.83,56.25-33C1124,1563.93,1178.19,1557.22,1233.62,1587.09Zm138.77-403.53a27.23,27.23,0,0,1,8.22-5.81c7.94-37.19,35.23-61.33,63-84.51,7.61-6.35,19.59-9.13,30-10.72,27.53-4.2,46.42,11.46,47.81,38.93,1.33,26.25-6.71,50.21-22.84,71.13-32.45,42.09-83.35,46.16-124.6,9.09a22.63,22.63,0,0,1-1.7-1.69,17.85,17.85,0,0,1-1.63-2.14C1367.45,1192.83,1368.52,1187.78,1372.39,1183.56Zm-112.15,147.89c3.77,5,7.61,9.92,11.15,15,5.72,8.17,16.75,14.81,9.38,27.1-4.87,8.13-23.49,3.45-33.79-8.37C1237.73,1354.55,1240.35,1347.48,1260.24,1331.45Zm-236.85,33.31c-9.62,15.25-24.34,22.25-45.27,11.65l31.47-47.79C1024,1337.82,1033,1349.46,1023.39,1364.76Z" style="fill:#ccc"/><path d="M1353.21,1023.36c8.7,13.58,23.38,23.58,38.15,37.85,27.82-13,48.33-20.61,66.77-31.54,24.21-14.35,48.26-29.59,69.8-47.37,78.53-64.83,149.81-136.45,209.6-218.25,28-38.26,50.12-79.43,65.39-124.06,57.63-168.49,33.51-330-44.21-486.9-2-4-9.84-5.29-20.45-10.59,0,57.32,1.78,110.09-.34,162.72-6,148.61-39.66,289.08-130.54,413.08-35.78,48.83-77,92.22-123.08,131.55-39.38,33.61-79.42,66.51-119.71,99.1C1336.27,971.85,1340.32,1003.26,1353.21,1023.36Z" style="fill:#cdcea3"/><path d="M503.43,879.37q30.34,29.18,60.47,58.57c62.3,61.16,135,108,214.57,145.09,13.37,6.24,28.07,9.8,42.88,14.84,28.79-30.51,48.37-61.55,44.52-101.79C552.28,835.23,385.74,582.92,351.76,244c-24.23,7.67-26.11,28.94-30.8,45.81-20.19,72.72-25.13,147.49-11.43,221.06C335.77,651.85,397.08,777.1,503.43,879.37Z" style="fill:#cdcea3"/><path d="M911,1695.94c-45.45,15-90.15,32.08-135.16,48.33-13.5,4.87-27.14,13.87-43.27-4.38,39.36-35.55,93-43.64,142-69-22.64-12-40-21.38-59.78-18.12-45.29,7.48-90.31,16.66-130.84,39.28q-35.14,19.62-52.44,55.26c-16.88,34.74-7.75,62.56,29.3,77.6,17.64,7.16,38,12,56.93,11.64,114.72-2.5,205.94-49.44,272.09-140.6,2.6-3.58.33-10.48.33-19.45C961.21,1683.44,935.44,1687.86,911,1695.94Z" style="fill:#1c9350"/><path d="M1282,1667.43a469,469,0,0,0-76.06-37c-31.53-12.14-47.19-10.31-89.64,2.83,19.69,13.32,36.94,25.44,54.65,36.89,63.91,41.34,126.09,84.72,177.94,140.34,5.42,5.81,14.41,11.65,2.73,23-17.08-12.4-34.39-25-51.7-37.54-57.85-42-115.34-84.49-173.81-125.69-13.68-9.64-30.65-14.9-46.11-22.18l62.6,102.81c4.32,7.17,9.57,14.85,16.44,19.41,65.22,43.28,131.61,84.75,210.27,101.81,14.7,3.19,30.43,3,45.64,2.61,13.26-.33,23.34-13.35,22.82-26.41-1-24.47-12.41-45-27.27-63.61C1374.14,1739,1332.44,1698.32,1282,1667.43Z" style="fill:#1c9350"/><path d="M1621.88,971.28c14.39,23.53,24.86,44.22,53.7,51.63,70.8-38,130.86-88.76,174.82-156.27,34.6-53.13,53.28-111.06,50-174.51-.38-7.41,2-17.5-10.36-19.36-1.93,1-4.5,1.39-5.34,2.79-4.34,7.25-9.08,14.45-12.16,22.23-43,108.67-114.41,193.72-220.42,250.52C1641.57,954,1632.83,962.84,1621.88,971.28Z" style="fill:#cdcea3"/><path d="M1552.17,1761.92c-35.75-.57-64.82-17.8-93.56-34.87-4.18-2.48-8.35-5-12.54-7.38-22.42-13-42.21-30.24-63.1-45.68-10.94-8.08-22.08-13.94-37.29-3.74,49.94,72.35,123.51,110.49,206.18,134.83,28.36,8.34,58.18,20.35,88.59.77,3.75-31.27-12.51-53.68-32.5-73.64-21.32-21.29-43.6-41-76.17-46.89-29.88-5.43-58.86-15.31-88.44-22.46-7-1.68-14.72-.25-34.35-.25,19.52,14.81,28.76,23.35,39.42,29.6,28.1,16.51,57.25,31.38,85,48.35,7.79,4.76,12.71,13.9,18.74,21.35" style="fill:#1c9350"/><path d="M1554,1762l-.9,1.09s.9-1.09.91-1.09c-.62,0-1.22-.06-1.83-.07h0C1552.78,1761.93,1553.37,1762,1554,1762Z" style="fill:#1c9350"/><path d="M1552.17,1761.91c-35.76-.57-64.82-17.79-93.56-34.86,28.74,17.07,57.81,34.3,93.56,34.87Z" style="fill:#1c9350"/><path d="M1552.17,1761.92c.31.38.61.78.92,1.15l.9-1.09C1553.37,1762,1552.78,1761.93,1552.17,1761.92Z" style="fill:#1c9350"/><path d="M1562.16,1570.54c48.68,1.75,93,11.36,133,35,7.82,4.63,21.52,8.06,11.91,24-78.74-22.93-158-50.6-236.18,7.17,35.18,20.15,46.44,26.49,73.47,18.53,52.36-15.43,98.82-.16,146,17.35,24,8.89,46.66,22.48,80.65,23.48-1.28-47.54-24.83-76.79-53.71-103.24-28-25.64-61.89-39-99.8-42.78C1596.29,1548,1590.79,1550.7,1562.16,1570.54Z" style="fill:#1c9350"/><path d="M579.82,1075.86c41.73-36.4,41.47-43,4.7-78C533.41,949.16,483.63,899.16,432.8,850.2a47.73,47.73,0,0,0-5.43-4.44c-5.76-4.1-12.41-7.33-18.56-11C438.14,932.08,517.5,1044.14,579.82,1075.86Z" style="fill:#cdcea3"/><path d="M432.8,850.2a47.73,47.73,0,0,0-5.43-4.44" style="fill:none;stroke:#cdcea3;stroke-linecap:round;stroke-linejoin:round;stroke-width:0px"/><path d="M737,1146.52c-11,12.42-12.85,27.15-6,41.29,4.43,9.1,12.61,16.71,20.1,24,2,1.92,7.64.29,11.18.29,11.92-9.45,1.76-31.13,26.65-36.57,2.59,13.51,4.42,27,7.95,40.17,2.84,10.53,8.83,19.23,23.75,17.63,10.05-15.49,23.4-33.32,12.68-50.88-9.26-15.17-27.55-25.26-42.22-37.18-3.16-2.58-7.77-3.81-11.93-4.87C764.31,1136.62,749.13,1132.86,737,1146.52Z" style="fill:#ffff63"/><path d="M1052.21,1678.76c3.83,25.09,35.31,40,24.94,73.36l-37.47-28.82c4.31,29.22,21,50.17,45.75,64.8,9.69,5.74,19.71,9.75,28.23-2C1101.65,1712.22,1098.08,1705.87,1052.21,1678.76Z" style="fill:#1c9350"/><path d="M570.05,1486.8c6.7,3.36,16.18,8.39,27.14,15.21,9.61,6,16.43,10.92,22.49,15.32,29.67,21.54,44.5,32.31,49.37,36.43a478,478,0,0,1,41.2,40q6.48,7.1,12.69,14.47c4.25,5,8.62,10.4,13.5,14.92a54,54,0,0,0,6.12,5c1.08.74,2.17,1.42,3.3,2.05,5.31,2.95,13.4,1.23,25.2.75,1.68-.06,3.44-.1,5.28-.1-10.53-9.69-20.71-19.16-30.67-28.44S726,1584,716.34,1575.09c-19.25-17.84-38.08-35-57.41-51.57-3.52-3-7.1-6-10.75-8.85a199.64,199.64,0,0,0-30.55-20.15c-2.46-1.28-4.69-2.35-4.69-2.35-7.15-3.54-8.19-3.83-11.82-5.81-3.08-1.67-5.39-3.12-7.16-4.23-2.9-1.82-5.4-3.53-7.47-5a61.88,61.88,0,0,1-11.23,7.33C573.46,1485.37,571.71,1486.15,570.05,1486.8Z" style="fill:#ccc"/><path d="M722.94,1608.24a162.85,162.85,0,0,0,13.5,14.92C731.56,1618.64,727.19,1613.29,722.94,1608.24Z" style="fill:#ccc"/><path d="M771.06,1630.93c1.68-.07,3.44-.11,5.28-.11-10.53-9.69-20.71-19.16-30.67-28.44,10,9.28,20.14,18.75,30.67,28.44C774.5,1630.82,772.74,1630.86,771.06,1630.93Z" style="fill:#ccc"/><path d="M1370.64,1197.84a17.85,17.85,0,0,0,1.63,2.14,22.63,22.63,0,0,0,1.7,1.69c41.25,37.07,92.15,33,124.6-9.09,16.13-20.92,24.17-44.88,22.84-71.13-1.39-27.47-20.28-43.13-47.81-38.93-10.44,1.59-22.42,4.37-30,10.72-27.73,23.18-55,47.32-63,84.51.31-.15.6-.31.91-.45.2.19.4.39.59.59,23.68-8.14,31.74-31.9,48.85-46.47,12.74-10.85,26.67-21,41.56-28.68,11.4-5.9,27.16,5.1,28.7,17.7,3.31,27.28-5.63,49-32.87,65.85-8.5-13.09-16.13-24.83-28-43.16-4.5,20.77-7.68,35.51-11,50.65-23.54,16-34.16-3.3-47.23-15.89-.56.19-1.09.42-1.67.59,0-.24.12-.47.17-.71a27.2,27.2,0,0,0-8.22,5.79C1368.52,1187.79,1367.45,1192.84,1370.64,1197.84Z"/><path d="M1370.64,1197.84a17.85,17.85,0,0,0,1.63,2.14" style="fill:none;stroke:#000;stroke-linecap:round;stroke-linejoin:round;stroke-width:0px"/><path d="M1381.48,1177.34l-.67.74.71-.78c-.31.14-.6.3-.91.45v0Z"/><path d="M1381.48,1177.34l-.87.43c0,.24-.12.47-.17.71l.37-.4Z"/><path d="M1380.61,1177.75a27.23,27.23,0,0,0-8.22,5.81,27.2,27.2,0,0,1,8.22-5.79Z"/><path d="M1009.59,1328.62l-31.47,47.79c20.93,10.6,35.65,3.6,45.27-11.65S1024,1337.82,1009.59,1328.62Z"/><path d="M1280.77,1373.54c7.37-12.29-3.66-18.93-9.38-27.1-3.54-5.07-7.38-10-11.15-15-19.89,16-22.51,23.1-13.26,33.72C1257.28,1377,1275.9,1381.67,1280.77,1373.54Z"/><path d="M1429.34,1193.78c3.28-15.14,6.46-29.88,11-50.65,11.92,18.33,19.55,30.07,28,43.16,27.24-16.88,36.18-38.57,32.87-65.85-1.54-12.6-17.3-23.6-28.7-17.7-14.89,7.73-28.82,17.83-41.56,28.68-17.11,14.57-25.17,38.33-48.85,46.47C1395.18,1190.48,1405.8,1209.81,1429.34,1193.78Z" style="fill:#ffff63"/><path d="M1380.44,1178.48c.58-.17,1.11-.4,1.67-.59-.19-.2-.39-.4-.59-.59l-.71.78Z" style="fill:#ffff63"/></svg>